G04 #@! TF.GenerationSoftware,KiCad,Pcbnew,(5.1.2)-2*
G04 #@! TF.CreationDate,2019-10-08T20:06:50+08:00*
G04 #@! TF.ProjectId,18650 holder,31383635-3020-4686-9f6c-6465722e6b69,rev?*
G04 #@! TF.SameCoordinates,Original*
G04 #@! TF.FileFunction,Copper,L1,Top*
G04 #@! TF.FilePolarity,Positive*
%FSLAX46Y46*%
G04 Gerber Fmt 4.6, Leading zero omitted, Abs format (unit mm)*
G04 Created by KiCad (PCBNEW (5.1.2)-2) date 2019-10-08 20:06:50*
%MOMM*%
%LPD*%
G04 APERTURE LIST*
%ADD10C,3.000000*%
%ADD11C,0.100000*%
%ADD12C,1.250000*%
%ADD13C,1.150000*%
%ADD14R,3.500000X3.500000*%
%ADD15C,3.500000*%
%ADD16C,0.900000*%
%ADD17O,10.400000X8.600000*%
%ADD18C,0.250000*%
%ADD19C,2.000000*%
%ADD20C,0.500000*%
G04 APERTURE END LIST*
D10*
X188962721Y-39264000D03*
X174500000Y-56500000D03*
X135962721Y-39264000D03*
X121500000Y-56500000D03*
X149212721Y-39264000D03*
X134750000Y-56500000D03*
X162462721Y-39264000D03*
X148000000Y-56500000D03*
X175712721Y-39264000D03*
X161250000Y-56500000D03*
D11*
G36*
X166139582Y-39634939D02*
G01*
X166163809Y-39638803D01*
X166187542Y-39645024D01*
X166210550Y-39653541D01*
X166232612Y-39664271D01*
X166253517Y-39677113D01*
X166273062Y-39691942D01*
X167230617Y-40495427D01*
X167248615Y-40512100D01*
X167264891Y-40530457D01*
X167279290Y-40550321D01*
X167291673Y-40571501D01*
X167301920Y-40593792D01*
X167309933Y-40616981D01*
X167315634Y-40640843D01*
X167318969Y-40665149D01*
X167319905Y-40689665D01*
X167318434Y-40714155D01*
X167314570Y-40738382D01*
X167308349Y-40762115D01*
X167299832Y-40785123D01*
X167289102Y-40807185D01*
X167276260Y-40828090D01*
X167261431Y-40847635D01*
X166779340Y-41422168D01*
X166762667Y-41440166D01*
X166744310Y-41456442D01*
X166724446Y-41470841D01*
X166703266Y-41483224D01*
X166680975Y-41493471D01*
X166657786Y-41501484D01*
X166633924Y-41507185D01*
X166609618Y-41510520D01*
X166585102Y-41511456D01*
X166560612Y-41509985D01*
X166536385Y-41506121D01*
X166512652Y-41499900D01*
X166489644Y-41491383D01*
X166467582Y-41480653D01*
X166446677Y-41467811D01*
X166427132Y-41452982D01*
X165469577Y-40649497D01*
X165451579Y-40632824D01*
X165435303Y-40614467D01*
X165420904Y-40594603D01*
X165408521Y-40573423D01*
X165398274Y-40551132D01*
X165390261Y-40527943D01*
X165384560Y-40504081D01*
X165381225Y-40479775D01*
X165380289Y-40455259D01*
X165381760Y-40430769D01*
X165385624Y-40406542D01*
X165391845Y-40382809D01*
X165400362Y-40359801D01*
X165411092Y-40337739D01*
X165423934Y-40316834D01*
X165438763Y-40297289D01*
X165920854Y-39722756D01*
X165937527Y-39704758D01*
X165955884Y-39688482D01*
X165975748Y-39674083D01*
X165996928Y-39661700D01*
X166019219Y-39651453D01*
X166042408Y-39643440D01*
X166066270Y-39637739D01*
X166090576Y-39634404D01*
X166115092Y-39633468D01*
X166139582Y-39634939D01*
X166139582Y-39634939D01*
G37*
D12*
X166350097Y-40572462D03*
D11*
G36*
X167939388Y-37490015D02*
G01*
X167963615Y-37493879D01*
X167987348Y-37500100D01*
X168010356Y-37508617D01*
X168032418Y-37519347D01*
X168053323Y-37532189D01*
X168072868Y-37547018D01*
X169030423Y-38350503D01*
X169048421Y-38367176D01*
X169064697Y-38385533D01*
X169079096Y-38405397D01*
X169091479Y-38426577D01*
X169101726Y-38448868D01*
X169109739Y-38472057D01*
X169115440Y-38495919D01*
X169118775Y-38520225D01*
X169119711Y-38544741D01*
X169118240Y-38569231D01*
X169114376Y-38593458D01*
X169108155Y-38617191D01*
X169099638Y-38640199D01*
X169088908Y-38662261D01*
X169076066Y-38683166D01*
X169061237Y-38702711D01*
X168579146Y-39277244D01*
X168562473Y-39295242D01*
X168544116Y-39311518D01*
X168524252Y-39325917D01*
X168503072Y-39338300D01*
X168480781Y-39348547D01*
X168457592Y-39356560D01*
X168433730Y-39362261D01*
X168409424Y-39365596D01*
X168384908Y-39366532D01*
X168360418Y-39365061D01*
X168336191Y-39361197D01*
X168312458Y-39354976D01*
X168289450Y-39346459D01*
X168267388Y-39335729D01*
X168246483Y-39322887D01*
X168226938Y-39308058D01*
X167269383Y-38504573D01*
X167251385Y-38487900D01*
X167235109Y-38469543D01*
X167220710Y-38449679D01*
X167208327Y-38428499D01*
X167198080Y-38406208D01*
X167190067Y-38383019D01*
X167184366Y-38359157D01*
X167181031Y-38334851D01*
X167180095Y-38310335D01*
X167181566Y-38285845D01*
X167185430Y-38261618D01*
X167191651Y-38237885D01*
X167200168Y-38214877D01*
X167210898Y-38192815D01*
X167223740Y-38171910D01*
X167238569Y-38152365D01*
X167720660Y-37577832D01*
X167737333Y-37559834D01*
X167755690Y-37543558D01*
X167775554Y-37529159D01*
X167796734Y-37516776D01*
X167819025Y-37506529D01*
X167842214Y-37498516D01*
X167866076Y-37492815D01*
X167890382Y-37489480D01*
X167914898Y-37488544D01*
X167939388Y-37490015D01*
X167939388Y-37490015D01*
G37*
D12*
X168149903Y-38427538D03*
D11*
G36*
X171224505Y-57926204D02*
G01*
X171248773Y-57929804D01*
X171272572Y-57935765D01*
X171295671Y-57944030D01*
X171317850Y-57954520D01*
X171338893Y-57967132D01*
X171358599Y-57981747D01*
X171376777Y-57998223D01*
X171393253Y-58016401D01*
X171407868Y-58036107D01*
X171420480Y-58057150D01*
X171430970Y-58079329D01*
X171439235Y-58102428D01*
X171445196Y-58126227D01*
X171448796Y-58150495D01*
X171450000Y-58174999D01*
X171450000Y-58825001D01*
X171448796Y-58849505D01*
X171445196Y-58873773D01*
X171439235Y-58897572D01*
X171430970Y-58920671D01*
X171420480Y-58942850D01*
X171407868Y-58963893D01*
X171393253Y-58983599D01*
X171376777Y-59001777D01*
X171358599Y-59018253D01*
X171338893Y-59032868D01*
X171317850Y-59045480D01*
X171295671Y-59055970D01*
X171272572Y-59064235D01*
X171248773Y-59070196D01*
X171224505Y-59073796D01*
X171200001Y-59075000D01*
X170299999Y-59075000D01*
X170275495Y-59073796D01*
X170251227Y-59070196D01*
X170227428Y-59064235D01*
X170204329Y-59055970D01*
X170182150Y-59045480D01*
X170161107Y-59032868D01*
X170141401Y-59018253D01*
X170123223Y-59001777D01*
X170106747Y-58983599D01*
X170092132Y-58963893D01*
X170079520Y-58942850D01*
X170069030Y-58920671D01*
X170060765Y-58897572D01*
X170054804Y-58873773D01*
X170051204Y-58849505D01*
X170050000Y-58825001D01*
X170050000Y-58174999D01*
X170051204Y-58150495D01*
X170054804Y-58126227D01*
X170060765Y-58102428D01*
X170069030Y-58079329D01*
X170079520Y-58057150D01*
X170092132Y-58036107D01*
X170106747Y-58016401D01*
X170123223Y-57998223D01*
X170141401Y-57981747D01*
X170161107Y-57967132D01*
X170182150Y-57954520D01*
X170204329Y-57944030D01*
X170227428Y-57935765D01*
X170251227Y-57929804D01*
X170275495Y-57926204D01*
X170299999Y-57925000D01*
X171200001Y-57925000D01*
X171224505Y-57926204D01*
X171224505Y-57926204D01*
G37*
D13*
X170750000Y-58500000D03*
D11*
G36*
X171224505Y-55876204D02*
G01*
X171248773Y-55879804D01*
X171272572Y-55885765D01*
X171295671Y-55894030D01*
X171317850Y-55904520D01*
X171338893Y-55917132D01*
X171358599Y-55931747D01*
X171376777Y-55948223D01*
X171393253Y-55966401D01*
X171407868Y-55986107D01*
X171420480Y-56007150D01*
X171430970Y-56029329D01*
X171439235Y-56052428D01*
X171445196Y-56076227D01*
X171448796Y-56100495D01*
X171450000Y-56124999D01*
X171450000Y-56775001D01*
X171448796Y-56799505D01*
X171445196Y-56823773D01*
X171439235Y-56847572D01*
X171430970Y-56870671D01*
X171420480Y-56892850D01*
X171407868Y-56913893D01*
X171393253Y-56933599D01*
X171376777Y-56951777D01*
X171358599Y-56968253D01*
X171338893Y-56982868D01*
X171317850Y-56995480D01*
X171295671Y-57005970D01*
X171272572Y-57014235D01*
X171248773Y-57020196D01*
X171224505Y-57023796D01*
X171200001Y-57025000D01*
X170299999Y-57025000D01*
X170275495Y-57023796D01*
X170251227Y-57020196D01*
X170227428Y-57014235D01*
X170204329Y-57005970D01*
X170182150Y-56995480D01*
X170161107Y-56982868D01*
X170141401Y-56968253D01*
X170123223Y-56951777D01*
X170106747Y-56933599D01*
X170092132Y-56913893D01*
X170079520Y-56892850D01*
X170069030Y-56870671D01*
X170060765Y-56847572D01*
X170054804Y-56823773D01*
X170051204Y-56799505D01*
X170050000Y-56775001D01*
X170050000Y-56124999D01*
X170051204Y-56100495D01*
X170054804Y-56076227D01*
X170060765Y-56052428D01*
X170069030Y-56029329D01*
X170079520Y-56007150D01*
X170092132Y-55986107D01*
X170106747Y-55966401D01*
X170123223Y-55948223D01*
X170141401Y-55931747D01*
X170161107Y-55917132D01*
X170182150Y-55904520D01*
X170204329Y-55894030D01*
X170227428Y-55885765D01*
X170251227Y-55879804D01*
X170275495Y-55876204D01*
X170299999Y-55875000D01*
X171200001Y-55875000D01*
X171224505Y-55876204D01*
X171224505Y-55876204D01*
G37*
D13*
X170750000Y-56450000D03*
D11*
G36*
X179289485Y-39634939D02*
G01*
X179313712Y-39638803D01*
X179337445Y-39645024D01*
X179360453Y-39653541D01*
X179382515Y-39664271D01*
X179403420Y-39677113D01*
X179422965Y-39691942D01*
X180380520Y-40495427D01*
X180398518Y-40512100D01*
X180414794Y-40530457D01*
X180429193Y-40550321D01*
X180441576Y-40571501D01*
X180451823Y-40593792D01*
X180459836Y-40616981D01*
X180465537Y-40640843D01*
X180468872Y-40665149D01*
X180469808Y-40689665D01*
X180468337Y-40714155D01*
X180464473Y-40738382D01*
X180458252Y-40762115D01*
X180449735Y-40785123D01*
X180439005Y-40807185D01*
X180426163Y-40828090D01*
X180411334Y-40847635D01*
X179929243Y-41422168D01*
X179912570Y-41440166D01*
X179894213Y-41456442D01*
X179874349Y-41470841D01*
X179853169Y-41483224D01*
X179830878Y-41493471D01*
X179807689Y-41501484D01*
X179783827Y-41507185D01*
X179759521Y-41510520D01*
X179735005Y-41511456D01*
X179710515Y-41509985D01*
X179686288Y-41506121D01*
X179662555Y-41499900D01*
X179639547Y-41491383D01*
X179617485Y-41480653D01*
X179596580Y-41467811D01*
X179577035Y-41452982D01*
X178619480Y-40649497D01*
X178601482Y-40632824D01*
X178585206Y-40614467D01*
X178570807Y-40594603D01*
X178558424Y-40573423D01*
X178548177Y-40551132D01*
X178540164Y-40527943D01*
X178534463Y-40504081D01*
X178531128Y-40479775D01*
X178530192Y-40455259D01*
X178531663Y-40430769D01*
X178535527Y-40406542D01*
X178541748Y-40382809D01*
X178550265Y-40359801D01*
X178560995Y-40337739D01*
X178573837Y-40316834D01*
X178588666Y-40297289D01*
X179070757Y-39722756D01*
X179087430Y-39704758D01*
X179105787Y-39688482D01*
X179125651Y-39674083D01*
X179146831Y-39661700D01*
X179169122Y-39651453D01*
X179192311Y-39643440D01*
X179216173Y-39637739D01*
X179240479Y-39634404D01*
X179264995Y-39633468D01*
X179289485Y-39634939D01*
X179289485Y-39634939D01*
G37*
D12*
X179500000Y-40572462D03*
D11*
G36*
X181089291Y-37490015D02*
G01*
X181113518Y-37493879D01*
X181137251Y-37500100D01*
X181160259Y-37508617D01*
X181182321Y-37519347D01*
X181203226Y-37532189D01*
X181222771Y-37547018D01*
X182180326Y-38350503D01*
X182198324Y-38367176D01*
X182214600Y-38385533D01*
X182228999Y-38405397D01*
X182241382Y-38426577D01*
X182251629Y-38448868D01*
X182259642Y-38472057D01*
X182265343Y-38495919D01*
X182268678Y-38520225D01*
X182269614Y-38544741D01*
X182268143Y-38569231D01*
X182264279Y-38593458D01*
X182258058Y-38617191D01*
X182249541Y-38640199D01*
X182238811Y-38662261D01*
X182225969Y-38683166D01*
X182211140Y-38702711D01*
X181729049Y-39277244D01*
X181712376Y-39295242D01*
X181694019Y-39311518D01*
X181674155Y-39325917D01*
X181652975Y-39338300D01*
X181630684Y-39348547D01*
X181607495Y-39356560D01*
X181583633Y-39362261D01*
X181559327Y-39365596D01*
X181534811Y-39366532D01*
X181510321Y-39365061D01*
X181486094Y-39361197D01*
X181462361Y-39354976D01*
X181439353Y-39346459D01*
X181417291Y-39335729D01*
X181396386Y-39322887D01*
X181376841Y-39308058D01*
X180419286Y-38504573D01*
X180401288Y-38487900D01*
X180385012Y-38469543D01*
X180370613Y-38449679D01*
X180358230Y-38428499D01*
X180347983Y-38406208D01*
X180339970Y-38383019D01*
X180334269Y-38359157D01*
X180330934Y-38334851D01*
X180329998Y-38310335D01*
X180331469Y-38285845D01*
X180335333Y-38261618D01*
X180341554Y-38237885D01*
X180350071Y-38214877D01*
X180360801Y-38192815D01*
X180373643Y-38171910D01*
X180388472Y-38152365D01*
X180870563Y-37577832D01*
X180887236Y-37559834D01*
X180905593Y-37543558D01*
X180925457Y-37529159D01*
X180946637Y-37516776D01*
X180968928Y-37506529D01*
X180992117Y-37498516D01*
X181015979Y-37492815D01*
X181040285Y-37489480D01*
X181064801Y-37488544D01*
X181089291Y-37490015D01*
X181089291Y-37490015D01*
G37*
D12*
X181299806Y-38427538D03*
D14*
X199500000Y-52000000D03*
D15*
X199500000Y-124000000D03*
D11*
G36*
X120974505Y-46701204D02*
G01*
X120998773Y-46704804D01*
X121022572Y-46710765D01*
X121045671Y-46719030D01*
X121067850Y-46729520D01*
X121088893Y-46742132D01*
X121108599Y-46756747D01*
X121126777Y-46773223D01*
X121143253Y-46791401D01*
X121157868Y-46811107D01*
X121170480Y-46832150D01*
X121180970Y-46854329D01*
X121189235Y-46877428D01*
X121195196Y-46901227D01*
X121198796Y-46925495D01*
X121200000Y-46949999D01*
X121200000Y-47600001D01*
X121198796Y-47624505D01*
X121195196Y-47648773D01*
X121189235Y-47672572D01*
X121180970Y-47695671D01*
X121170480Y-47717850D01*
X121157868Y-47738893D01*
X121143253Y-47758599D01*
X121126777Y-47776777D01*
X121108599Y-47793253D01*
X121088893Y-47807868D01*
X121067850Y-47820480D01*
X121045671Y-47830970D01*
X121022572Y-47839235D01*
X120998773Y-47845196D01*
X120974505Y-47848796D01*
X120950001Y-47850000D01*
X120049999Y-47850000D01*
X120025495Y-47848796D01*
X120001227Y-47845196D01*
X119977428Y-47839235D01*
X119954329Y-47830970D01*
X119932150Y-47820480D01*
X119911107Y-47807868D01*
X119891401Y-47793253D01*
X119873223Y-47776777D01*
X119856747Y-47758599D01*
X119842132Y-47738893D01*
X119829520Y-47717850D01*
X119819030Y-47695671D01*
X119810765Y-47672572D01*
X119804804Y-47648773D01*
X119801204Y-47624505D01*
X119800000Y-47600001D01*
X119800000Y-46949999D01*
X119801204Y-46925495D01*
X119804804Y-46901227D01*
X119810765Y-46877428D01*
X119819030Y-46854329D01*
X119829520Y-46832150D01*
X119842132Y-46811107D01*
X119856747Y-46791401D01*
X119873223Y-46773223D01*
X119891401Y-46756747D01*
X119911107Y-46742132D01*
X119932150Y-46729520D01*
X119954329Y-46719030D01*
X119977428Y-46710765D01*
X120001227Y-46704804D01*
X120025495Y-46701204D01*
X120049999Y-46700000D01*
X120950001Y-46700000D01*
X120974505Y-46701204D01*
X120974505Y-46701204D01*
G37*
D13*
X120500000Y-47275000D03*
D11*
G36*
X120974505Y-44651204D02*
G01*
X120998773Y-44654804D01*
X121022572Y-44660765D01*
X121045671Y-44669030D01*
X121067850Y-44679520D01*
X121088893Y-44692132D01*
X121108599Y-44706747D01*
X121126777Y-44723223D01*
X121143253Y-44741401D01*
X121157868Y-44761107D01*
X121170480Y-44782150D01*
X121180970Y-44804329D01*
X121189235Y-44827428D01*
X121195196Y-44851227D01*
X121198796Y-44875495D01*
X121200000Y-44899999D01*
X121200000Y-45550001D01*
X121198796Y-45574505D01*
X121195196Y-45598773D01*
X121189235Y-45622572D01*
X121180970Y-45645671D01*
X121170480Y-45667850D01*
X121157868Y-45688893D01*
X121143253Y-45708599D01*
X121126777Y-45726777D01*
X121108599Y-45743253D01*
X121088893Y-45757868D01*
X121067850Y-45770480D01*
X121045671Y-45780970D01*
X121022572Y-45789235D01*
X120998773Y-45795196D01*
X120974505Y-45798796D01*
X120950001Y-45800000D01*
X120049999Y-45800000D01*
X120025495Y-45798796D01*
X120001227Y-45795196D01*
X119977428Y-45789235D01*
X119954329Y-45780970D01*
X119932150Y-45770480D01*
X119911107Y-45757868D01*
X119891401Y-45743253D01*
X119873223Y-45726777D01*
X119856747Y-45708599D01*
X119842132Y-45688893D01*
X119829520Y-45667850D01*
X119819030Y-45645671D01*
X119810765Y-45622572D01*
X119804804Y-45598773D01*
X119801204Y-45574505D01*
X119800000Y-45550001D01*
X119800000Y-44899999D01*
X119801204Y-44875495D01*
X119804804Y-44851227D01*
X119810765Y-44827428D01*
X119819030Y-44804329D01*
X119829520Y-44782150D01*
X119842132Y-44761107D01*
X119856747Y-44741401D01*
X119873223Y-44723223D01*
X119891401Y-44706747D01*
X119911107Y-44692132D01*
X119932150Y-44679520D01*
X119954329Y-44669030D01*
X119977428Y-44660765D01*
X120001227Y-44654804D01*
X120025495Y-44651204D01*
X120049999Y-44650000D01*
X120950001Y-44650000D01*
X120974505Y-44651204D01*
X120974505Y-44651204D01*
G37*
D13*
X120500000Y-45225000D03*
D11*
G36*
X131474505Y-57426204D02*
G01*
X131498773Y-57429804D01*
X131522572Y-57435765D01*
X131545671Y-57444030D01*
X131567850Y-57454520D01*
X131588893Y-57467132D01*
X131608599Y-57481747D01*
X131626777Y-57498223D01*
X131643253Y-57516401D01*
X131657868Y-57536107D01*
X131670480Y-57557150D01*
X131680970Y-57579329D01*
X131689235Y-57602428D01*
X131695196Y-57626227D01*
X131698796Y-57650495D01*
X131700000Y-57674999D01*
X131700000Y-58325001D01*
X131698796Y-58349505D01*
X131695196Y-58373773D01*
X131689235Y-58397572D01*
X131680970Y-58420671D01*
X131670480Y-58442850D01*
X131657868Y-58463893D01*
X131643253Y-58483599D01*
X131626777Y-58501777D01*
X131608599Y-58518253D01*
X131588893Y-58532868D01*
X131567850Y-58545480D01*
X131545671Y-58555970D01*
X131522572Y-58564235D01*
X131498773Y-58570196D01*
X131474505Y-58573796D01*
X131450001Y-58575000D01*
X130549999Y-58575000D01*
X130525495Y-58573796D01*
X130501227Y-58570196D01*
X130477428Y-58564235D01*
X130454329Y-58555970D01*
X130432150Y-58545480D01*
X130411107Y-58532868D01*
X130391401Y-58518253D01*
X130373223Y-58501777D01*
X130356747Y-58483599D01*
X130342132Y-58463893D01*
X130329520Y-58442850D01*
X130319030Y-58420671D01*
X130310765Y-58397572D01*
X130304804Y-58373773D01*
X130301204Y-58349505D01*
X130300000Y-58325001D01*
X130300000Y-57674999D01*
X130301204Y-57650495D01*
X130304804Y-57626227D01*
X130310765Y-57602428D01*
X130319030Y-57579329D01*
X130329520Y-57557150D01*
X130342132Y-57536107D01*
X130356747Y-57516401D01*
X130373223Y-57498223D01*
X130391401Y-57481747D01*
X130411107Y-57467132D01*
X130432150Y-57454520D01*
X130454329Y-57444030D01*
X130477428Y-57435765D01*
X130501227Y-57429804D01*
X130525495Y-57426204D01*
X130549999Y-57425000D01*
X131450001Y-57425000D01*
X131474505Y-57426204D01*
X131474505Y-57426204D01*
G37*
D13*
X131000000Y-58000000D03*
D11*
G36*
X131474505Y-55376204D02*
G01*
X131498773Y-55379804D01*
X131522572Y-55385765D01*
X131545671Y-55394030D01*
X131567850Y-55404520D01*
X131588893Y-55417132D01*
X131608599Y-55431747D01*
X131626777Y-55448223D01*
X131643253Y-55466401D01*
X131657868Y-55486107D01*
X131670480Y-55507150D01*
X131680970Y-55529329D01*
X131689235Y-55552428D01*
X131695196Y-55576227D01*
X131698796Y-55600495D01*
X131700000Y-55624999D01*
X131700000Y-56275001D01*
X131698796Y-56299505D01*
X131695196Y-56323773D01*
X131689235Y-56347572D01*
X131680970Y-56370671D01*
X131670480Y-56392850D01*
X131657868Y-56413893D01*
X131643253Y-56433599D01*
X131626777Y-56451777D01*
X131608599Y-56468253D01*
X131588893Y-56482868D01*
X131567850Y-56495480D01*
X131545671Y-56505970D01*
X131522572Y-56514235D01*
X131498773Y-56520196D01*
X131474505Y-56523796D01*
X131450001Y-56525000D01*
X130549999Y-56525000D01*
X130525495Y-56523796D01*
X130501227Y-56520196D01*
X130477428Y-56514235D01*
X130454329Y-56505970D01*
X130432150Y-56495480D01*
X130411107Y-56482868D01*
X130391401Y-56468253D01*
X130373223Y-56451777D01*
X130356747Y-56433599D01*
X130342132Y-56413893D01*
X130329520Y-56392850D01*
X130319030Y-56370671D01*
X130310765Y-56347572D01*
X130304804Y-56323773D01*
X130301204Y-56299505D01*
X130300000Y-56275001D01*
X130300000Y-55624999D01*
X130301204Y-55600495D01*
X130304804Y-55576227D01*
X130310765Y-55552428D01*
X130319030Y-55529329D01*
X130329520Y-55507150D01*
X130342132Y-55486107D01*
X130356747Y-55466401D01*
X130373223Y-55448223D01*
X130391401Y-55431747D01*
X130411107Y-55417132D01*
X130432150Y-55404520D01*
X130454329Y-55394030D01*
X130477428Y-55385765D01*
X130501227Y-55379804D01*
X130525495Y-55376204D01*
X130549999Y-55375000D01*
X131450001Y-55375000D01*
X131474505Y-55376204D01*
X131474505Y-55376204D01*
G37*
D13*
X131000000Y-55950000D03*
D11*
G36*
X144974505Y-57426204D02*
G01*
X144998773Y-57429804D01*
X145022572Y-57435765D01*
X145045671Y-57444030D01*
X145067850Y-57454520D01*
X145088893Y-57467132D01*
X145108599Y-57481747D01*
X145126777Y-57498223D01*
X145143253Y-57516401D01*
X145157868Y-57536107D01*
X145170480Y-57557150D01*
X145180970Y-57579329D01*
X145189235Y-57602428D01*
X145195196Y-57626227D01*
X145198796Y-57650495D01*
X145200000Y-57674999D01*
X145200000Y-58325001D01*
X145198796Y-58349505D01*
X145195196Y-58373773D01*
X145189235Y-58397572D01*
X145180970Y-58420671D01*
X145170480Y-58442850D01*
X145157868Y-58463893D01*
X145143253Y-58483599D01*
X145126777Y-58501777D01*
X145108599Y-58518253D01*
X145088893Y-58532868D01*
X145067850Y-58545480D01*
X145045671Y-58555970D01*
X145022572Y-58564235D01*
X144998773Y-58570196D01*
X144974505Y-58573796D01*
X144950001Y-58575000D01*
X144049999Y-58575000D01*
X144025495Y-58573796D01*
X144001227Y-58570196D01*
X143977428Y-58564235D01*
X143954329Y-58555970D01*
X143932150Y-58545480D01*
X143911107Y-58532868D01*
X143891401Y-58518253D01*
X143873223Y-58501777D01*
X143856747Y-58483599D01*
X143842132Y-58463893D01*
X143829520Y-58442850D01*
X143819030Y-58420671D01*
X143810765Y-58397572D01*
X143804804Y-58373773D01*
X143801204Y-58349505D01*
X143800000Y-58325001D01*
X143800000Y-57674999D01*
X143801204Y-57650495D01*
X143804804Y-57626227D01*
X143810765Y-57602428D01*
X143819030Y-57579329D01*
X143829520Y-57557150D01*
X143842132Y-57536107D01*
X143856747Y-57516401D01*
X143873223Y-57498223D01*
X143891401Y-57481747D01*
X143911107Y-57467132D01*
X143932150Y-57454520D01*
X143954329Y-57444030D01*
X143977428Y-57435765D01*
X144001227Y-57429804D01*
X144025495Y-57426204D01*
X144049999Y-57425000D01*
X144950001Y-57425000D01*
X144974505Y-57426204D01*
X144974505Y-57426204D01*
G37*
D13*
X144500000Y-58000000D03*
D11*
G36*
X144974505Y-55376204D02*
G01*
X144998773Y-55379804D01*
X145022572Y-55385765D01*
X145045671Y-55394030D01*
X145067850Y-55404520D01*
X145088893Y-55417132D01*
X145108599Y-55431747D01*
X145126777Y-55448223D01*
X145143253Y-55466401D01*
X145157868Y-55486107D01*
X145170480Y-55507150D01*
X145180970Y-55529329D01*
X145189235Y-55552428D01*
X145195196Y-55576227D01*
X145198796Y-55600495D01*
X145200000Y-55624999D01*
X145200000Y-56275001D01*
X145198796Y-56299505D01*
X145195196Y-56323773D01*
X145189235Y-56347572D01*
X145180970Y-56370671D01*
X145170480Y-56392850D01*
X145157868Y-56413893D01*
X145143253Y-56433599D01*
X145126777Y-56451777D01*
X145108599Y-56468253D01*
X145088893Y-56482868D01*
X145067850Y-56495480D01*
X145045671Y-56505970D01*
X145022572Y-56514235D01*
X144998773Y-56520196D01*
X144974505Y-56523796D01*
X144950001Y-56525000D01*
X144049999Y-56525000D01*
X144025495Y-56523796D01*
X144001227Y-56520196D01*
X143977428Y-56514235D01*
X143954329Y-56505970D01*
X143932150Y-56495480D01*
X143911107Y-56482868D01*
X143891401Y-56468253D01*
X143873223Y-56451777D01*
X143856747Y-56433599D01*
X143842132Y-56413893D01*
X143829520Y-56392850D01*
X143819030Y-56370671D01*
X143810765Y-56347572D01*
X143804804Y-56323773D01*
X143801204Y-56299505D01*
X143800000Y-56275001D01*
X143800000Y-55624999D01*
X143801204Y-55600495D01*
X143804804Y-55576227D01*
X143810765Y-55552428D01*
X143819030Y-55529329D01*
X143829520Y-55507150D01*
X143842132Y-55486107D01*
X143856747Y-55466401D01*
X143873223Y-55448223D01*
X143891401Y-55431747D01*
X143911107Y-55417132D01*
X143932150Y-55404520D01*
X143954329Y-55394030D01*
X143977428Y-55385765D01*
X144001227Y-55379804D01*
X144025495Y-55376204D01*
X144049999Y-55375000D01*
X144950001Y-55375000D01*
X144974505Y-55376204D01*
X144974505Y-55376204D01*
G37*
D13*
X144500000Y-55950000D03*
D11*
G36*
X157724505Y-57676204D02*
G01*
X157748773Y-57679804D01*
X157772572Y-57685765D01*
X157795671Y-57694030D01*
X157817850Y-57704520D01*
X157838893Y-57717132D01*
X157858599Y-57731747D01*
X157876777Y-57748223D01*
X157893253Y-57766401D01*
X157907868Y-57786107D01*
X157920480Y-57807150D01*
X157930970Y-57829329D01*
X157939235Y-57852428D01*
X157945196Y-57876227D01*
X157948796Y-57900495D01*
X157950000Y-57924999D01*
X157950000Y-58575001D01*
X157948796Y-58599505D01*
X157945196Y-58623773D01*
X157939235Y-58647572D01*
X157930970Y-58670671D01*
X157920480Y-58692850D01*
X157907868Y-58713893D01*
X157893253Y-58733599D01*
X157876777Y-58751777D01*
X157858599Y-58768253D01*
X157838893Y-58782868D01*
X157817850Y-58795480D01*
X157795671Y-58805970D01*
X157772572Y-58814235D01*
X157748773Y-58820196D01*
X157724505Y-58823796D01*
X157700001Y-58825000D01*
X156799999Y-58825000D01*
X156775495Y-58823796D01*
X156751227Y-58820196D01*
X156727428Y-58814235D01*
X156704329Y-58805970D01*
X156682150Y-58795480D01*
X156661107Y-58782868D01*
X156641401Y-58768253D01*
X156623223Y-58751777D01*
X156606747Y-58733599D01*
X156592132Y-58713893D01*
X156579520Y-58692850D01*
X156569030Y-58670671D01*
X156560765Y-58647572D01*
X156554804Y-58623773D01*
X156551204Y-58599505D01*
X156550000Y-58575001D01*
X156550000Y-57924999D01*
X156551204Y-57900495D01*
X156554804Y-57876227D01*
X156560765Y-57852428D01*
X156569030Y-57829329D01*
X156579520Y-57807150D01*
X156592132Y-57786107D01*
X156606747Y-57766401D01*
X156623223Y-57748223D01*
X156641401Y-57731747D01*
X156661107Y-57717132D01*
X156682150Y-57704520D01*
X156704329Y-57694030D01*
X156727428Y-57685765D01*
X156751227Y-57679804D01*
X156775495Y-57676204D01*
X156799999Y-57675000D01*
X157700001Y-57675000D01*
X157724505Y-57676204D01*
X157724505Y-57676204D01*
G37*
D13*
X157250000Y-58250000D03*
D11*
G36*
X157724505Y-55626204D02*
G01*
X157748773Y-55629804D01*
X157772572Y-55635765D01*
X157795671Y-55644030D01*
X157817850Y-55654520D01*
X157838893Y-55667132D01*
X157858599Y-55681747D01*
X157876777Y-55698223D01*
X157893253Y-55716401D01*
X157907868Y-55736107D01*
X157920480Y-55757150D01*
X157930970Y-55779329D01*
X157939235Y-55802428D01*
X157945196Y-55826227D01*
X157948796Y-55850495D01*
X157950000Y-55874999D01*
X157950000Y-56525001D01*
X157948796Y-56549505D01*
X157945196Y-56573773D01*
X157939235Y-56597572D01*
X157930970Y-56620671D01*
X157920480Y-56642850D01*
X157907868Y-56663893D01*
X157893253Y-56683599D01*
X157876777Y-56701777D01*
X157858599Y-56718253D01*
X157838893Y-56732868D01*
X157817850Y-56745480D01*
X157795671Y-56755970D01*
X157772572Y-56764235D01*
X157748773Y-56770196D01*
X157724505Y-56773796D01*
X157700001Y-56775000D01*
X156799999Y-56775000D01*
X156775495Y-56773796D01*
X156751227Y-56770196D01*
X156727428Y-56764235D01*
X156704329Y-56755970D01*
X156682150Y-56745480D01*
X156661107Y-56732868D01*
X156641401Y-56718253D01*
X156623223Y-56701777D01*
X156606747Y-56683599D01*
X156592132Y-56663893D01*
X156579520Y-56642850D01*
X156569030Y-56620671D01*
X156560765Y-56597572D01*
X156554804Y-56573773D01*
X156551204Y-56549505D01*
X156550000Y-56525001D01*
X156550000Y-55874999D01*
X156551204Y-55850495D01*
X156554804Y-55826227D01*
X156560765Y-55802428D01*
X156569030Y-55779329D01*
X156579520Y-55757150D01*
X156592132Y-55736107D01*
X156606747Y-55716401D01*
X156623223Y-55698223D01*
X156641401Y-55681747D01*
X156661107Y-55667132D01*
X156682150Y-55654520D01*
X156704329Y-55644030D01*
X156727428Y-55635765D01*
X156751227Y-55629804D01*
X156775495Y-55626204D01*
X156799999Y-55625000D01*
X157700001Y-55625000D01*
X157724505Y-55626204D01*
X157724505Y-55626204D01*
G37*
D13*
X157250000Y-56200000D03*
D11*
G36*
X126139582Y-39812477D02*
G01*
X126163809Y-39816341D01*
X126187542Y-39822562D01*
X126210550Y-39831079D01*
X126232612Y-39841809D01*
X126253517Y-39854651D01*
X126273062Y-39869480D01*
X127230617Y-40672965D01*
X127248615Y-40689638D01*
X127264891Y-40707995D01*
X127279290Y-40727859D01*
X127291673Y-40749039D01*
X127301920Y-40771330D01*
X127309933Y-40794519D01*
X127315634Y-40818381D01*
X127318969Y-40842687D01*
X127319905Y-40867203D01*
X127318434Y-40891693D01*
X127314570Y-40915920D01*
X127308349Y-40939653D01*
X127299832Y-40962661D01*
X127289102Y-40984723D01*
X127276260Y-41005628D01*
X127261431Y-41025173D01*
X126779340Y-41599706D01*
X126762667Y-41617704D01*
X126744310Y-41633980D01*
X126724446Y-41648379D01*
X126703266Y-41660762D01*
X126680975Y-41671009D01*
X126657786Y-41679022D01*
X126633924Y-41684723D01*
X126609618Y-41688058D01*
X126585102Y-41688994D01*
X126560612Y-41687523D01*
X126536385Y-41683659D01*
X126512652Y-41677438D01*
X126489644Y-41668921D01*
X126467582Y-41658191D01*
X126446677Y-41645349D01*
X126427132Y-41630520D01*
X125469577Y-40827035D01*
X125451579Y-40810362D01*
X125435303Y-40792005D01*
X125420904Y-40772141D01*
X125408521Y-40750961D01*
X125398274Y-40728670D01*
X125390261Y-40705481D01*
X125384560Y-40681619D01*
X125381225Y-40657313D01*
X125380289Y-40632797D01*
X125381760Y-40608307D01*
X125385624Y-40584080D01*
X125391845Y-40560347D01*
X125400362Y-40537339D01*
X125411092Y-40515277D01*
X125423934Y-40494372D01*
X125438763Y-40474827D01*
X125920854Y-39900294D01*
X125937527Y-39882296D01*
X125955884Y-39866020D01*
X125975748Y-39851621D01*
X125996928Y-39839238D01*
X126019219Y-39828991D01*
X126042408Y-39820978D01*
X126066270Y-39815277D01*
X126090576Y-39811942D01*
X126115092Y-39811006D01*
X126139582Y-39812477D01*
X126139582Y-39812477D01*
G37*
D12*
X126350097Y-40750000D03*
D11*
G36*
X127939388Y-37667553D02*
G01*
X127963615Y-37671417D01*
X127987348Y-37677638D01*
X128010356Y-37686155D01*
X128032418Y-37696885D01*
X128053323Y-37709727D01*
X128072868Y-37724556D01*
X129030423Y-38528041D01*
X129048421Y-38544714D01*
X129064697Y-38563071D01*
X129079096Y-38582935D01*
X129091479Y-38604115D01*
X129101726Y-38626406D01*
X129109739Y-38649595D01*
X129115440Y-38673457D01*
X129118775Y-38697763D01*
X129119711Y-38722279D01*
X129118240Y-38746769D01*
X129114376Y-38770996D01*
X129108155Y-38794729D01*
X129099638Y-38817737D01*
X129088908Y-38839799D01*
X129076066Y-38860704D01*
X129061237Y-38880249D01*
X128579146Y-39454782D01*
X128562473Y-39472780D01*
X128544116Y-39489056D01*
X128524252Y-39503455D01*
X128503072Y-39515838D01*
X128480781Y-39526085D01*
X128457592Y-39534098D01*
X128433730Y-39539799D01*
X128409424Y-39543134D01*
X128384908Y-39544070D01*
X128360418Y-39542599D01*
X128336191Y-39538735D01*
X128312458Y-39532514D01*
X128289450Y-39523997D01*
X128267388Y-39513267D01*
X128246483Y-39500425D01*
X128226938Y-39485596D01*
X127269383Y-38682111D01*
X127251385Y-38665438D01*
X127235109Y-38647081D01*
X127220710Y-38627217D01*
X127208327Y-38606037D01*
X127198080Y-38583746D01*
X127190067Y-38560557D01*
X127184366Y-38536695D01*
X127181031Y-38512389D01*
X127180095Y-38487873D01*
X127181566Y-38463383D01*
X127185430Y-38439156D01*
X127191651Y-38415423D01*
X127200168Y-38392415D01*
X127210898Y-38370353D01*
X127223740Y-38349448D01*
X127238569Y-38329903D01*
X127720660Y-37755370D01*
X127737333Y-37737372D01*
X127755690Y-37721096D01*
X127775554Y-37706697D01*
X127796734Y-37694314D01*
X127819025Y-37684067D01*
X127842214Y-37676054D01*
X127866076Y-37670353D01*
X127890382Y-37667018D01*
X127914898Y-37666082D01*
X127939388Y-37667553D01*
X127939388Y-37667553D01*
G37*
D12*
X128149903Y-38605076D03*
D11*
G36*
X139639582Y-39634939D02*
G01*
X139663809Y-39638803D01*
X139687542Y-39645024D01*
X139710550Y-39653541D01*
X139732612Y-39664271D01*
X139753517Y-39677113D01*
X139773062Y-39691942D01*
X140730617Y-40495427D01*
X140748615Y-40512100D01*
X140764891Y-40530457D01*
X140779290Y-40550321D01*
X140791673Y-40571501D01*
X140801920Y-40593792D01*
X140809933Y-40616981D01*
X140815634Y-40640843D01*
X140818969Y-40665149D01*
X140819905Y-40689665D01*
X140818434Y-40714155D01*
X140814570Y-40738382D01*
X140808349Y-40762115D01*
X140799832Y-40785123D01*
X140789102Y-40807185D01*
X140776260Y-40828090D01*
X140761431Y-40847635D01*
X140279340Y-41422168D01*
X140262667Y-41440166D01*
X140244310Y-41456442D01*
X140224446Y-41470841D01*
X140203266Y-41483224D01*
X140180975Y-41493471D01*
X140157786Y-41501484D01*
X140133924Y-41507185D01*
X140109618Y-41510520D01*
X140085102Y-41511456D01*
X140060612Y-41509985D01*
X140036385Y-41506121D01*
X140012652Y-41499900D01*
X139989644Y-41491383D01*
X139967582Y-41480653D01*
X139946677Y-41467811D01*
X139927132Y-41452982D01*
X138969577Y-40649497D01*
X138951579Y-40632824D01*
X138935303Y-40614467D01*
X138920904Y-40594603D01*
X138908521Y-40573423D01*
X138898274Y-40551132D01*
X138890261Y-40527943D01*
X138884560Y-40504081D01*
X138881225Y-40479775D01*
X138880289Y-40455259D01*
X138881760Y-40430769D01*
X138885624Y-40406542D01*
X138891845Y-40382809D01*
X138900362Y-40359801D01*
X138911092Y-40337739D01*
X138923934Y-40316834D01*
X138938763Y-40297289D01*
X139420854Y-39722756D01*
X139437527Y-39704758D01*
X139455884Y-39688482D01*
X139475748Y-39674083D01*
X139496928Y-39661700D01*
X139519219Y-39651453D01*
X139542408Y-39643440D01*
X139566270Y-39637739D01*
X139590576Y-39634404D01*
X139615092Y-39633468D01*
X139639582Y-39634939D01*
X139639582Y-39634939D01*
G37*
D12*
X139850097Y-40572462D03*
D11*
G36*
X141439388Y-37490015D02*
G01*
X141463615Y-37493879D01*
X141487348Y-37500100D01*
X141510356Y-37508617D01*
X141532418Y-37519347D01*
X141553323Y-37532189D01*
X141572868Y-37547018D01*
X142530423Y-38350503D01*
X142548421Y-38367176D01*
X142564697Y-38385533D01*
X142579096Y-38405397D01*
X142591479Y-38426577D01*
X142601726Y-38448868D01*
X142609739Y-38472057D01*
X142615440Y-38495919D01*
X142618775Y-38520225D01*
X142619711Y-38544741D01*
X142618240Y-38569231D01*
X142614376Y-38593458D01*
X142608155Y-38617191D01*
X142599638Y-38640199D01*
X142588908Y-38662261D01*
X142576066Y-38683166D01*
X142561237Y-38702711D01*
X142079146Y-39277244D01*
X142062473Y-39295242D01*
X142044116Y-39311518D01*
X142024252Y-39325917D01*
X142003072Y-39338300D01*
X141980781Y-39348547D01*
X141957592Y-39356560D01*
X141933730Y-39362261D01*
X141909424Y-39365596D01*
X141884908Y-39366532D01*
X141860418Y-39365061D01*
X141836191Y-39361197D01*
X141812458Y-39354976D01*
X141789450Y-39346459D01*
X141767388Y-39335729D01*
X141746483Y-39322887D01*
X141726938Y-39308058D01*
X140769383Y-38504573D01*
X140751385Y-38487900D01*
X140735109Y-38469543D01*
X140720710Y-38449679D01*
X140708327Y-38428499D01*
X140698080Y-38406208D01*
X140690067Y-38383019D01*
X140684366Y-38359157D01*
X140681031Y-38334851D01*
X140680095Y-38310335D01*
X140681566Y-38285845D01*
X140685430Y-38261618D01*
X140691651Y-38237885D01*
X140700168Y-38214877D01*
X140710898Y-38192815D01*
X140723740Y-38171910D01*
X140738569Y-38152365D01*
X141220660Y-37577832D01*
X141237333Y-37559834D01*
X141255690Y-37543558D01*
X141275554Y-37529159D01*
X141296734Y-37516776D01*
X141319025Y-37506529D01*
X141342214Y-37498516D01*
X141366076Y-37492815D01*
X141390382Y-37489480D01*
X141414898Y-37488544D01*
X141439388Y-37490015D01*
X141439388Y-37490015D01*
G37*
D12*
X141649903Y-38427538D03*
D11*
G36*
X152889582Y-39634939D02*
G01*
X152913809Y-39638803D01*
X152937542Y-39645024D01*
X152960550Y-39653541D01*
X152982612Y-39664271D01*
X153003517Y-39677113D01*
X153023062Y-39691942D01*
X153980617Y-40495427D01*
X153998615Y-40512100D01*
X154014891Y-40530457D01*
X154029290Y-40550321D01*
X154041673Y-40571501D01*
X154051920Y-40593792D01*
X154059933Y-40616981D01*
X154065634Y-40640843D01*
X154068969Y-40665149D01*
X154069905Y-40689665D01*
X154068434Y-40714155D01*
X154064570Y-40738382D01*
X154058349Y-40762115D01*
X154049832Y-40785123D01*
X154039102Y-40807185D01*
X154026260Y-40828090D01*
X154011431Y-40847635D01*
X153529340Y-41422168D01*
X153512667Y-41440166D01*
X153494310Y-41456442D01*
X153474446Y-41470841D01*
X153453266Y-41483224D01*
X153430975Y-41493471D01*
X153407786Y-41501484D01*
X153383924Y-41507185D01*
X153359618Y-41510520D01*
X153335102Y-41511456D01*
X153310612Y-41509985D01*
X153286385Y-41506121D01*
X153262652Y-41499900D01*
X153239644Y-41491383D01*
X153217582Y-41480653D01*
X153196677Y-41467811D01*
X153177132Y-41452982D01*
X152219577Y-40649497D01*
X152201579Y-40632824D01*
X152185303Y-40614467D01*
X152170904Y-40594603D01*
X152158521Y-40573423D01*
X152148274Y-40551132D01*
X152140261Y-40527943D01*
X152134560Y-40504081D01*
X152131225Y-40479775D01*
X152130289Y-40455259D01*
X152131760Y-40430769D01*
X152135624Y-40406542D01*
X152141845Y-40382809D01*
X152150362Y-40359801D01*
X152161092Y-40337739D01*
X152173934Y-40316834D01*
X152188763Y-40297289D01*
X152670854Y-39722756D01*
X152687527Y-39704758D01*
X152705884Y-39688482D01*
X152725748Y-39674083D01*
X152746928Y-39661700D01*
X152769219Y-39651453D01*
X152792408Y-39643440D01*
X152816270Y-39637739D01*
X152840576Y-39634404D01*
X152865092Y-39633468D01*
X152889582Y-39634939D01*
X152889582Y-39634939D01*
G37*
D12*
X153100097Y-40572462D03*
D11*
G36*
X154689388Y-37490015D02*
G01*
X154713615Y-37493879D01*
X154737348Y-37500100D01*
X154760356Y-37508617D01*
X154782418Y-37519347D01*
X154803323Y-37532189D01*
X154822868Y-37547018D01*
X155780423Y-38350503D01*
X155798421Y-38367176D01*
X155814697Y-38385533D01*
X155829096Y-38405397D01*
X155841479Y-38426577D01*
X155851726Y-38448868D01*
X155859739Y-38472057D01*
X155865440Y-38495919D01*
X155868775Y-38520225D01*
X155869711Y-38544741D01*
X155868240Y-38569231D01*
X155864376Y-38593458D01*
X155858155Y-38617191D01*
X155849638Y-38640199D01*
X155838908Y-38662261D01*
X155826066Y-38683166D01*
X155811237Y-38702711D01*
X155329146Y-39277244D01*
X155312473Y-39295242D01*
X155294116Y-39311518D01*
X155274252Y-39325917D01*
X155253072Y-39338300D01*
X155230781Y-39348547D01*
X155207592Y-39356560D01*
X155183730Y-39362261D01*
X155159424Y-39365596D01*
X155134908Y-39366532D01*
X155110418Y-39365061D01*
X155086191Y-39361197D01*
X155062458Y-39354976D01*
X155039450Y-39346459D01*
X155017388Y-39335729D01*
X154996483Y-39322887D01*
X154976938Y-39308058D01*
X154019383Y-38504573D01*
X154001385Y-38487900D01*
X153985109Y-38469543D01*
X153970710Y-38449679D01*
X153958327Y-38428499D01*
X153948080Y-38406208D01*
X153940067Y-38383019D01*
X153934366Y-38359157D01*
X153931031Y-38334851D01*
X153930095Y-38310335D01*
X153931566Y-38285845D01*
X153935430Y-38261618D01*
X153941651Y-38237885D01*
X153950168Y-38214877D01*
X153960898Y-38192815D01*
X153973740Y-38171910D01*
X153988569Y-38152365D01*
X154470660Y-37577832D01*
X154487333Y-37559834D01*
X154505690Y-37543558D01*
X154525554Y-37529159D01*
X154546734Y-37516776D01*
X154569025Y-37506529D01*
X154592214Y-37498516D01*
X154616076Y-37492815D01*
X154640382Y-37489480D01*
X154664898Y-37488544D01*
X154689388Y-37490015D01*
X154689388Y-37490015D01*
G37*
D12*
X154899903Y-38427538D03*
D16*
X194699000Y-43200000D03*
X198500000Y-44975000D03*
X202301000Y-43200000D03*
X202650000Y-41750000D03*
X202301000Y-40300000D03*
X198500000Y-38525000D03*
X194699000Y-40300000D03*
X194350000Y-41750000D03*
X196995000Y-44901000D03*
X195580000Y-44271000D03*
X195580000Y-39229000D03*
X201420000Y-39229000D03*
X201420000Y-44271000D03*
X200005000Y-44901000D03*
X200005000Y-38599000D03*
X196995000Y-38599000D03*
D17*
X198500000Y-41750000D03*
D16*
X194449000Y-133700000D03*
X198250000Y-135475000D03*
X202051000Y-133700000D03*
X202400000Y-132250000D03*
X202051000Y-130800000D03*
X198250000Y-129025000D03*
X194449000Y-130800000D03*
X194100000Y-132250000D03*
X196745000Y-135401000D03*
X195330000Y-134771000D03*
X195330000Y-129729000D03*
X201170000Y-129729000D03*
X201170000Y-134771000D03*
X199755000Y-135401000D03*
X199755000Y-129099000D03*
X196745000Y-129099000D03*
D17*
X198250000Y-132250000D03*
D16*
X105949000Y-133700000D03*
X109750000Y-135475000D03*
X113551000Y-133700000D03*
X113900000Y-132250000D03*
X113551000Y-130800000D03*
X109750000Y-129025000D03*
X105949000Y-130800000D03*
X105600000Y-132250000D03*
X108245000Y-135401000D03*
X106830000Y-134771000D03*
X106830000Y-129729000D03*
X112670000Y-129729000D03*
X112670000Y-134771000D03*
X111255000Y-135401000D03*
X111255000Y-129099000D03*
X108245000Y-129099000D03*
D17*
X109750000Y-132250000D03*
D16*
X105949000Y-43200000D03*
X109750000Y-44975000D03*
X113551000Y-43200000D03*
X113900000Y-41750000D03*
X113551000Y-40300000D03*
X109750000Y-38525000D03*
X105949000Y-40300000D03*
X105600000Y-41750000D03*
X108245000Y-44901000D03*
X106830000Y-44271000D03*
X106830000Y-39229000D03*
X112670000Y-39229000D03*
X112670000Y-44271000D03*
X111255000Y-44901000D03*
X111255000Y-38599000D03*
X108245000Y-38599000D03*
D17*
X109750000Y-41750000D03*
D14*
X107000000Y-52000000D03*
D15*
X107000000Y-124000000D03*
D14*
X133000000Y-63250000D03*
D15*
X133000000Y-135250000D03*
D14*
X154000000Y-63250000D03*
D15*
X154000000Y-135250000D03*
D14*
X175000000Y-63250000D03*
D15*
X175000000Y-135250000D03*
D18*
X159000000Y-56500000D02*
X157250000Y-58250000D01*
X161250000Y-56500000D02*
X159000000Y-56500000D01*
X146000000Y-56500000D02*
X144500000Y-58000000D01*
X148250000Y-56500000D02*
X146000000Y-56500000D01*
X132500000Y-56500000D02*
X131000000Y-58000000D01*
X135000000Y-56500000D02*
X132500000Y-56500000D01*
X122000000Y-48775000D02*
X120500000Y-47275000D01*
X122000000Y-56500000D02*
X122000000Y-48775000D01*
D19*
X112894924Y-38605076D02*
X109750000Y-41750000D01*
X128799806Y-38605076D02*
X112894924Y-38605076D01*
D18*
X166500000Y-46950000D02*
X157250000Y-56200000D01*
X166500000Y-40500000D02*
X166500000Y-46950000D01*
X144500000Y-49422559D02*
X144500000Y-55950000D01*
X153350097Y-40572462D02*
X144500000Y-49422559D01*
X131000000Y-50000000D02*
X140250000Y-40750000D01*
X131000000Y-55950000D02*
X131000000Y-50000000D01*
X124975000Y-40750000D02*
X127000000Y-40750000D01*
X120500000Y-45225000D02*
X124975000Y-40750000D01*
X172500000Y-58500000D02*
X170750000Y-58500000D01*
X174500000Y-56500000D02*
X172500000Y-58500000D01*
X170750000Y-49500000D02*
X179500000Y-40750000D01*
X170750000Y-56450000D02*
X170750000Y-49500000D01*
D20*
G36*
X125976661Y-37917270D02*
G01*
X125879957Y-38143714D01*
X125829289Y-38384673D01*
X125826604Y-38630886D01*
X125872003Y-38872893D01*
X125949974Y-39067097D01*
X125829272Y-39089740D01*
X125645230Y-39163631D01*
X125479139Y-39272007D01*
X125337383Y-39410704D01*
X124956566Y-39864544D01*
X124801901Y-39879777D01*
X124635456Y-39930268D01*
X124482058Y-40012260D01*
X124347604Y-40122604D01*
X124319952Y-40156298D01*
X120587918Y-43888333D01*
X120049999Y-43888333D01*
X119852633Y-43907772D01*
X119662851Y-43965341D01*
X119487947Y-44058829D01*
X119334643Y-44184643D01*
X119208829Y-44337947D01*
X119115341Y-44512851D01*
X119057772Y-44702633D01*
X119038333Y-44899999D01*
X119038333Y-45550001D01*
X119057772Y-45747367D01*
X119115341Y-45937149D01*
X119208829Y-46112053D01*
X119322040Y-46250000D01*
X119208829Y-46387947D01*
X119115341Y-46562851D01*
X119057772Y-46752633D01*
X119038333Y-46949999D01*
X119038333Y-47600001D01*
X119057772Y-47797367D01*
X119115341Y-47987149D01*
X119208829Y-48162053D01*
X119334643Y-48315357D01*
X119487947Y-48441171D01*
X119662851Y-48534659D01*
X119852633Y-48592228D01*
X120049999Y-48611667D01*
X120587917Y-48611667D01*
X121117001Y-49140752D01*
X121117000Y-54273947D01*
X120841366Y-54328774D01*
X120430436Y-54498987D01*
X120060609Y-54746097D01*
X119746097Y-55060609D01*
X119498987Y-55430436D01*
X119328774Y-55841366D01*
X119242000Y-56277606D01*
X119242000Y-56722394D01*
X119328774Y-57158634D01*
X119498987Y-57569564D01*
X119746097Y-57939391D01*
X120060609Y-58253903D01*
X120430436Y-58501013D01*
X120841366Y-58671226D01*
X121277606Y-58758000D01*
X121722394Y-58758000D01*
X122158634Y-58671226D01*
X122569564Y-58501013D01*
X122939391Y-58253903D01*
X123253903Y-57939391D01*
X123501013Y-57569564D01*
X123671226Y-57158634D01*
X123758000Y-56722394D01*
X123758000Y-56277606D01*
X123671226Y-55841366D01*
X123501013Y-55430436D01*
X123253903Y-55060609D01*
X122939391Y-54746097D01*
X122883000Y-54708418D01*
X122883000Y-48818365D01*
X122887271Y-48774999D01*
X122883000Y-48731633D01*
X122883000Y-48731627D01*
X122870223Y-48601902D01*
X122867289Y-48592228D01*
X122838365Y-48496881D01*
X122819732Y-48435456D01*
X122737740Y-48282058D01*
X122627396Y-48147604D01*
X122593707Y-48119956D01*
X122148131Y-47674380D01*
X126623361Y-47674380D01*
X126623361Y-48089620D01*
X126704370Y-48496881D01*
X126863275Y-48880513D01*
X127093970Y-49225772D01*
X127387589Y-49519391D01*
X127732848Y-49750086D01*
X128116480Y-49908991D01*
X128523741Y-49990000D01*
X128938981Y-49990000D01*
X129346242Y-49908991D01*
X129729874Y-49750086D01*
X130075133Y-49519391D01*
X130368752Y-49225772D01*
X130599447Y-48880513D01*
X130758352Y-48496881D01*
X130839361Y-48089620D01*
X130839361Y-47674380D01*
X130758352Y-47267119D01*
X130599447Y-46883487D01*
X130368752Y-46538228D01*
X130075133Y-46244609D01*
X129729874Y-46013914D01*
X129346242Y-45855009D01*
X128938981Y-45774000D01*
X128523741Y-45774000D01*
X128116480Y-45855009D01*
X127732848Y-46013914D01*
X127387589Y-46244609D01*
X127093970Y-46538228D01*
X126863275Y-46883487D01*
X126704370Y-47267119D01*
X126623361Y-47674380D01*
X122148131Y-47674380D01*
X121961667Y-47487917D01*
X121961667Y-46949999D01*
X121942228Y-46752633D01*
X121884659Y-46562851D01*
X121791171Y-46387947D01*
X121677960Y-46250000D01*
X121791171Y-46112053D01*
X121884659Y-45937149D01*
X121942228Y-45747367D01*
X121961667Y-45550001D01*
X121961667Y-45012082D01*
X125297129Y-41676620D01*
X125937542Y-42213991D01*
X126101228Y-42325964D01*
X126283614Y-42403853D01*
X126477691Y-42444663D01*
X126676001Y-42446826D01*
X126870922Y-42410260D01*
X127054964Y-42336369D01*
X127221055Y-42227993D01*
X127362811Y-42089296D01*
X127844902Y-41514763D01*
X127956875Y-41351077D01*
X128034764Y-41168691D01*
X128075574Y-40974614D01*
X128076913Y-40851812D01*
X128281708Y-40894876D01*
X128527921Y-40897561D01*
X128769928Y-40852162D01*
X128998428Y-40760421D01*
X129204639Y-40625865D01*
X129380638Y-40453665D01*
X129416179Y-40401900D01*
X129396096Y-40172337D01*
X133352973Y-40172337D01*
X133580326Y-40664020D01*
X133899233Y-41101902D01*
X134297440Y-41469153D01*
X134759642Y-41751662D01*
X135268078Y-41938571D01*
X135521362Y-41991831D01*
X135926160Y-41714534D01*
X135735461Y-39534838D01*
X133555765Y-39725536D01*
X133352973Y-40172337D01*
X129396096Y-40172337D01*
X129377662Y-39961640D01*
X128180717Y-38957284D01*
X128167861Y-38972605D01*
X127784839Y-38651211D01*
X127797695Y-38635890D01*
X127782374Y-38623034D01*
X128103768Y-38240012D01*
X128119089Y-38252868D01*
X128131945Y-38237547D01*
X128514967Y-38558941D01*
X128502111Y-38574262D01*
X129699055Y-39578617D01*
X130139315Y-39540100D01*
X130184123Y-39496109D01*
X130323145Y-39292882D01*
X130419849Y-39066438D01*
X130470517Y-38825479D01*
X130473202Y-38579266D01*
X130427803Y-38337259D01*
X130336062Y-38108759D01*
X130201506Y-37902548D01*
X130084538Y-37783000D01*
X133644931Y-37783000D01*
X133475059Y-38060921D01*
X133288150Y-38569357D01*
X133234890Y-38822641D01*
X133512187Y-39227439D01*
X135406843Y-39061678D01*
X135595024Y-39249859D01*
X135948580Y-38896303D01*
X135653807Y-38601530D01*
X135582195Y-37783000D01*
X136084105Y-37783000D01*
X136165043Y-38708122D01*
X135976862Y-38896303D01*
X136330418Y-39249859D01*
X136625191Y-38955086D01*
X138369677Y-38802464D01*
X138572469Y-38355663D01*
X138345116Y-37863980D01*
X138286139Y-37783000D01*
X139458183Y-37783000D01*
X139379957Y-37966176D01*
X139329289Y-38207135D01*
X139326604Y-38453348D01*
X139372003Y-38695355D01*
X139449974Y-38889559D01*
X139329272Y-38912202D01*
X139145230Y-38986093D01*
X138979139Y-39094469D01*
X138837383Y-39233166D01*
X138578464Y-39541733D01*
X138413255Y-39300561D01*
X136233559Y-39491260D01*
X136424257Y-41670956D01*
X136871058Y-41873748D01*
X137362741Y-41646395D01*
X137800623Y-41327488D01*
X138167874Y-40929281D01*
X138208137Y-40863408D01*
X138232914Y-40925121D01*
X138341290Y-41091212D01*
X138479987Y-41232968D01*
X138500809Y-41250440D01*
X130406299Y-49344952D01*
X130372605Y-49372604D01*
X130262261Y-49507058D01*
X130188411Y-49645223D01*
X130180269Y-49660456D01*
X130129777Y-49826902D01*
X130112729Y-50000000D01*
X130117001Y-50043376D01*
X130117000Y-54714849D01*
X129987947Y-54783829D01*
X129834643Y-54909643D01*
X129708829Y-55062947D01*
X129615341Y-55237851D01*
X129557772Y-55427633D01*
X129538333Y-55624999D01*
X129538333Y-56275001D01*
X129557772Y-56472367D01*
X129615341Y-56662149D01*
X129708829Y-56837053D01*
X129822040Y-56975000D01*
X129708829Y-57112947D01*
X129615341Y-57287851D01*
X129557772Y-57477633D01*
X129538333Y-57674999D01*
X129538333Y-58325001D01*
X129557772Y-58522367D01*
X129615341Y-58712149D01*
X129708829Y-58887053D01*
X129834643Y-59040357D01*
X129987947Y-59166171D01*
X130162851Y-59259659D01*
X130352633Y-59317228D01*
X130549999Y-59336667D01*
X131450001Y-59336667D01*
X131647367Y-59317228D01*
X131837149Y-59259659D01*
X132012053Y-59166171D01*
X132165357Y-59040357D01*
X132291171Y-58887053D01*
X132384659Y-58712149D01*
X132442228Y-58522367D01*
X132461667Y-58325001D01*
X132461667Y-57787083D01*
X132728543Y-57520208D01*
X132748987Y-57569564D01*
X132996097Y-57939391D01*
X133310609Y-58253903D01*
X133680436Y-58501013D01*
X134091366Y-58671226D01*
X134527606Y-58758000D01*
X134972394Y-58758000D01*
X135408634Y-58671226D01*
X135819564Y-58501013D01*
X136189391Y-58253903D01*
X136503903Y-57939391D01*
X136751013Y-57569564D01*
X136921226Y-57158634D01*
X137008000Y-56722394D01*
X137008000Y-56277606D01*
X136921226Y-55841366D01*
X136751013Y-55430436D01*
X136503903Y-55060609D01*
X136189391Y-54746097D01*
X135819564Y-54498987D01*
X135408634Y-54328774D01*
X134972394Y-54242000D01*
X134527606Y-54242000D01*
X134091366Y-54328774D01*
X133680436Y-54498987D01*
X133310609Y-54746097D01*
X132996097Y-55060609D01*
X132748987Y-55430436D01*
X132671710Y-55617000D01*
X132543365Y-55617000D01*
X132499999Y-55612729D01*
X132460838Y-55616586D01*
X132442228Y-55427633D01*
X132384659Y-55237851D01*
X132291171Y-55062947D01*
X132165357Y-54909643D01*
X132012053Y-54783829D01*
X131883000Y-54714849D01*
X131883000Y-50365749D01*
X139981583Y-42267167D01*
X140176001Y-42269288D01*
X140370922Y-42232722D01*
X140554964Y-42158831D01*
X140721055Y-42050455D01*
X140862811Y-41911758D01*
X141344902Y-41337225D01*
X141456875Y-41173539D01*
X141534764Y-40991153D01*
X141575574Y-40797076D01*
X141576913Y-40674274D01*
X141781708Y-40717338D01*
X142027921Y-40720023D01*
X142269928Y-40674624D01*
X142498428Y-40582883D01*
X142704639Y-40448327D01*
X142880638Y-40276127D01*
X142916179Y-40224362D01*
X142911628Y-40172337D01*
X146602973Y-40172337D01*
X146830326Y-40664020D01*
X147149233Y-41101902D01*
X147547440Y-41469153D01*
X148009642Y-41751662D01*
X148518078Y-41938571D01*
X148771362Y-41991831D01*
X149176160Y-41714534D01*
X148985461Y-39534838D01*
X146805765Y-39725536D01*
X146602973Y-40172337D01*
X142911628Y-40172337D01*
X142877662Y-39784102D01*
X141680717Y-38779746D01*
X141667861Y-38795067D01*
X141284839Y-38473673D01*
X141297695Y-38458352D01*
X141282374Y-38445496D01*
X141603768Y-38062474D01*
X141619089Y-38075330D01*
X141631945Y-38060009D01*
X142014967Y-38381403D01*
X142002111Y-38396724D01*
X143199055Y-39401079D01*
X143639315Y-39362562D01*
X143684123Y-39318571D01*
X143823145Y-39115344D01*
X143919849Y-38888900D01*
X143970517Y-38647941D01*
X143973202Y-38401728D01*
X143927803Y-38159721D01*
X143836062Y-37931221D01*
X143739345Y-37783000D01*
X146894931Y-37783000D01*
X146725059Y-38060921D01*
X146538150Y-38569357D01*
X146484890Y-38822641D01*
X146762187Y-39227439D01*
X148656843Y-39061678D01*
X148845024Y-39249859D01*
X149198580Y-38896303D01*
X148903807Y-38601530D01*
X148832195Y-37783000D01*
X149334105Y-37783000D01*
X149415043Y-38708122D01*
X149226862Y-38896303D01*
X149580418Y-39249859D01*
X149875191Y-38955086D01*
X151619677Y-38802464D01*
X151822469Y-38355663D01*
X151595116Y-37863980D01*
X151536139Y-37783000D01*
X152708183Y-37783000D01*
X152629957Y-37966176D01*
X152579289Y-38207135D01*
X152576604Y-38453348D01*
X152622003Y-38695355D01*
X152699974Y-38889559D01*
X152579272Y-38912202D01*
X152395230Y-38986093D01*
X152229139Y-39094469D01*
X152087383Y-39233166D01*
X151828464Y-39541733D01*
X151663255Y-39300561D01*
X149483559Y-39491260D01*
X149674257Y-41670956D01*
X150121058Y-41873748D01*
X150612741Y-41646395D01*
X151050623Y-41327488D01*
X151417874Y-40929281D01*
X151458137Y-40863408D01*
X151482914Y-40925121D01*
X151587857Y-41085951D01*
X143906304Y-48767506D01*
X143891081Y-48779999D01*
X144008352Y-48496881D01*
X144089361Y-48089620D01*
X144089361Y-47674380D01*
X144008352Y-47267119D01*
X143849447Y-46883487D01*
X143618752Y-46538228D01*
X143325133Y-46244609D01*
X142979874Y-46013914D01*
X142596242Y-45855009D01*
X142188981Y-45774000D01*
X141773741Y-45774000D01*
X141366480Y-45855009D01*
X140982848Y-46013914D01*
X140637589Y-46244609D01*
X140343970Y-46538228D01*
X140113275Y-46883487D01*
X139954370Y-47267119D01*
X139873361Y-47674380D01*
X139873361Y-48089620D01*
X139954370Y-48496881D01*
X140113275Y-48880513D01*
X140343970Y-49225772D01*
X140637589Y-49519391D01*
X140982848Y-49750086D01*
X141366480Y-49908991D01*
X141773741Y-49990000D01*
X142188981Y-49990000D01*
X142596242Y-49908991D01*
X142979874Y-49750086D01*
X143325133Y-49519391D01*
X143618752Y-49225772D01*
X143652106Y-49175855D01*
X143629777Y-49249462D01*
X143617000Y-49379187D01*
X143617000Y-49379193D01*
X143612729Y-49422559D01*
X143617000Y-49465925D01*
X143617001Y-54714848D01*
X143487947Y-54783829D01*
X143334643Y-54909643D01*
X143208829Y-55062947D01*
X143115341Y-55237851D01*
X143057772Y-55427633D01*
X143038333Y-55624999D01*
X143038333Y-56275001D01*
X143057772Y-56472367D01*
X143115341Y-56662149D01*
X143208829Y-56837053D01*
X143322040Y-56975000D01*
X143208829Y-57112947D01*
X143115341Y-57287851D01*
X143057772Y-57477633D01*
X143038333Y-57674999D01*
X143038333Y-58325001D01*
X143057772Y-58522367D01*
X143115341Y-58712149D01*
X143208829Y-58887053D01*
X143334643Y-59040357D01*
X143487947Y-59166171D01*
X143662851Y-59259659D01*
X143852633Y-59317228D01*
X144049999Y-59336667D01*
X144950001Y-59336667D01*
X145147367Y-59317228D01*
X145337149Y-59259659D01*
X145512053Y-59166171D01*
X145665357Y-59040357D01*
X145791171Y-58887053D01*
X145884659Y-58712149D01*
X145942228Y-58522367D01*
X145961667Y-58325001D01*
X145961667Y-57787083D01*
X146071165Y-57677586D01*
X146246097Y-57939391D01*
X146560609Y-58253903D01*
X146930436Y-58501013D01*
X147341366Y-58671226D01*
X147777606Y-58758000D01*
X148222394Y-58758000D01*
X148658634Y-58671226D01*
X149069564Y-58501013D01*
X149439391Y-58253903D01*
X149753903Y-57939391D01*
X150001013Y-57569564D01*
X150171226Y-57158634D01*
X150258000Y-56722394D01*
X150258000Y-56277606D01*
X150171226Y-55841366D01*
X150001013Y-55430436D01*
X149753903Y-55060609D01*
X149439391Y-54746097D01*
X149069564Y-54498987D01*
X148658634Y-54328774D01*
X148222394Y-54242000D01*
X147777606Y-54242000D01*
X147341366Y-54328774D01*
X146930436Y-54498987D01*
X146560609Y-54746097D01*
X146246097Y-55060609D01*
X145998987Y-55430436D01*
X145953355Y-55540602D01*
X145942228Y-55427633D01*
X145884659Y-55237851D01*
X145791171Y-55062947D01*
X145665357Y-54909643D01*
X145512053Y-54783829D01*
X145383000Y-54714849D01*
X145383000Y-49788308D01*
X147496928Y-47674380D01*
X153123361Y-47674380D01*
X153123361Y-48089620D01*
X153204370Y-48496881D01*
X153363275Y-48880513D01*
X153593970Y-49225772D01*
X153887589Y-49519391D01*
X154232848Y-49750086D01*
X154616480Y-49908991D01*
X155023741Y-49990000D01*
X155438981Y-49990000D01*
X155846242Y-49908991D01*
X156229874Y-49750086D01*
X156575133Y-49519391D01*
X156868752Y-49225772D01*
X157099447Y-48880513D01*
X157258352Y-48496881D01*
X157339361Y-48089620D01*
X157339361Y-47674380D01*
X157258352Y-47267119D01*
X157099447Y-46883487D01*
X156868752Y-46538228D01*
X156575133Y-46244609D01*
X156229874Y-46013914D01*
X155846242Y-45855009D01*
X155438981Y-45774000D01*
X155023741Y-45774000D01*
X154616480Y-45855009D01*
X154232848Y-46013914D01*
X153887589Y-46244609D01*
X153593970Y-46538228D01*
X153363275Y-46883487D01*
X153204370Y-47267119D01*
X153123361Y-47674380D01*
X147496928Y-47674380D01*
X152971515Y-42199795D01*
X153033614Y-42226315D01*
X153227691Y-42267125D01*
X153426001Y-42269288D01*
X153620922Y-42232722D01*
X153804964Y-42158831D01*
X153971055Y-42050455D01*
X154112811Y-41911758D01*
X154594902Y-41337225D01*
X154706875Y-41173539D01*
X154784764Y-40991153D01*
X154825574Y-40797076D01*
X154826913Y-40674274D01*
X155031708Y-40717338D01*
X155277921Y-40720023D01*
X155519928Y-40674624D01*
X155748428Y-40582883D01*
X155954639Y-40448327D01*
X156130638Y-40276127D01*
X156166179Y-40224362D01*
X156161628Y-40172337D01*
X159852973Y-40172337D01*
X160080326Y-40664020D01*
X160399233Y-41101902D01*
X160797440Y-41469153D01*
X161259642Y-41751662D01*
X161768078Y-41938571D01*
X162021362Y-41991831D01*
X162426160Y-41714534D01*
X162235461Y-39534838D01*
X160055765Y-39725536D01*
X159852973Y-40172337D01*
X156161628Y-40172337D01*
X156127662Y-39784102D01*
X154930717Y-38779746D01*
X154917861Y-38795067D01*
X154534839Y-38473673D01*
X154547695Y-38458352D01*
X154532374Y-38445496D01*
X154853768Y-38062474D01*
X154869089Y-38075330D01*
X154881945Y-38060009D01*
X155264967Y-38381403D01*
X155252111Y-38396724D01*
X156449055Y-39401079D01*
X156889315Y-39362562D01*
X156934123Y-39318571D01*
X157073145Y-39115344D01*
X157169849Y-38888900D01*
X157220517Y-38647941D01*
X157223202Y-38401728D01*
X157177803Y-38159721D01*
X157086062Y-37931221D01*
X156989345Y-37783000D01*
X160144931Y-37783000D01*
X159975059Y-38060921D01*
X159788150Y-38569357D01*
X159734890Y-38822641D01*
X160012187Y-39227439D01*
X161906843Y-39061678D01*
X162095024Y-39249859D01*
X162448580Y-38896303D01*
X162153807Y-38601530D01*
X162082195Y-37783000D01*
X162584105Y-37783000D01*
X162665043Y-38708122D01*
X162476862Y-38896303D01*
X162830418Y-39249859D01*
X163125191Y-38955086D01*
X164869677Y-38802464D01*
X165072469Y-38355663D01*
X164845116Y-37863980D01*
X164786139Y-37783000D01*
X165958183Y-37783000D01*
X165879957Y-37966176D01*
X165829289Y-38207135D01*
X165826604Y-38453348D01*
X165872003Y-38695355D01*
X165949974Y-38889559D01*
X165829272Y-38912202D01*
X165645230Y-38986093D01*
X165479139Y-39094469D01*
X165337383Y-39233166D01*
X165078464Y-39541733D01*
X164913255Y-39300561D01*
X162733559Y-39491260D01*
X162924257Y-41670956D01*
X163371058Y-41873748D01*
X163862741Y-41646395D01*
X164300623Y-41327488D01*
X164667874Y-40929281D01*
X164708137Y-40863408D01*
X164732914Y-40925121D01*
X164841290Y-41091212D01*
X164979987Y-41232968D01*
X165617000Y-41767486D01*
X165617001Y-46584248D01*
X157337918Y-54863333D01*
X156799999Y-54863333D01*
X156602633Y-54882772D01*
X156412851Y-54940341D01*
X156237947Y-55033829D01*
X156084643Y-55159643D01*
X155958829Y-55312947D01*
X155865341Y-55487851D01*
X155807772Y-55677633D01*
X155788333Y-55874999D01*
X155788333Y-56525001D01*
X155807772Y-56722367D01*
X155865341Y-56912149D01*
X155958829Y-57087053D01*
X156072040Y-57225000D01*
X155958829Y-57362947D01*
X155865341Y-57537851D01*
X155807772Y-57727633D01*
X155788333Y-57924999D01*
X155788333Y-58575001D01*
X155807772Y-58772367D01*
X155865341Y-58962149D01*
X155958829Y-59137053D01*
X156084643Y-59290357D01*
X156237947Y-59416171D01*
X156412851Y-59509659D01*
X156602633Y-59567228D01*
X156799999Y-59586667D01*
X157700001Y-59586667D01*
X157897367Y-59567228D01*
X158087149Y-59509659D01*
X158262053Y-59416171D01*
X158415357Y-59290357D01*
X158541171Y-59137053D01*
X158634659Y-58962149D01*
X158692228Y-58772367D01*
X158711667Y-58575001D01*
X158711667Y-58037082D01*
X159228543Y-57520207D01*
X159248987Y-57569564D01*
X159496097Y-57939391D01*
X159810609Y-58253903D01*
X160180436Y-58501013D01*
X160591366Y-58671226D01*
X161027606Y-58758000D01*
X161472394Y-58758000D01*
X161908634Y-58671226D01*
X162319564Y-58501013D01*
X162689391Y-58253903D01*
X163003903Y-57939391D01*
X163251013Y-57569564D01*
X163421226Y-57158634D01*
X163508000Y-56722394D01*
X163508000Y-56277606D01*
X163421226Y-55841366D01*
X163251013Y-55430436D01*
X163003903Y-55060609D01*
X162689391Y-54746097D01*
X162319564Y-54498987D01*
X161908634Y-54328774D01*
X161472394Y-54242000D01*
X161027606Y-54242000D01*
X160591366Y-54328774D01*
X160213428Y-54485321D01*
X166412478Y-48286273D01*
X166454370Y-48496881D01*
X166613275Y-48880513D01*
X166843970Y-49225772D01*
X167137589Y-49519391D01*
X167482848Y-49750086D01*
X167866480Y-49908991D01*
X168273741Y-49990000D01*
X168688981Y-49990000D01*
X169096242Y-49908991D01*
X169479874Y-49750086D01*
X169825133Y-49519391D01*
X169864718Y-49479806D01*
X169862729Y-49500000D01*
X169867001Y-49543376D01*
X169867000Y-55214849D01*
X169737947Y-55283829D01*
X169584643Y-55409643D01*
X169458829Y-55562947D01*
X169365341Y-55737851D01*
X169307772Y-55927633D01*
X169288333Y-56124999D01*
X169288333Y-56775001D01*
X169307772Y-56972367D01*
X169365341Y-57162149D01*
X169458829Y-57337053D01*
X169572040Y-57475000D01*
X169458829Y-57612947D01*
X169365341Y-57787851D01*
X169307772Y-57977633D01*
X169288333Y-58174999D01*
X169288333Y-58825001D01*
X169307772Y-59022367D01*
X169365341Y-59212149D01*
X169458829Y-59387053D01*
X169584643Y-59540357D01*
X169737947Y-59666171D01*
X169912851Y-59759659D01*
X170102633Y-59817228D01*
X170299999Y-59836667D01*
X171200001Y-59836667D01*
X171397367Y-59817228D01*
X171587149Y-59759659D01*
X171762053Y-59666171D01*
X171915357Y-59540357D01*
X172041171Y-59387053D01*
X172043337Y-59383000D01*
X172456634Y-59383000D01*
X172500000Y-59387271D01*
X172543366Y-59383000D01*
X172543373Y-59383000D01*
X172673098Y-59370223D01*
X172839544Y-59319732D01*
X172992942Y-59237740D01*
X173127396Y-59127396D01*
X173155053Y-59093696D01*
X173654801Y-58593948D01*
X173841366Y-58671226D01*
X174277606Y-58758000D01*
X174722394Y-58758000D01*
X175158634Y-58671226D01*
X175569564Y-58501013D01*
X175939391Y-58253903D01*
X176253903Y-57939391D01*
X176501013Y-57569564D01*
X176671226Y-57158634D01*
X176758000Y-56722394D01*
X176758000Y-56277606D01*
X176671226Y-55841366D01*
X176501013Y-55430436D01*
X176253903Y-55060609D01*
X175939391Y-54746097D01*
X175569564Y-54498987D01*
X175158634Y-54328774D01*
X174722394Y-54242000D01*
X174277606Y-54242000D01*
X173841366Y-54328774D01*
X173430436Y-54498987D01*
X173060609Y-54746097D01*
X172746097Y-55060609D01*
X172498987Y-55430436D01*
X172328774Y-55841366D01*
X172242000Y-56277606D01*
X172242000Y-56722394D01*
X172328774Y-57158634D01*
X172406052Y-57345199D01*
X172134251Y-57617000D01*
X172043337Y-57617000D01*
X172041171Y-57612947D01*
X171927960Y-57475000D01*
X172041171Y-57337053D01*
X172134659Y-57162149D01*
X172192228Y-56972367D01*
X172211667Y-56775001D01*
X172211667Y-56124999D01*
X172192228Y-55927633D01*
X172134659Y-55737851D01*
X172041171Y-55562947D01*
X171915357Y-55409643D01*
X171762053Y-55283829D01*
X171633000Y-55214849D01*
X171633000Y-50250000D01*
X196988333Y-50250000D01*
X196988333Y-53750000D01*
X197002968Y-53898594D01*
X197046311Y-54041477D01*
X197116697Y-54173160D01*
X197211420Y-54288580D01*
X197326840Y-54383303D01*
X197458523Y-54453689D01*
X197601406Y-54497032D01*
X197750000Y-54511667D01*
X201250000Y-54511667D01*
X201398594Y-54497032D01*
X201541477Y-54453689D01*
X201673160Y-54383303D01*
X201788580Y-54288580D01*
X201883303Y-54173160D01*
X201953689Y-54041477D01*
X201997032Y-53898594D01*
X202011667Y-53750000D01*
X202011667Y-50250000D01*
X201997032Y-50101406D01*
X201953689Y-49958523D01*
X201883303Y-49826840D01*
X201788580Y-49711420D01*
X201673160Y-49616697D01*
X201541477Y-49546311D01*
X201398594Y-49502968D01*
X201250000Y-49488333D01*
X197750000Y-49488333D01*
X197601406Y-49502968D01*
X197458523Y-49546311D01*
X197326840Y-49616697D01*
X197211420Y-49711420D01*
X197116697Y-49826840D01*
X197046311Y-49958523D01*
X197002968Y-50101406D01*
X196988333Y-50250000D01*
X171633000Y-50250000D01*
X171633000Y-49865749D01*
X173824369Y-47674380D01*
X179623361Y-47674380D01*
X179623361Y-48089620D01*
X179704370Y-48496881D01*
X179863275Y-48880513D01*
X180093970Y-49225772D01*
X180387589Y-49519391D01*
X180732848Y-49750086D01*
X181116480Y-49908991D01*
X181523741Y-49990000D01*
X181938981Y-49990000D01*
X182346242Y-49908991D01*
X182729874Y-49750086D01*
X183075133Y-49519391D01*
X183368752Y-49225772D01*
X183599447Y-48880513D01*
X183758352Y-48496881D01*
X183839361Y-48089620D01*
X183839361Y-47674380D01*
X183758352Y-47267119D01*
X183599447Y-46883487D01*
X183368752Y-46538228D01*
X183075133Y-46244609D01*
X182729874Y-46013914D01*
X182346242Y-45855009D01*
X181938981Y-45774000D01*
X181523741Y-45774000D01*
X181116480Y-45855009D01*
X180732848Y-46013914D01*
X180387589Y-46244609D01*
X180093970Y-46538228D01*
X179863275Y-46883487D01*
X179704370Y-47267119D01*
X179623361Y-47674380D01*
X173824369Y-47674380D01*
X179320640Y-42178110D01*
X179433517Y-42226315D01*
X179627594Y-42267125D01*
X179825904Y-42269288D01*
X180020825Y-42232722D01*
X180204867Y-42158831D01*
X180370958Y-42050455D01*
X180512714Y-41911758D01*
X180994805Y-41337225D01*
X181106778Y-41173539D01*
X181184667Y-40991153D01*
X181225477Y-40797076D01*
X181226816Y-40674274D01*
X181431611Y-40717338D01*
X181677824Y-40720023D01*
X181919831Y-40674624D01*
X182148331Y-40582883D01*
X182354542Y-40448327D01*
X182530541Y-40276127D01*
X182566082Y-40224362D01*
X182561531Y-40172337D01*
X186352973Y-40172337D01*
X186580326Y-40664020D01*
X186899233Y-41101902D01*
X187297440Y-41469153D01*
X187759642Y-41751662D01*
X188268078Y-41938571D01*
X188521362Y-41991831D01*
X188926160Y-41714534D01*
X188735461Y-39534838D01*
X186555765Y-39725536D01*
X186352973Y-40172337D01*
X182561531Y-40172337D01*
X182527565Y-39784102D01*
X182178570Y-39491260D01*
X189233559Y-39491260D01*
X189424257Y-41670956D01*
X189871058Y-41873748D01*
X190362741Y-41646395D01*
X190800623Y-41327488D01*
X191167874Y-40929281D01*
X191450383Y-40467079D01*
X191637292Y-39958643D01*
X191690552Y-39705359D01*
X191413255Y-39300561D01*
X189233559Y-39491260D01*
X182178570Y-39491260D01*
X181330620Y-38779746D01*
X181317764Y-38795067D01*
X180934742Y-38473673D01*
X180947598Y-38458352D01*
X180932277Y-38445496D01*
X181253671Y-38062474D01*
X181268992Y-38075330D01*
X181281848Y-38060009D01*
X181664870Y-38381403D01*
X181652014Y-38396724D01*
X182848958Y-39401079D01*
X183289218Y-39362562D01*
X183334026Y-39318571D01*
X183473048Y-39115344D01*
X183569752Y-38888900D01*
X183620420Y-38647941D01*
X183623105Y-38401728D01*
X183577706Y-38159721D01*
X183485965Y-37931221D01*
X183389248Y-37783000D01*
X186644931Y-37783000D01*
X186475059Y-38060921D01*
X186288150Y-38569357D01*
X186234890Y-38822641D01*
X186512187Y-39227439D01*
X188406843Y-39061678D01*
X188595024Y-39249859D01*
X188948580Y-38896303D01*
X188653807Y-38601530D01*
X188582195Y-37783000D01*
X189084105Y-37783000D01*
X189165043Y-38708122D01*
X188976862Y-38896303D01*
X189330418Y-39249859D01*
X189625191Y-38955086D01*
X191369677Y-38802464D01*
X191572469Y-38355663D01*
X191345116Y-37863980D01*
X191286139Y-37783000D01*
X193742768Y-37783000D01*
X193498781Y-38002334D01*
X192846451Y-38874452D01*
X192376798Y-39857076D01*
X192163002Y-40635748D01*
X192368470Y-41500000D01*
X192664358Y-41500000D01*
X192653707Y-41548439D01*
X192646978Y-41883242D01*
X192667773Y-42000000D01*
X192368470Y-42000000D01*
X192163002Y-42864252D01*
X192376798Y-43642924D01*
X192846451Y-44625548D01*
X193498781Y-45497666D01*
X194308718Y-46225764D01*
X195245137Y-46781861D01*
X196272052Y-47144586D01*
X197350000Y-47300000D01*
X198250000Y-47300000D01*
X198250000Y-46660642D01*
X198298439Y-46671293D01*
X198633242Y-46678022D01*
X198750000Y-46657227D01*
X198750000Y-47300000D01*
X199650000Y-47300000D01*
X200727948Y-47144586D01*
X201754863Y-46781861D01*
X202691282Y-46225764D01*
X203217001Y-45753166D01*
X203217001Y-66750000D01*
X189992395Y-66750000D01*
X189976897Y-66698909D01*
X189904190Y-66562884D01*
X189806343Y-66443657D01*
X189687116Y-66345810D01*
X189551091Y-66273103D01*
X189403495Y-66228330D01*
X189288460Y-66217000D01*
X189250000Y-66213212D01*
X189211540Y-66217000D01*
X185288460Y-66217000D01*
X185250000Y-66213212D01*
X185211540Y-66217000D01*
X185096505Y-66228330D01*
X184948909Y-66273103D01*
X184812884Y-66345810D01*
X184693657Y-66443657D01*
X184595810Y-66562884D01*
X184523103Y-66698909D01*
X184507605Y-66750000D01*
X167742395Y-66750000D01*
X167726897Y-66698909D01*
X167654190Y-66562884D01*
X167556343Y-66443657D01*
X167437116Y-66345810D01*
X167301091Y-66273103D01*
X167153495Y-66228330D01*
X167038460Y-66217000D01*
X167000000Y-66213212D01*
X166961540Y-66217000D01*
X163038460Y-66217000D01*
X163000000Y-66213212D01*
X162961540Y-66217000D01*
X162846505Y-66228330D01*
X162698909Y-66273103D01*
X162562884Y-66345810D01*
X162443657Y-66443657D01*
X162345810Y-66562884D01*
X162273103Y-66698909D01*
X162257605Y-66750000D01*
X145742395Y-66750000D01*
X145726897Y-66698909D01*
X145654190Y-66562884D01*
X145556343Y-66443657D01*
X145437116Y-66345810D01*
X145301091Y-66273103D01*
X145153495Y-66228330D01*
X145038460Y-66217000D01*
X145000000Y-66213212D01*
X144961540Y-66217000D01*
X141038460Y-66217000D01*
X141000000Y-66213212D01*
X140961540Y-66217000D01*
X140846505Y-66228330D01*
X140698909Y-66273103D01*
X140562884Y-66345810D01*
X140443657Y-66443657D01*
X140345810Y-66562884D01*
X140273103Y-66698909D01*
X140257605Y-66750000D01*
X122742395Y-66750000D01*
X122726897Y-66698909D01*
X122654190Y-66562884D01*
X122556343Y-66443657D01*
X122437116Y-66345810D01*
X122301091Y-66273103D01*
X122153495Y-66228330D01*
X122038460Y-66217000D01*
X122000000Y-66213212D01*
X121961540Y-66217000D01*
X118038460Y-66217000D01*
X118000000Y-66213212D01*
X117961540Y-66217000D01*
X117846505Y-66228330D01*
X117698909Y-66273103D01*
X117562884Y-66345810D01*
X117443657Y-66443657D01*
X117345810Y-66562884D01*
X117273103Y-66698909D01*
X117257605Y-66750000D01*
X104783000Y-66750000D01*
X104783000Y-61454438D01*
X104910368Y-61761932D01*
X105168422Y-62148137D01*
X105496863Y-62476578D01*
X105883068Y-62734632D01*
X106312197Y-62912383D01*
X106767757Y-63003000D01*
X107232243Y-63003000D01*
X107687803Y-62912383D01*
X108116932Y-62734632D01*
X108503137Y-62476578D01*
X108831578Y-62148137D01*
X109089632Y-61761932D01*
X109198127Y-61500000D01*
X130488333Y-61500000D01*
X130488333Y-65000000D01*
X130502968Y-65148594D01*
X130546311Y-65291477D01*
X130616697Y-65423160D01*
X130711420Y-65538580D01*
X130826840Y-65633303D01*
X130958523Y-65703689D01*
X131101406Y-65747032D01*
X131250000Y-65761667D01*
X134750000Y-65761667D01*
X134898594Y-65747032D01*
X135041477Y-65703689D01*
X135173160Y-65633303D01*
X135288580Y-65538580D01*
X135383303Y-65423160D01*
X135453689Y-65291477D01*
X135497032Y-65148594D01*
X135511667Y-65000000D01*
X135511667Y-61500000D01*
X151488333Y-61500000D01*
X151488333Y-65000000D01*
X151502968Y-65148594D01*
X151546311Y-65291477D01*
X151616697Y-65423160D01*
X151711420Y-65538580D01*
X151826840Y-65633303D01*
X151958523Y-65703689D01*
X152101406Y-65747032D01*
X152250000Y-65761667D01*
X155750000Y-65761667D01*
X155898594Y-65747032D01*
X156041477Y-65703689D01*
X156173160Y-65633303D01*
X156288580Y-65538580D01*
X156383303Y-65423160D01*
X156453689Y-65291477D01*
X156497032Y-65148594D01*
X156511667Y-65000000D01*
X156511667Y-61500000D01*
X172488333Y-61500000D01*
X172488333Y-65000000D01*
X172502968Y-65148594D01*
X172546311Y-65291477D01*
X172616697Y-65423160D01*
X172711420Y-65538580D01*
X172826840Y-65633303D01*
X172958523Y-65703689D01*
X173101406Y-65747032D01*
X173250000Y-65761667D01*
X176750000Y-65761667D01*
X176898594Y-65747032D01*
X177041477Y-65703689D01*
X177173160Y-65633303D01*
X177288580Y-65538580D01*
X177383303Y-65423160D01*
X177453689Y-65291477D01*
X177497032Y-65148594D01*
X177511667Y-65000000D01*
X177511667Y-61500000D01*
X177497032Y-61351406D01*
X177453689Y-61208523D01*
X177383303Y-61076840D01*
X177288580Y-60961420D01*
X177173160Y-60866697D01*
X177041477Y-60796311D01*
X176898594Y-60752968D01*
X176750000Y-60738333D01*
X173250000Y-60738333D01*
X173101406Y-60752968D01*
X172958523Y-60796311D01*
X172826840Y-60866697D01*
X172711420Y-60961420D01*
X172616697Y-61076840D01*
X172546311Y-61208523D01*
X172502968Y-61351406D01*
X172488333Y-61500000D01*
X156511667Y-61500000D01*
X156497032Y-61351406D01*
X156453689Y-61208523D01*
X156383303Y-61076840D01*
X156288580Y-60961420D01*
X156173160Y-60866697D01*
X156041477Y-60796311D01*
X155898594Y-60752968D01*
X155750000Y-60738333D01*
X152250000Y-60738333D01*
X152101406Y-60752968D01*
X151958523Y-60796311D01*
X151826840Y-60866697D01*
X151711420Y-60961420D01*
X151616697Y-61076840D01*
X151546311Y-61208523D01*
X151502968Y-61351406D01*
X151488333Y-61500000D01*
X135511667Y-61500000D01*
X135497032Y-61351406D01*
X135453689Y-61208523D01*
X135383303Y-61076840D01*
X135288580Y-60961420D01*
X135173160Y-60866697D01*
X135041477Y-60796311D01*
X134898594Y-60752968D01*
X134750000Y-60738333D01*
X131250000Y-60738333D01*
X131101406Y-60752968D01*
X130958523Y-60796311D01*
X130826840Y-60866697D01*
X130711420Y-60961420D01*
X130616697Y-61076840D01*
X130546311Y-61208523D01*
X130502968Y-61351406D01*
X130488333Y-61500000D01*
X109198127Y-61500000D01*
X109267383Y-61332803D01*
X109358000Y-60877243D01*
X109358000Y-60412757D01*
X197142000Y-60412757D01*
X197142000Y-60877243D01*
X197232617Y-61332803D01*
X197410368Y-61761932D01*
X197668422Y-62148137D01*
X197996863Y-62476578D01*
X198383068Y-62734632D01*
X198812197Y-62912383D01*
X199267757Y-63003000D01*
X199732243Y-63003000D01*
X200187803Y-62912383D01*
X200616932Y-62734632D01*
X201003137Y-62476578D01*
X201331578Y-62148137D01*
X201589632Y-61761932D01*
X201767383Y-61332803D01*
X201858000Y-60877243D01*
X201858000Y-60412757D01*
X201767383Y-59957197D01*
X201589632Y-59528068D01*
X201331578Y-59141863D01*
X201003137Y-58813422D01*
X200616932Y-58555368D01*
X200187803Y-58377617D01*
X199732243Y-58287000D01*
X199267757Y-58287000D01*
X198812197Y-58377617D01*
X198383068Y-58555368D01*
X197996863Y-58813422D01*
X197668422Y-59141863D01*
X197410368Y-59528068D01*
X197232617Y-59957197D01*
X197142000Y-60412757D01*
X109358000Y-60412757D01*
X109267383Y-59957197D01*
X109089632Y-59528068D01*
X108831578Y-59141863D01*
X108503137Y-58813422D01*
X108116932Y-58555368D01*
X107687803Y-58377617D01*
X107232243Y-58287000D01*
X106767757Y-58287000D01*
X106312197Y-58377617D01*
X105883068Y-58555368D01*
X105496863Y-58813422D01*
X105168422Y-59141863D01*
X104910368Y-59528068D01*
X104783000Y-59835562D01*
X104783000Y-54347324D01*
X104826840Y-54383303D01*
X104958523Y-54453689D01*
X105101406Y-54497032D01*
X105250000Y-54511667D01*
X108750000Y-54511667D01*
X108898594Y-54497032D01*
X109041477Y-54453689D01*
X109173160Y-54383303D01*
X109288580Y-54288580D01*
X109383303Y-54173160D01*
X109453689Y-54041477D01*
X109497032Y-53898594D01*
X109511667Y-53750000D01*
X109511667Y-50250000D01*
X109497032Y-50101406D01*
X109453689Y-49958523D01*
X109383303Y-49826840D01*
X109288580Y-49711420D01*
X109173160Y-49616697D01*
X109041477Y-49546311D01*
X108898594Y-49502968D01*
X108750000Y-49488333D01*
X105250000Y-49488333D01*
X105101406Y-49502968D01*
X104958523Y-49546311D01*
X104826840Y-49616697D01*
X104783000Y-49652676D01*
X104783000Y-45528427D01*
X105558718Y-46225764D01*
X106495137Y-46781861D01*
X107522052Y-47144586D01*
X108600000Y-47300000D01*
X109500000Y-47300000D01*
X109500000Y-46660642D01*
X109548439Y-46671293D01*
X109883242Y-46678022D01*
X110000000Y-46657227D01*
X110000000Y-47300000D01*
X110900000Y-47300000D01*
X111977948Y-47144586D01*
X113004863Y-46781861D01*
X113941282Y-46225764D01*
X114751219Y-45497666D01*
X115403549Y-44625548D01*
X115873202Y-43642924D01*
X116086998Y-42864252D01*
X115881530Y-42000000D01*
X115585642Y-42000000D01*
X115596293Y-41951561D01*
X115603022Y-41616758D01*
X115582227Y-41500000D01*
X115881530Y-41500000D01*
X116086998Y-40635748D01*
X115873202Y-39857076D01*
X115403549Y-38874452D01*
X114751219Y-38002334D01*
X114507232Y-37783000D01*
X126068511Y-37783000D01*
X125976661Y-37917270D01*
X125976661Y-37917270D01*
G37*
X125976661Y-37917270D02*
X125879957Y-38143714D01*
X125829289Y-38384673D01*
X125826604Y-38630886D01*
X125872003Y-38872893D01*
X125949974Y-39067097D01*
X125829272Y-39089740D01*
X125645230Y-39163631D01*
X125479139Y-39272007D01*
X125337383Y-39410704D01*
X124956566Y-39864544D01*
X124801901Y-39879777D01*
X124635456Y-39930268D01*
X124482058Y-40012260D01*
X124347604Y-40122604D01*
X124319952Y-40156298D01*
X120587918Y-43888333D01*
X120049999Y-43888333D01*
X119852633Y-43907772D01*
X119662851Y-43965341D01*
X119487947Y-44058829D01*
X119334643Y-44184643D01*
X119208829Y-44337947D01*
X119115341Y-44512851D01*
X119057772Y-44702633D01*
X119038333Y-44899999D01*
X119038333Y-45550001D01*
X119057772Y-45747367D01*
X119115341Y-45937149D01*
X119208829Y-46112053D01*
X119322040Y-46250000D01*
X119208829Y-46387947D01*
X119115341Y-46562851D01*
X119057772Y-46752633D01*
X119038333Y-46949999D01*
X119038333Y-47600001D01*
X119057772Y-47797367D01*
X119115341Y-47987149D01*
X119208829Y-48162053D01*
X119334643Y-48315357D01*
X119487947Y-48441171D01*
X119662851Y-48534659D01*
X119852633Y-48592228D01*
X120049999Y-48611667D01*
X120587917Y-48611667D01*
X121117001Y-49140752D01*
X121117000Y-54273947D01*
X120841366Y-54328774D01*
X120430436Y-54498987D01*
X120060609Y-54746097D01*
X119746097Y-55060609D01*
X119498987Y-55430436D01*
X119328774Y-55841366D01*
X119242000Y-56277606D01*
X119242000Y-56722394D01*
X119328774Y-57158634D01*
X119498987Y-57569564D01*
X119746097Y-57939391D01*
X120060609Y-58253903D01*
X120430436Y-58501013D01*
X120841366Y-58671226D01*
X121277606Y-58758000D01*
X121722394Y-58758000D01*
X122158634Y-58671226D01*
X122569564Y-58501013D01*
X122939391Y-58253903D01*
X123253903Y-57939391D01*
X123501013Y-57569564D01*
X123671226Y-57158634D01*
X123758000Y-56722394D01*
X123758000Y-56277606D01*
X123671226Y-55841366D01*
X123501013Y-55430436D01*
X123253903Y-55060609D01*
X122939391Y-54746097D01*
X122883000Y-54708418D01*
X122883000Y-48818365D01*
X122887271Y-48774999D01*
X122883000Y-48731633D01*
X122883000Y-48731627D01*
X122870223Y-48601902D01*
X122867289Y-48592228D01*
X122838365Y-48496881D01*
X122819732Y-48435456D01*
X122737740Y-48282058D01*
X122627396Y-48147604D01*
X122593707Y-48119956D01*
X122148131Y-47674380D01*
X126623361Y-47674380D01*
X126623361Y-48089620D01*
X126704370Y-48496881D01*
X126863275Y-48880513D01*
X127093970Y-49225772D01*
X127387589Y-49519391D01*
X127732848Y-49750086D01*
X128116480Y-49908991D01*
X128523741Y-49990000D01*
X128938981Y-49990000D01*
X129346242Y-49908991D01*
X129729874Y-49750086D01*
X130075133Y-49519391D01*
X130368752Y-49225772D01*
X130599447Y-48880513D01*
X130758352Y-48496881D01*
X130839361Y-48089620D01*
X130839361Y-47674380D01*
X130758352Y-47267119D01*
X130599447Y-46883487D01*
X130368752Y-46538228D01*
X130075133Y-46244609D01*
X129729874Y-46013914D01*
X129346242Y-45855009D01*
X128938981Y-45774000D01*
X128523741Y-45774000D01*
X128116480Y-45855009D01*
X127732848Y-46013914D01*
X127387589Y-46244609D01*
X127093970Y-46538228D01*
X126863275Y-46883487D01*
X126704370Y-47267119D01*
X126623361Y-47674380D01*
X122148131Y-47674380D01*
X121961667Y-47487917D01*
X121961667Y-46949999D01*
X121942228Y-46752633D01*
X121884659Y-46562851D01*
X121791171Y-46387947D01*
X121677960Y-46250000D01*
X121791171Y-46112053D01*
X121884659Y-45937149D01*
X121942228Y-45747367D01*
X121961667Y-45550001D01*
X121961667Y-45012082D01*
X125297129Y-41676620D01*
X125937542Y-42213991D01*
X126101228Y-42325964D01*
X126283614Y-42403853D01*
X126477691Y-42444663D01*
X126676001Y-42446826D01*
X126870922Y-42410260D01*
X127054964Y-42336369D01*
X127221055Y-42227993D01*
X127362811Y-42089296D01*
X127844902Y-41514763D01*
X127956875Y-41351077D01*
X128034764Y-41168691D01*
X128075574Y-40974614D01*
X128076913Y-40851812D01*
X128281708Y-40894876D01*
X128527921Y-40897561D01*
X128769928Y-40852162D01*
X128998428Y-40760421D01*
X129204639Y-40625865D01*
X129380638Y-40453665D01*
X129416179Y-40401900D01*
X129396096Y-40172337D01*
X133352973Y-40172337D01*
X133580326Y-40664020D01*
X133899233Y-41101902D01*
X134297440Y-41469153D01*
X134759642Y-41751662D01*
X135268078Y-41938571D01*
X135521362Y-41991831D01*
X135926160Y-41714534D01*
X135735461Y-39534838D01*
X133555765Y-39725536D01*
X133352973Y-40172337D01*
X129396096Y-40172337D01*
X129377662Y-39961640D01*
X128180717Y-38957284D01*
X128167861Y-38972605D01*
X127784839Y-38651211D01*
X127797695Y-38635890D01*
X127782374Y-38623034D01*
X128103768Y-38240012D01*
X128119089Y-38252868D01*
X128131945Y-38237547D01*
X128514967Y-38558941D01*
X128502111Y-38574262D01*
X129699055Y-39578617D01*
X130139315Y-39540100D01*
X130184123Y-39496109D01*
X130323145Y-39292882D01*
X130419849Y-39066438D01*
X130470517Y-38825479D01*
X130473202Y-38579266D01*
X130427803Y-38337259D01*
X130336062Y-38108759D01*
X130201506Y-37902548D01*
X130084538Y-37783000D01*
X133644931Y-37783000D01*
X133475059Y-38060921D01*
X133288150Y-38569357D01*
X133234890Y-38822641D01*
X133512187Y-39227439D01*
X135406843Y-39061678D01*
X135595024Y-39249859D01*
X135948580Y-38896303D01*
X135653807Y-38601530D01*
X135582195Y-37783000D01*
X136084105Y-37783000D01*
X136165043Y-38708122D01*
X135976862Y-38896303D01*
X136330418Y-39249859D01*
X136625191Y-38955086D01*
X138369677Y-38802464D01*
X138572469Y-38355663D01*
X138345116Y-37863980D01*
X138286139Y-37783000D01*
X139458183Y-37783000D01*
X139379957Y-37966176D01*
X139329289Y-38207135D01*
X139326604Y-38453348D01*
X139372003Y-38695355D01*
X139449974Y-38889559D01*
X139329272Y-38912202D01*
X139145230Y-38986093D01*
X138979139Y-39094469D01*
X138837383Y-39233166D01*
X138578464Y-39541733D01*
X138413255Y-39300561D01*
X136233559Y-39491260D01*
X136424257Y-41670956D01*
X136871058Y-41873748D01*
X137362741Y-41646395D01*
X137800623Y-41327488D01*
X138167874Y-40929281D01*
X138208137Y-40863408D01*
X138232914Y-40925121D01*
X138341290Y-41091212D01*
X138479987Y-41232968D01*
X138500809Y-41250440D01*
X130406299Y-49344952D01*
X130372605Y-49372604D01*
X130262261Y-49507058D01*
X130188411Y-49645223D01*
X130180269Y-49660456D01*
X130129777Y-49826902D01*
X130112729Y-50000000D01*
X130117001Y-50043376D01*
X130117000Y-54714849D01*
X129987947Y-54783829D01*
X129834643Y-54909643D01*
X129708829Y-55062947D01*
X129615341Y-55237851D01*
X129557772Y-55427633D01*
X129538333Y-55624999D01*
X129538333Y-56275001D01*
X129557772Y-56472367D01*
X129615341Y-56662149D01*
X129708829Y-56837053D01*
X129822040Y-56975000D01*
X129708829Y-57112947D01*
X129615341Y-57287851D01*
X129557772Y-57477633D01*
X129538333Y-57674999D01*
X129538333Y-58325001D01*
X129557772Y-58522367D01*
X129615341Y-58712149D01*
X129708829Y-58887053D01*
X129834643Y-59040357D01*
X129987947Y-59166171D01*
X130162851Y-59259659D01*
X130352633Y-59317228D01*
X130549999Y-59336667D01*
X131450001Y-59336667D01*
X131647367Y-59317228D01*
X131837149Y-59259659D01*
X132012053Y-59166171D01*
X132165357Y-59040357D01*
X132291171Y-58887053D01*
X132384659Y-58712149D01*
X132442228Y-58522367D01*
X132461667Y-58325001D01*
X132461667Y-57787083D01*
X132728543Y-57520208D01*
X132748987Y-57569564D01*
X132996097Y-57939391D01*
X133310609Y-58253903D01*
X133680436Y-58501013D01*
X134091366Y-58671226D01*
X134527606Y-58758000D01*
X134972394Y-58758000D01*
X135408634Y-58671226D01*
X135819564Y-58501013D01*
X136189391Y-58253903D01*
X136503903Y-57939391D01*
X136751013Y-57569564D01*
X136921226Y-57158634D01*
X137008000Y-56722394D01*
X137008000Y-56277606D01*
X136921226Y-55841366D01*
X136751013Y-55430436D01*
X136503903Y-55060609D01*
X136189391Y-54746097D01*
X135819564Y-54498987D01*
X135408634Y-54328774D01*
X134972394Y-54242000D01*
X134527606Y-54242000D01*
X134091366Y-54328774D01*
X133680436Y-54498987D01*
X133310609Y-54746097D01*
X132996097Y-55060609D01*
X132748987Y-55430436D01*
X132671710Y-55617000D01*
X132543365Y-55617000D01*
X132499999Y-55612729D01*
X132460838Y-55616586D01*
X132442228Y-55427633D01*
X132384659Y-55237851D01*
X132291171Y-55062947D01*
X132165357Y-54909643D01*
X132012053Y-54783829D01*
X131883000Y-54714849D01*
X131883000Y-50365749D01*
X139981583Y-42267167D01*
X140176001Y-42269288D01*
X140370922Y-42232722D01*
X140554964Y-42158831D01*
X140721055Y-42050455D01*
X140862811Y-41911758D01*
X141344902Y-41337225D01*
X141456875Y-41173539D01*
X141534764Y-40991153D01*
X141575574Y-40797076D01*
X141576913Y-40674274D01*
X141781708Y-40717338D01*
X142027921Y-40720023D01*
X142269928Y-40674624D01*
X142498428Y-40582883D01*
X142704639Y-40448327D01*
X142880638Y-40276127D01*
X142916179Y-40224362D01*
X142911628Y-40172337D01*
X146602973Y-40172337D01*
X146830326Y-40664020D01*
X147149233Y-41101902D01*
X147547440Y-41469153D01*
X148009642Y-41751662D01*
X148518078Y-41938571D01*
X148771362Y-41991831D01*
X149176160Y-41714534D01*
X148985461Y-39534838D01*
X146805765Y-39725536D01*
X146602973Y-40172337D01*
X142911628Y-40172337D01*
X142877662Y-39784102D01*
X141680717Y-38779746D01*
X141667861Y-38795067D01*
X141284839Y-38473673D01*
X141297695Y-38458352D01*
X141282374Y-38445496D01*
X141603768Y-38062474D01*
X141619089Y-38075330D01*
X141631945Y-38060009D01*
X142014967Y-38381403D01*
X142002111Y-38396724D01*
X143199055Y-39401079D01*
X143639315Y-39362562D01*
X143684123Y-39318571D01*
X143823145Y-39115344D01*
X143919849Y-38888900D01*
X143970517Y-38647941D01*
X143973202Y-38401728D01*
X143927803Y-38159721D01*
X143836062Y-37931221D01*
X143739345Y-37783000D01*
X146894931Y-37783000D01*
X146725059Y-38060921D01*
X146538150Y-38569357D01*
X146484890Y-38822641D01*
X146762187Y-39227439D01*
X148656843Y-39061678D01*
X148845024Y-39249859D01*
X149198580Y-38896303D01*
X148903807Y-38601530D01*
X148832195Y-37783000D01*
X149334105Y-37783000D01*
X149415043Y-38708122D01*
X149226862Y-38896303D01*
X149580418Y-39249859D01*
X149875191Y-38955086D01*
X151619677Y-38802464D01*
X151822469Y-38355663D01*
X151595116Y-37863980D01*
X151536139Y-37783000D01*
X152708183Y-37783000D01*
X152629957Y-37966176D01*
X152579289Y-38207135D01*
X152576604Y-38453348D01*
X152622003Y-38695355D01*
X152699974Y-38889559D01*
X152579272Y-38912202D01*
X152395230Y-38986093D01*
X152229139Y-39094469D01*
X152087383Y-39233166D01*
X151828464Y-39541733D01*
X151663255Y-39300561D01*
X149483559Y-39491260D01*
X149674257Y-41670956D01*
X150121058Y-41873748D01*
X150612741Y-41646395D01*
X151050623Y-41327488D01*
X151417874Y-40929281D01*
X151458137Y-40863408D01*
X151482914Y-40925121D01*
X151587857Y-41085951D01*
X143906304Y-48767506D01*
X143891081Y-48779999D01*
X144008352Y-48496881D01*
X144089361Y-48089620D01*
X144089361Y-47674380D01*
X144008352Y-47267119D01*
X143849447Y-46883487D01*
X143618752Y-46538228D01*
X143325133Y-46244609D01*
X142979874Y-46013914D01*
X142596242Y-45855009D01*
X142188981Y-45774000D01*
X141773741Y-45774000D01*
X141366480Y-45855009D01*
X140982848Y-46013914D01*
X140637589Y-46244609D01*
X140343970Y-46538228D01*
X140113275Y-46883487D01*
X139954370Y-47267119D01*
X139873361Y-47674380D01*
X139873361Y-48089620D01*
X139954370Y-48496881D01*
X140113275Y-48880513D01*
X140343970Y-49225772D01*
X140637589Y-49519391D01*
X140982848Y-49750086D01*
X141366480Y-49908991D01*
X141773741Y-49990000D01*
X142188981Y-49990000D01*
X142596242Y-49908991D01*
X142979874Y-49750086D01*
X143325133Y-49519391D01*
X143618752Y-49225772D01*
X143652106Y-49175855D01*
X143629777Y-49249462D01*
X143617000Y-49379187D01*
X143617000Y-49379193D01*
X143612729Y-49422559D01*
X143617000Y-49465925D01*
X143617001Y-54714848D01*
X143487947Y-54783829D01*
X143334643Y-54909643D01*
X143208829Y-55062947D01*
X143115341Y-55237851D01*
X143057772Y-55427633D01*
X143038333Y-55624999D01*
X143038333Y-56275001D01*
X143057772Y-56472367D01*
X143115341Y-56662149D01*
X143208829Y-56837053D01*
X143322040Y-56975000D01*
X143208829Y-57112947D01*
X143115341Y-57287851D01*
X143057772Y-57477633D01*
X143038333Y-57674999D01*
X143038333Y-58325001D01*
X143057772Y-58522367D01*
X143115341Y-58712149D01*
X143208829Y-58887053D01*
X143334643Y-59040357D01*
X143487947Y-59166171D01*
X143662851Y-59259659D01*
X143852633Y-59317228D01*
X144049999Y-59336667D01*
X144950001Y-59336667D01*
X145147367Y-59317228D01*
X145337149Y-59259659D01*
X145512053Y-59166171D01*
X145665357Y-59040357D01*
X145791171Y-58887053D01*
X145884659Y-58712149D01*
X145942228Y-58522367D01*
X145961667Y-58325001D01*
X145961667Y-57787083D01*
X146071165Y-57677586D01*
X146246097Y-57939391D01*
X146560609Y-58253903D01*
X146930436Y-58501013D01*
X147341366Y-58671226D01*
X147777606Y-58758000D01*
X148222394Y-58758000D01*
X148658634Y-58671226D01*
X149069564Y-58501013D01*
X149439391Y-58253903D01*
X149753903Y-57939391D01*
X150001013Y-57569564D01*
X150171226Y-57158634D01*
X150258000Y-56722394D01*
X150258000Y-56277606D01*
X150171226Y-55841366D01*
X150001013Y-55430436D01*
X149753903Y-55060609D01*
X149439391Y-54746097D01*
X149069564Y-54498987D01*
X148658634Y-54328774D01*
X148222394Y-54242000D01*
X147777606Y-54242000D01*
X147341366Y-54328774D01*
X146930436Y-54498987D01*
X146560609Y-54746097D01*
X146246097Y-55060609D01*
X145998987Y-55430436D01*
X145953355Y-55540602D01*
X145942228Y-55427633D01*
X145884659Y-55237851D01*
X145791171Y-55062947D01*
X145665357Y-54909643D01*
X145512053Y-54783829D01*
X145383000Y-54714849D01*
X145383000Y-49788308D01*
X147496928Y-47674380D01*
X153123361Y-47674380D01*
X153123361Y-48089620D01*
X153204370Y-48496881D01*
X153363275Y-48880513D01*
X153593970Y-49225772D01*
X153887589Y-49519391D01*
X154232848Y-49750086D01*
X154616480Y-49908991D01*
X155023741Y-49990000D01*
X155438981Y-49990000D01*
X155846242Y-49908991D01*
X156229874Y-49750086D01*
X156575133Y-49519391D01*
X156868752Y-49225772D01*
X157099447Y-48880513D01*
X157258352Y-48496881D01*
X157339361Y-48089620D01*
X157339361Y-47674380D01*
X157258352Y-47267119D01*
X157099447Y-46883487D01*
X156868752Y-46538228D01*
X156575133Y-46244609D01*
X156229874Y-46013914D01*
X155846242Y-45855009D01*
X155438981Y-45774000D01*
X155023741Y-45774000D01*
X154616480Y-45855009D01*
X154232848Y-46013914D01*
X153887589Y-46244609D01*
X153593970Y-46538228D01*
X153363275Y-46883487D01*
X153204370Y-47267119D01*
X153123361Y-47674380D01*
X147496928Y-47674380D01*
X152971515Y-42199795D01*
X153033614Y-42226315D01*
X153227691Y-42267125D01*
X153426001Y-42269288D01*
X153620922Y-42232722D01*
X153804964Y-42158831D01*
X153971055Y-42050455D01*
X154112811Y-41911758D01*
X154594902Y-41337225D01*
X154706875Y-41173539D01*
X154784764Y-40991153D01*
X154825574Y-40797076D01*
X154826913Y-40674274D01*
X155031708Y-40717338D01*
X155277921Y-40720023D01*
X155519928Y-40674624D01*
X155748428Y-40582883D01*
X155954639Y-40448327D01*
X156130638Y-40276127D01*
X156166179Y-40224362D01*
X156161628Y-40172337D01*
X159852973Y-40172337D01*
X160080326Y-40664020D01*
X160399233Y-41101902D01*
X160797440Y-41469153D01*
X161259642Y-41751662D01*
X161768078Y-41938571D01*
X162021362Y-41991831D01*
X162426160Y-41714534D01*
X162235461Y-39534838D01*
X160055765Y-39725536D01*
X159852973Y-40172337D01*
X156161628Y-40172337D01*
X156127662Y-39784102D01*
X154930717Y-38779746D01*
X154917861Y-38795067D01*
X154534839Y-38473673D01*
X154547695Y-38458352D01*
X154532374Y-38445496D01*
X154853768Y-38062474D01*
X154869089Y-38075330D01*
X154881945Y-38060009D01*
X155264967Y-38381403D01*
X155252111Y-38396724D01*
X156449055Y-39401079D01*
X156889315Y-39362562D01*
X156934123Y-39318571D01*
X157073145Y-39115344D01*
X157169849Y-38888900D01*
X157220517Y-38647941D01*
X157223202Y-38401728D01*
X157177803Y-38159721D01*
X157086062Y-37931221D01*
X156989345Y-37783000D01*
X160144931Y-37783000D01*
X159975059Y-38060921D01*
X159788150Y-38569357D01*
X159734890Y-38822641D01*
X160012187Y-39227439D01*
X161906843Y-39061678D01*
X162095024Y-39249859D01*
X162448580Y-38896303D01*
X162153807Y-38601530D01*
X162082195Y-37783000D01*
X162584105Y-37783000D01*
X162665043Y-38708122D01*
X162476862Y-38896303D01*
X162830418Y-39249859D01*
X163125191Y-38955086D01*
X164869677Y-38802464D01*
X165072469Y-38355663D01*
X164845116Y-37863980D01*
X164786139Y-37783000D01*
X165958183Y-37783000D01*
X165879957Y-37966176D01*
X165829289Y-38207135D01*
X165826604Y-38453348D01*
X165872003Y-38695355D01*
X165949974Y-38889559D01*
X165829272Y-38912202D01*
X165645230Y-38986093D01*
X165479139Y-39094469D01*
X165337383Y-39233166D01*
X165078464Y-39541733D01*
X164913255Y-39300561D01*
X162733559Y-39491260D01*
X162924257Y-41670956D01*
X163371058Y-41873748D01*
X163862741Y-41646395D01*
X164300623Y-41327488D01*
X164667874Y-40929281D01*
X164708137Y-40863408D01*
X164732914Y-40925121D01*
X164841290Y-41091212D01*
X164979987Y-41232968D01*
X165617000Y-41767486D01*
X165617001Y-46584248D01*
X157337918Y-54863333D01*
X156799999Y-54863333D01*
X156602633Y-54882772D01*
X156412851Y-54940341D01*
X156237947Y-55033829D01*
X156084643Y-55159643D01*
X155958829Y-55312947D01*
X155865341Y-55487851D01*
X155807772Y-55677633D01*
X155788333Y-55874999D01*
X155788333Y-56525001D01*
X155807772Y-56722367D01*
X155865341Y-56912149D01*
X155958829Y-57087053D01*
X156072040Y-57225000D01*
X155958829Y-57362947D01*
X155865341Y-57537851D01*
X155807772Y-57727633D01*
X155788333Y-57924999D01*
X155788333Y-58575001D01*
X155807772Y-58772367D01*
X155865341Y-58962149D01*
X155958829Y-59137053D01*
X156084643Y-59290357D01*
X156237947Y-59416171D01*
X156412851Y-59509659D01*
X156602633Y-59567228D01*
X156799999Y-59586667D01*
X157700001Y-59586667D01*
X157897367Y-59567228D01*
X158087149Y-59509659D01*
X158262053Y-59416171D01*
X158415357Y-59290357D01*
X158541171Y-59137053D01*
X158634659Y-58962149D01*
X158692228Y-58772367D01*
X158711667Y-58575001D01*
X158711667Y-58037082D01*
X159228543Y-57520207D01*
X159248987Y-57569564D01*
X159496097Y-57939391D01*
X159810609Y-58253903D01*
X160180436Y-58501013D01*
X160591366Y-58671226D01*
X161027606Y-58758000D01*
X161472394Y-58758000D01*
X161908634Y-58671226D01*
X162319564Y-58501013D01*
X162689391Y-58253903D01*
X163003903Y-57939391D01*
X163251013Y-57569564D01*
X163421226Y-57158634D01*
X163508000Y-56722394D01*
X163508000Y-56277606D01*
X163421226Y-55841366D01*
X163251013Y-55430436D01*
X163003903Y-55060609D01*
X162689391Y-54746097D01*
X162319564Y-54498987D01*
X161908634Y-54328774D01*
X161472394Y-54242000D01*
X161027606Y-54242000D01*
X160591366Y-54328774D01*
X160213428Y-54485321D01*
X166412478Y-48286273D01*
X166454370Y-48496881D01*
X166613275Y-48880513D01*
X166843970Y-49225772D01*
X167137589Y-49519391D01*
X167482848Y-49750086D01*
X167866480Y-49908991D01*
X168273741Y-49990000D01*
X168688981Y-49990000D01*
X169096242Y-49908991D01*
X169479874Y-49750086D01*
X169825133Y-49519391D01*
X169864718Y-49479806D01*
X169862729Y-49500000D01*
X169867001Y-49543376D01*
X169867000Y-55214849D01*
X169737947Y-55283829D01*
X169584643Y-55409643D01*
X169458829Y-55562947D01*
X169365341Y-55737851D01*
X169307772Y-55927633D01*
X169288333Y-56124999D01*
X169288333Y-56775001D01*
X169307772Y-56972367D01*
X169365341Y-57162149D01*
X169458829Y-57337053D01*
X169572040Y-57475000D01*
X169458829Y-57612947D01*
X169365341Y-57787851D01*
X169307772Y-57977633D01*
X169288333Y-58174999D01*
X169288333Y-58825001D01*
X169307772Y-59022367D01*
X169365341Y-59212149D01*
X169458829Y-59387053D01*
X169584643Y-59540357D01*
X169737947Y-59666171D01*
X169912851Y-59759659D01*
X170102633Y-59817228D01*
X170299999Y-59836667D01*
X171200001Y-59836667D01*
X171397367Y-59817228D01*
X171587149Y-59759659D01*
X171762053Y-59666171D01*
X171915357Y-59540357D01*
X172041171Y-59387053D01*
X172043337Y-59383000D01*
X172456634Y-59383000D01*
X172500000Y-59387271D01*
X172543366Y-59383000D01*
X172543373Y-59383000D01*
X172673098Y-59370223D01*
X172839544Y-59319732D01*
X172992942Y-59237740D01*
X173127396Y-59127396D01*
X173155053Y-59093696D01*
X173654801Y-58593948D01*
X173841366Y-58671226D01*
X174277606Y-58758000D01*
X174722394Y-58758000D01*
X175158634Y-58671226D01*
X175569564Y-58501013D01*
X175939391Y-58253903D01*
X176253903Y-57939391D01*
X176501013Y-57569564D01*
X176671226Y-57158634D01*
X176758000Y-56722394D01*
X176758000Y-56277606D01*
X176671226Y-55841366D01*
X176501013Y-55430436D01*
X176253903Y-55060609D01*
X175939391Y-54746097D01*
X175569564Y-54498987D01*
X175158634Y-54328774D01*
X174722394Y-54242000D01*
X174277606Y-54242000D01*
X173841366Y-54328774D01*
X173430436Y-54498987D01*
X173060609Y-54746097D01*
X172746097Y-55060609D01*
X172498987Y-55430436D01*
X172328774Y-55841366D01*
X172242000Y-56277606D01*
X172242000Y-56722394D01*
X172328774Y-57158634D01*
X172406052Y-57345199D01*
X172134251Y-57617000D01*
X172043337Y-57617000D01*
X172041171Y-57612947D01*
X171927960Y-57475000D01*
X172041171Y-57337053D01*
X172134659Y-57162149D01*
X172192228Y-56972367D01*
X172211667Y-56775001D01*
X172211667Y-56124999D01*
X172192228Y-55927633D01*
X172134659Y-55737851D01*
X172041171Y-55562947D01*
X171915357Y-55409643D01*
X171762053Y-55283829D01*
X171633000Y-55214849D01*
X171633000Y-50250000D01*
X196988333Y-50250000D01*
X196988333Y-53750000D01*
X197002968Y-53898594D01*
X197046311Y-54041477D01*
X197116697Y-54173160D01*
X197211420Y-54288580D01*
X197326840Y-54383303D01*
X197458523Y-54453689D01*
X197601406Y-54497032D01*
X197750000Y-54511667D01*
X201250000Y-54511667D01*
X201398594Y-54497032D01*
X201541477Y-54453689D01*
X201673160Y-54383303D01*
X201788580Y-54288580D01*
X201883303Y-54173160D01*
X201953689Y-54041477D01*
X201997032Y-53898594D01*
X202011667Y-53750000D01*
X202011667Y-50250000D01*
X201997032Y-50101406D01*
X201953689Y-49958523D01*
X201883303Y-49826840D01*
X201788580Y-49711420D01*
X201673160Y-49616697D01*
X201541477Y-49546311D01*
X201398594Y-49502968D01*
X201250000Y-49488333D01*
X197750000Y-49488333D01*
X197601406Y-49502968D01*
X197458523Y-49546311D01*
X197326840Y-49616697D01*
X197211420Y-49711420D01*
X197116697Y-49826840D01*
X197046311Y-49958523D01*
X197002968Y-50101406D01*
X196988333Y-50250000D01*
X171633000Y-50250000D01*
X171633000Y-49865749D01*
X173824369Y-47674380D01*
X179623361Y-47674380D01*
X179623361Y-48089620D01*
X179704370Y-48496881D01*
X179863275Y-48880513D01*
X180093970Y-49225772D01*
X180387589Y-49519391D01*
X180732848Y-49750086D01*
X181116480Y-49908991D01*
X181523741Y-49990000D01*
X181938981Y-49990000D01*
X182346242Y-49908991D01*
X182729874Y-49750086D01*
X183075133Y-49519391D01*
X183368752Y-49225772D01*
X183599447Y-48880513D01*
X183758352Y-48496881D01*
X183839361Y-48089620D01*
X183839361Y-47674380D01*
X183758352Y-47267119D01*
X183599447Y-46883487D01*
X183368752Y-46538228D01*
X183075133Y-46244609D01*
X182729874Y-46013914D01*
X182346242Y-45855009D01*
X181938981Y-45774000D01*
X181523741Y-45774000D01*
X181116480Y-45855009D01*
X180732848Y-46013914D01*
X180387589Y-46244609D01*
X180093970Y-46538228D01*
X179863275Y-46883487D01*
X179704370Y-47267119D01*
X179623361Y-47674380D01*
X173824369Y-47674380D01*
X179320640Y-42178110D01*
X179433517Y-42226315D01*
X179627594Y-42267125D01*
X179825904Y-42269288D01*
X180020825Y-42232722D01*
X180204867Y-42158831D01*
X180370958Y-42050455D01*
X180512714Y-41911758D01*
X180994805Y-41337225D01*
X181106778Y-41173539D01*
X181184667Y-40991153D01*
X181225477Y-40797076D01*
X181226816Y-40674274D01*
X181431611Y-40717338D01*
X181677824Y-40720023D01*
X181919831Y-40674624D01*
X182148331Y-40582883D01*
X182354542Y-40448327D01*
X182530541Y-40276127D01*
X182566082Y-40224362D01*
X182561531Y-40172337D01*
X186352973Y-40172337D01*
X186580326Y-40664020D01*
X186899233Y-41101902D01*
X187297440Y-41469153D01*
X187759642Y-41751662D01*
X188268078Y-41938571D01*
X188521362Y-41991831D01*
X188926160Y-41714534D01*
X188735461Y-39534838D01*
X186555765Y-39725536D01*
X186352973Y-40172337D01*
X182561531Y-40172337D01*
X182527565Y-39784102D01*
X182178570Y-39491260D01*
X189233559Y-39491260D01*
X189424257Y-41670956D01*
X189871058Y-41873748D01*
X190362741Y-41646395D01*
X190800623Y-41327488D01*
X191167874Y-40929281D01*
X191450383Y-40467079D01*
X191637292Y-39958643D01*
X191690552Y-39705359D01*
X191413255Y-39300561D01*
X189233559Y-39491260D01*
X182178570Y-39491260D01*
X181330620Y-38779746D01*
X181317764Y-38795067D01*
X180934742Y-38473673D01*
X180947598Y-38458352D01*
X180932277Y-38445496D01*
X181253671Y-38062474D01*
X181268992Y-38075330D01*
X181281848Y-38060009D01*
X181664870Y-38381403D01*
X181652014Y-38396724D01*
X182848958Y-39401079D01*
X183289218Y-39362562D01*
X183334026Y-39318571D01*
X183473048Y-39115344D01*
X183569752Y-38888900D01*
X183620420Y-38647941D01*
X183623105Y-38401728D01*
X183577706Y-38159721D01*
X183485965Y-37931221D01*
X183389248Y-37783000D01*
X186644931Y-37783000D01*
X186475059Y-38060921D01*
X186288150Y-38569357D01*
X186234890Y-38822641D01*
X186512187Y-39227439D01*
X188406843Y-39061678D01*
X188595024Y-39249859D01*
X188948580Y-38896303D01*
X188653807Y-38601530D01*
X188582195Y-37783000D01*
X189084105Y-37783000D01*
X189165043Y-38708122D01*
X188976862Y-38896303D01*
X189330418Y-39249859D01*
X189625191Y-38955086D01*
X191369677Y-38802464D01*
X191572469Y-38355663D01*
X191345116Y-37863980D01*
X191286139Y-37783000D01*
X193742768Y-37783000D01*
X193498781Y-38002334D01*
X192846451Y-38874452D01*
X192376798Y-39857076D01*
X192163002Y-40635748D01*
X192368470Y-41500000D01*
X192664358Y-41500000D01*
X192653707Y-41548439D01*
X192646978Y-41883242D01*
X192667773Y-42000000D01*
X192368470Y-42000000D01*
X192163002Y-42864252D01*
X192376798Y-43642924D01*
X192846451Y-44625548D01*
X193498781Y-45497666D01*
X194308718Y-46225764D01*
X195245137Y-46781861D01*
X196272052Y-47144586D01*
X197350000Y-47300000D01*
X198250000Y-47300000D01*
X198250000Y-46660642D01*
X198298439Y-46671293D01*
X198633242Y-46678022D01*
X198750000Y-46657227D01*
X198750000Y-47300000D01*
X199650000Y-47300000D01*
X200727948Y-47144586D01*
X201754863Y-46781861D01*
X202691282Y-46225764D01*
X203217001Y-45753166D01*
X203217001Y-66750000D01*
X189992395Y-66750000D01*
X189976897Y-66698909D01*
X189904190Y-66562884D01*
X189806343Y-66443657D01*
X189687116Y-66345810D01*
X189551091Y-66273103D01*
X189403495Y-66228330D01*
X189288460Y-66217000D01*
X189250000Y-66213212D01*
X189211540Y-66217000D01*
X185288460Y-66217000D01*
X185250000Y-66213212D01*
X185211540Y-66217000D01*
X185096505Y-66228330D01*
X184948909Y-66273103D01*
X184812884Y-66345810D01*
X184693657Y-66443657D01*
X184595810Y-66562884D01*
X184523103Y-66698909D01*
X184507605Y-66750000D01*
X167742395Y-66750000D01*
X167726897Y-66698909D01*
X167654190Y-66562884D01*
X167556343Y-66443657D01*
X167437116Y-66345810D01*
X167301091Y-66273103D01*
X167153495Y-66228330D01*
X167038460Y-66217000D01*
X167000000Y-66213212D01*
X166961540Y-66217000D01*
X163038460Y-66217000D01*
X163000000Y-66213212D01*
X162961540Y-66217000D01*
X162846505Y-66228330D01*
X162698909Y-66273103D01*
X162562884Y-66345810D01*
X162443657Y-66443657D01*
X162345810Y-66562884D01*
X162273103Y-66698909D01*
X162257605Y-66750000D01*
X145742395Y-66750000D01*
X145726897Y-66698909D01*
X145654190Y-66562884D01*
X145556343Y-66443657D01*
X145437116Y-66345810D01*
X145301091Y-66273103D01*
X145153495Y-66228330D01*
X145038460Y-66217000D01*
X145000000Y-66213212D01*
X144961540Y-66217000D01*
X141038460Y-66217000D01*
X141000000Y-66213212D01*
X140961540Y-66217000D01*
X140846505Y-66228330D01*
X140698909Y-66273103D01*
X140562884Y-66345810D01*
X140443657Y-66443657D01*
X140345810Y-66562884D01*
X140273103Y-66698909D01*
X140257605Y-66750000D01*
X122742395Y-66750000D01*
X122726897Y-66698909D01*
X122654190Y-66562884D01*
X122556343Y-66443657D01*
X122437116Y-66345810D01*
X122301091Y-66273103D01*
X122153495Y-66228330D01*
X122038460Y-66217000D01*
X122000000Y-66213212D01*
X121961540Y-66217000D01*
X118038460Y-66217000D01*
X118000000Y-66213212D01*
X117961540Y-66217000D01*
X117846505Y-66228330D01*
X117698909Y-66273103D01*
X117562884Y-66345810D01*
X117443657Y-66443657D01*
X117345810Y-66562884D01*
X117273103Y-66698909D01*
X117257605Y-66750000D01*
X104783000Y-66750000D01*
X104783000Y-61454438D01*
X104910368Y-61761932D01*
X105168422Y-62148137D01*
X105496863Y-62476578D01*
X105883068Y-62734632D01*
X106312197Y-62912383D01*
X106767757Y-63003000D01*
X107232243Y-63003000D01*
X107687803Y-62912383D01*
X108116932Y-62734632D01*
X108503137Y-62476578D01*
X108831578Y-62148137D01*
X109089632Y-61761932D01*
X109198127Y-61500000D01*
X130488333Y-61500000D01*
X130488333Y-65000000D01*
X130502968Y-65148594D01*
X130546311Y-65291477D01*
X130616697Y-65423160D01*
X130711420Y-65538580D01*
X130826840Y-65633303D01*
X130958523Y-65703689D01*
X131101406Y-65747032D01*
X131250000Y-65761667D01*
X134750000Y-65761667D01*
X134898594Y-65747032D01*
X135041477Y-65703689D01*
X135173160Y-65633303D01*
X135288580Y-65538580D01*
X135383303Y-65423160D01*
X135453689Y-65291477D01*
X135497032Y-65148594D01*
X135511667Y-65000000D01*
X135511667Y-61500000D01*
X151488333Y-61500000D01*
X151488333Y-65000000D01*
X151502968Y-65148594D01*
X151546311Y-65291477D01*
X151616697Y-65423160D01*
X151711420Y-65538580D01*
X151826840Y-65633303D01*
X151958523Y-65703689D01*
X152101406Y-65747032D01*
X152250000Y-65761667D01*
X155750000Y-65761667D01*
X155898594Y-65747032D01*
X156041477Y-65703689D01*
X156173160Y-65633303D01*
X156288580Y-65538580D01*
X156383303Y-65423160D01*
X156453689Y-65291477D01*
X156497032Y-65148594D01*
X156511667Y-65000000D01*
X156511667Y-61500000D01*
X172488333Y-61500000D01*
X172488333Y-65000000D01*
X172502968Y-65148594D01*
X172546311Y-65291477D01*
X172616697Y-65423160D01*
X172711420Y-65538580D01*
X172826840Y-65633303D01*
X172958523Y-65703689D01*
X173101406Y-65747032D01*
X173250000Y-65761667D01*
X176750000Y-65761667D01*
X176898594Y-65747032D01*
X177041477Y-65703689D01*
X177173160Y-65633303D01*
X177288580Y-65538580D01*
X177383303Y-65423160D01*
X177453689Y-65291477D01*
X177497032Y-65148594D01*
X177511667Y-65000000D01*
X177511667Y-61500000D01*
X177497032Y-61351406D01*
X177453689Y-61208523D01*
X177383303Y-61076840D01*
X177288580Y-60961420D01*
X177173160Y-60866697D01*
X177041477Y-60796311D01*
X176898594Y-60752968D01*
X176750000Y-60738333D01*
X173250000Y-60738333D01*
X173101406Y-60752968D01*
X172958523Y-60796311D01*
X172826840Y-60866697D01*
X172711420Y-60961420D01*
X172616697Y-61076840D01*
X172546311Y-61208523D01*
X172502968Y-61351406D01*
X172488333Y-61500000D01*
X156511667Y-61500000D01*
X156497032Y-61351406D01*
X156453689Y-61208523D01*
X156383303Y-61076840D01*
X156288580Y-60961420D01*
X156173160Y-60866697D01*
X156041477Y-60796311D01*
X155898594Y-60752968D01*
X155750000Y-60738333D01*
X152250000Y-60738333D01*
X152101406Y-60752968D01*
X151958523Y-60796311D01*
X151826840Y-60866697D01*
X151711420Y-60961420D01*
X151616697Y-61076840D01*
X151546311Y-61208523D01*
X151502968Y-61351406D01*
X151488333Y-61500000D01*
X135511667Y-61500000D01*
X135497032Y-61351406D01*
X135453689Y-61208523D01*
X135383303Y-61076840D01*
X135288580Y-60961420D01*
X135173160Y-60866697D01*
X135041477Y-60796311D01*
X134898594Y-60752968D01*
X134750000Y-60738333D01*
X131250000Y-60738333D01*
X131101406Y-60752968D01*
X130958523Y-60796311D01*
X130826840Y-60866697D01*
X130711420Y-60961420D01*
X130616697Y-61076840D01*
X130546311Y-61208523D01*
X130502968Y-61351406D01*
X130488333Y-61500000D01*
X109198127Y-61500000D01*
X109267383Y-61332803D01*
X109358000Y-60877243D01*
X109358000Y-60412757D01*
X197142000Y-60412757D01*
X197142000Y-60877243D01*
X197232617Y-61332803D01*
X197410368Y-61761932D01*
X197668422Y-62148137D01*
X197996863Y-62476578D01*
X198383068Y-62734632D01*
X198812197Y-62912383D01*
X199267757Y-63003000D01*
X199732243Y-63003000D01*
X200187803Y-62912383D01*
X200616932Y-62734632D01*
X201003137Y-62476578D01*
X201331578Y-62148137D01*
X201589632Y-61761932D01*
X201767383Y-61332803D01*
X201858000Y-60877243D01*
X201858000Y-60412757D01*
X201767383Y-59957197D01*
X201589632Y-59528068D01*
X201331578Y-59141863D01*
X201003137Y-58813422D01*
X200616932Y-58555368D01*
X200187803Y-58377617D01*
X199732243Y-58287000D01*
X199267757Y-58287000D01*
X198812197Y-58377617D01*
X198383068Y-58555368D01*
X197996863Y-58813422D01*
X197668422Y-59141863D01*
X197410368Y-59528068D01*
X197232617Y-59957197D01*
X197142000Y-60412757D01*
X109358000Y-60412757D01*
X109267383Y-59957197D01*
X109089632Y-59528068D01*
X108831578Y-59141863D01*
X108503137Y-58813422D01*
X108116932Y-58555368D01*
X107687803Y-58377617D01*
X107232243Y-58287000D01*
X106767757Y-58287000D01*
X106312197Y-58377617D01*
X105883068Y-58555368D01*
X105496863Y-58813422D01*
X105168422Y-59141863D01*
X104910368Y-59528068D01*
X104783000Y-59835562D01*
X104783000Y-54347324D01*
X104826840Y-54383303D01*
X104958523Y-54453689D01*
X105101406Y-54497032D01*
X105250000Y-54511667D01*
X108750000Y-54511667D01*
X108898594Y-54497032D01*
X109041477Y-54453689D01*
X109173160Y-54383303D01*
X109288580Y-54288580D01*
X109383303Y-54173160D01*
X109453689Y-54041477D01*
X109497032Y-53898594D01*
X109511667Y-53750000D01*
X109511667Y-50250000D01*
X109497032Y-50101406D01*
X109453689Y-49958523D01*
X109383303Y-49826840D01*
X109288580Y-49711420D01*
X109173160Y-49616697D01*
X109041477Y-49546311D01*
X108898594Y-49502968D01*
X108750000Y-49488333D01*
X105250000Y-49488333D01*
X105101406Y-49502968D01*
X104958523Y-49546311D01*
X104826840Y-49616697D01*
X104783000Y-49652676D01*
X104783000Y-45528427D01*
X105558718Y-46225764D01*
X106495137Y-46781861D01*
X107522052Y-47144586D01*
X108600000Y-47300000D01*
X109500000Y-47300000D01*
X109500000Y-46660642D01*
X109548439Y-46671293D01*
X109883242Y-46678022D01*
X110000000Y-46657227D01*
X110000000Y-47300000D01*
X110900000Y-47300000D01*
X111977948Y-47144586D01*
X113004863Y-46781861D01*
X113941282Y-46225764D01*
X114751219Y-45497666D01*
X115403549Y-44625548D01*
X115873202Y-43642924D01*
X116086998Y-42864252D01*
X115881530Y-42000000D01*
X115585642Y-42000000D01*
X115596293Y-41951561D01*
X115603022Y-41616758D01*
X115582227Y-41500000D01*
X115881530Y-41500000D01*
X116086998Y-40635748D01*
X115873202Y-39857076D01*
X115403549Y-38874452D01*
X114751219Y-38002334D01*
X114507232Y-37783000D01*
X126068511Y-37783000D01*
X125976661Y-37917270D01*
G36*
X173225059Y-38060921D02*
G01*
X173038150Y-38569357D01*
X172984890Y-38822641D01*
X173262187Y-39227439D01*
X175156843Y-39061678D01*
X175345024Y-39249859D01*
X175698580Y-38896303D01*
X175403807Y-38601530D01*
X175332195Y-37783000D01*
X175834105Y-37783000D01*
X175915043Y-38708122D01*
X175726862Y-38896303D01*
X176080418Y-39249859D01*
X176375191Y-38955086D01*
X178119677Y-38802464D01*
X178322469Y-38355663D01*
X178095116Y-37863980D01*
X178036139Y-37783000D01*
X179108086Y-37783000D01*
X179029860Y-37966176D01*
X178979192Y-38207135D01*
X178976507Y-38453348D01*
X179021906Y-38695355D01*
X179099877Y-38889559D01*
X178979175Y-38912202D01*
X178795133Y-38986093D01*
X178629042Y-39094469D01*
X178487286Y-39233166D01*
X178283475Y-39476058D01*
X178163255Y-39300561D01*
X175983559Y-39491260D01*
X176174257Y-41670956D01*
X176621058Y-41873748D01*
X177112741Y-41646395D01*
X177550623Y-41327488D01*
X177898933Y-40949819D01*
X177959148Y-41042102D01*
X170509341Y-48491910D01*
X170589361Y-48089620D01*
X170589361Y-47674380D01*
X170508352Y-47267119D01*
X170349447Y-46883487D01*
X170118752Y-46538228D01*
X169825133Y-46244609D01*
X169479874Y-46013914D01*
X169096242Y-45855009D01*
X168688981Y-45774000D01*
X168273741Y-45774000D01*
X167866480Y-45855009D01*
X167482848Y-46013914D01*
X167383000Y-46080630D01*
X167383000Y-41887698D01*
X167844902Y-41337225D01*
X167956875Y-41173539D01*
X168034764Y-40991153D01*
X168075574Y-40797076D01*
X168076913Y-40674274D01*
X168281708Y-40717338D01*
X168527921Y-40720023D01*
X168769928Y-40674624D01*
X168998428Y-40582883D01*
X169204639Y-40448327D01*
X169380638Y-40276127D01*
X169416179Y-40224362D01*
X169411628Y-40172337D01*
X173102973Y-40172337D01*
X173330326Y-40664020D01*
X173649233Y-41101902D01*
X174047440Y-41469153D01*
X174509642Y-41751662D01*
X175018078Y-41938571D01*
X175271362Y-41991831D01*
X175676160Y-41714534D01*
X175485461Y-39534838D01*
X173305765Y-39725536D01*
X173102973Y-40172337D01*
X169411628Y-40172337D01*
X169377662Y-39784102D01*
X168180717Y-38779746D01*
X168167861Y-38795067D01*
X167784839Y-38473673D01*
X167797695Y-38458352D01*
X167782374Y-38445496D01*
X168103768Y-38062474D01*
X168119089Y-38075330D01*
X168131945Y-38060009D01*
X168514967Y-38381403D01*
X168502111Y-38396724D01*
X169699055Y-39401079D01*
X170139315Y-39362562D01*
X170184123Y-39318571D01*
X170323145Y-39115344D01*
X170419849Y-38888900D01*
X170470517Y-38647941D01*
X170473202Y-38401728D01*
X170427803Y-38159721D01*
X170336062Y-37931221D01*
X170239345Y-37783000D01*
X173394931Y-37783000D01*
X173225059Y-38060921D01*
X173225059Y-38060921D01*
G37*
X173225059Y-38060921D02*
X173038150Y-38569357D01*
X172984890Y-38822641D01*
X173262187Y-39227439D01*
X175156843Y-39061678D01*
X175345024Y-39249859D01*
X175698580Y-38896303D01*
X175403807Y-38601530D01*
X175332195Y-37783000D01*
X175834105Y-37783000D01*
X175915043Y-38708122D01*
X175726862Y-38896303D01*
X176080418Y-39249859D01*
X176375191Y-38955086D01*
X178119677Y-38802464D01*
X178322469Y-38355663D01*
X178095116Y-37863980D01*
X178036139Y-37783000D01*
X179108086Y-37783000D01*
X179029860Y-37966176D01*
X178979192Y-38207135D01*
X178976507Y-38453348D01*
X179021906Y-38695355D01*
X179099877Y-38889559D01*
X178979175Y-38912202D01*
X178795133Y-38986093D01*
X178629042Y-39094469D01*
X178487286Y-39233166D01*
X178283475Y-39476058D01*
X178163255Y-39300561D01*
X175983559Y-39491260D01*
X176174257Y-41670956D01*
X176621058Y-41873748D01*
X177112741Y-41646395D01*
X177550623Y-41327488D01*
X177898933Y-40949819D01*
X177959148Y-41042102D01*
X170509341Y-48491910D01*
X170589361Y-48089620D01*
X170589361Y-47674380D01*
X170508352Y-47267119D01*
X170349447Y-46883487D01*
X170118752Y-46538228D01*
X169825133Y-46244609D01*
X169479874Y-46013914D01*
X169096242Y-45855009D01*
X168688981Y-45774000D01*
X168273741Y-45774000D01*
X167866480Y-45855009D01*
X167482848Y-46013914D01*
X167383000Y-46080630D01*
X167383000Y-41887698D01*
X167844902Y-41337225D01*
X167956875Y-41173539D01*
X168034764Y-40991153D01*
X168075574Y-40797076D01*
X168076913Y-40674274D01*
X168281708Y-40717338D01*
X168527921Y-40720023D01*
X168769928Y-40674624D01*
X168998428Y-40582883D01*
X169204639Y-40448327D01*
X169380638Y-40276127D01*
X169416179Y-40224362D01*
X169411628Y-40172337D01*
X173102973Y-40172337D01*
X173330326Y-40664020D01*
X173649233Y-41101902D01*
X174047440Y-41469153D01*
X174509642Y-41751662D01*
X175018078Y-41938571D01*
X175271362Y-41991831D01*
X175676160Y-41714534D01*
X175485461Y-39534838D01*
X173305765Y-39725536D01*
X173102973Y-40172337D01*
X169411628Y-40172337D01*
X169377662Y-39784102D01*
X168180717Y-38779746D01*
X168167861Y-38795067D01*
X167784839Y-38473673D01*
X167797695Y-38458352D01*
X167782374Y-38445496D01*
X168103768Y-38062474D01*
X168119089Y-38075330D01*
X168131945Y-38060009D01*
X168514967Y-38381403D01*
X168502111Y-38396724D01*
X169699055Y-39401079D01*
X170139315Y-39362562D01*
X170184123Y-39318571D01*
X170323145Y-39115344D01*
X170419849Y-38888900D01*
X170470517Y-38647941D01*
X170473202Y-38401728D01*
X170427803Y-38159721D01*
X170336062Y-37931221D01*
X170239345Y-37783000D01*
X173394931Y-37783000D01*
X173225059Y-38060921D01*
G36*
X198750000Y-41500000D02*
G01*
X198770000Y-41500000D01*
X198770000Y-42000000D01*
X198750000Y-42000000D01*
X198750000Y-43289358D01*
X198701561Y-43278707D01*
X198366758Y-43271978D01*
X198250000Y-43292773D01*
X198250000Y-42000000D01*
X196035642Y-42000000D01*
X196046293Y-41951561D01*
X196053022Y-41616758D01*
X196032227Y-41500000D01*
X198250000Y-41500000D01*
X198250000Y-41480000D01*
X198750000Y-41480000D01*
X198750000Y-41500000D01*
X198750000Y-41500000D01*
G37*
X198750000Y-41500000D02*
X198770000Y-41500000D01*
X198770000Y-42000000D01*
X198750000Y-42000000D01*
X198750000Y-43289358D01*
X198701561Y-43278707D01*
X198366758Y-43271978D01*
X198250000Y-43292773D01*
X198250000Y-42000000D01*
X196035642Y-42000000D01*
X196046293Y-41951561D01*
X196053022Y-41616758D01*
X196032227Y-41500000D01*
X198250000Y-41500000D01*
X198250000Y-41480000D01*
X198750000Y-41480000D01*
X198750000Y-41500000D01*
G36*
X110000000Y-41500000D02*
G01*
X112214358Y-41500000D01*
X112203707Y-41548439D01*
X112196978Y-41883242D01*
X112217773Y-42000000D01*
X110000000Y-42000000D01*
X110000000Y-43289358D01*
X109951561Y-43278707D01*
X109616758Y-43271978D01*
X109500000Y-43292773D01*
X109500000Y-42000000D01*
X109480000Y-42000000D01*
X109480000Y-41500000D01*
X109500000Y-41500000D01*
X109500000Y-41480000D01*
X110000000Y-41480000D01*
X110000000Y-41500000D01*
X110000000Y-41500000D01*
G37*
X110000000Y-41500000D02*
X112214358Y-41500000D01*
X112203707Y-41548439D01*
X112196978Y-41883242D01*
X112217773Y-42000000D01*
X110000000Y-42000000D01*
X110000000Y-43289358D01*
X109951561Y-43278707D01*
X109616758Y-43271978D01*
X109500000Y-43292773D01*
X109500000Y-42000000D01*
X109480000Y-42000000D01*
X109480000Y-41500000D01*
X109500000Y-41500000D01*
X109500000Y-41480000D01*
X110000000Y-41480000D01*
X110000000Y-41500000D01*
G36*
X117273103Y-102301091D02*
G01*
X117345810Y-102437116D01*
X117443657Y-102556343D01*
X117562884Y-102654190D01*
X117698909Y-102726897D01*
X117846505Y-102771670D01*
X117961540Y-102783000D01*
X118000000Y-102786788D01*
X118038460Y-102783000D01*
X121961540Y-102783000D01*
X122000000Y-102786788D01*
X122038460Y-102783000D01*
X122153495Y-102771670D01*
X122301091Y-102726897D01*
X122437116Y-102654190D01*
X122556343Y-102556343D01*
X122654190Y-102437116D01*
X122726897Y-102301091D01*
X122742395Y-102250000D01*
X140257605Y-102250000D01*
X140273103Y-102301091D01*
X140345810Y-102437116D01*
X140443657Y-102556343D01*
X140562884Y-102654190D01*
X140698909Y-102726897D01*
X140846505Y-102771670D01*
X140961540Y-102783000D01*
X141000000Y-102786788D01*
X141038460Y-102783000D01*
X144961540Y-102783000D01*
X145000000Y-102786788D01*
X145038460Y-102783000D01*
X145153495Y-102771670D01*
X145301091Y-102726897D01*
X145437116Y-102654190D01*
X145556343Y-102556343D01*
X145654190Y-102437116D01*
X145726897Y-102301091D01*
X145742395Y-102250000D01*
X162257605Y-102250000D01*
X162273103Y-102301091D01*
X162345810Y-102437116D01*
X162443657Y-102556343D01*
X162562884Y-102654190D01*
X162698909Y-102726897D01*
X162846505Y-102771670D01*
X162961540Y-102783000D01*
X163000000Y-102786788D01*
X163038460Y-102783000D01*
X166961540Y-102783000D01*
X167000000Y-102786788D01*
X167038460Y-102783000D01*
X167153495Y-102771670D01*
X167301091Y-102726897D01*
X167437116Y-102654190D01*
X167556343Y-102556343D01*
X167654190Y-102437116D01*
X167726897Y-102301091D01*
X167742395Y-102250000D01*
X184507605Y-102250000D01*
X184523103Y-102301091D01*
X184595810Y-102437116D01*
X184693657Y-102556343D01*
X184812884Y-102654190D01*
X184948909Y-102726897D01*
X185096505Y-102771670D01*
X185211540Y-102783000D01*
X185250000Y-102786788D01*
X185288460Y-102783000D01*
X189211540Y-102783000D01*
X189250000Y-102786788D01*
X189288460Y-102783000D01*
X189403495Y-102771670D01*
X189551091Y-102726897D01*
X189687116Y-102654190D01*
X189806343Y-102556343D01*
X189904190Y-102437116D01*
X189976897Y-102301091D01*
X189992395Y-102250000D01*
X203217000Y-102250000D01*
X203217000Y-128471573D01*
X202441282Y-127774236D01*
X201504863Y-127218139D01*
X200477948Y-126855414D01*
X200439190Y-126849826D01*
X200774329Y-126731923D01*
X201063530Y-126577341D01*
X201225642Y-126079195D01*
X199500000Y-124353553D01*
X197774358Y-126079195D01*
X197936470Y-126577341D01*
X198192274Y-126700000D01*
X197100000Y-126700000D01*
X196022052Y-126855414D01*
X194995137Y-127218139D01*
X194058718Y-127774236D01*
X193248781Y-128502334D01*
X192596451Y-129374452D01*
X192126798Y-130357076D01*
X191913002Y-131135748D01*
X192118470Y-132000000D01*
X192414358Y-132000000D01*
X192403707Y-132048439D01*
X192396978Y-132383242D01*
X192417773Y-132500000D01*
X192118470Y-132500000D01*
X191913002Y-133364252D01*
X192126798Y-134142924D01*
X192596451Y-135125548D01*
X193248781Y-135997666D01*
X193492768Y-136217000D01*
X177849158Y-136217000D01*
X177979490Y-135708209D01*
X178011632Y-135118135D01*
X177928039Y-134533129D01*
X177731923Y-133975671D01*
X177577341Y-133686470D01*
X177079195Y-133524358D01*
X175353553Y-135250000D01*
X175367696Y-135264143D01*
X175014143Y-135617696D01*
X175000000Y-135603553D01*
X174985858Y-135617696D01*
X174632305Y-135264143D01*
X174646447Y-135250000D01*
X172920805Y-133524358D01*
X172422659Y-133686470D01*
X172167153Y-134219326D01*
X172020510Y-134791791D01*
X171988368Y-135381865D01*
X172071961Y-135966871D01*
X172159957Y-136217000D01*
X156849158Y-136217000D01*
X156979490Y-135708209D01*
X157011632Y-135118135D01*
X156928039Y-134533129D01*
X156731923Y-133975671D01*
X156577341Y-133686470D01*
X156079195Y-133524358D01*
X154353553Y-135250000D01*
X154367696Y-135264143D01*
X154014143Y-135617696D01*
X154000000Y-135603553D01*
X153985858Y-135617696D01*
X153632305Y-135264143D01*
X153646447Y-135250000D01*
X151920805Y-133524358D01*
X151422659Y-133686470D01*
X151167153Y-134219326D01*
X151020510Y-134791791D01*
X150988368Y-135381865D01*
X151071961Y-135966871D01*
X151159957Y-136217000D01*
X135849158Y-136217000D01*
X135979490Y-135708209D01*
X136011632Y-135118135D01*
X135928039Y-134533129D01*
X135731923Y-133975671D01*
X135577341Y-133686470D01*
X135079195Y-133524358D01*
X133353553Y-135250000D01*
X133367696Y-135264143D01*
X133014143Y-135617696D01*
X133000000Y-135603553D01*
X132985858Y-135617696D01*
X132632305Y-135264143D01*
X132646447Y-135250000D01*
X130920805Y-133524358D01*
X130422659Y-133686470D01*
X130167153Y-134219326D01*
X130020510Y-134791791D01*
X129988368Y-135381865D01*
X130071961Y-135966871D01*
X130159957Y-136217000D01*
X114507232Y-136217000D01*
X114751219Y-135997666D01*
X115403549Y-135125548D01*
X115873202Y-134142924D01*
X116086998Y-133364252D01*
X116041008Y-133170805D01*
X131274358Y-133170805D01*
X133000000Y-134896447D01*
X134725642Y-133170805D01*
X152274358Y-133170805D01*
X154000000Y-134896447D01*
X155725642Y-133170805D01*
X173274358Y-133170805D01*
X175000000Y-134896447D01*
X176725642Y-133170805D01*
X176563530Y-132672659D01*
X176030674Y-132417153D01*
X175458209Y-132270510D01*
X174868135Y-132238368D01*
X174283129Y-132321961D01*
X173725671Y-132518077D01*
X173436470Y-132672659D01*
X173274358Y-133170805D01*
X155725642Y-133170805D01*
X155563530Y-132672659D01*
X155030674Y-132417153D01*
X154458209Y-132270510D01*
X153868135Y-132238368D01*
X153283129Y-132321961D01*
X152725671Y-132518077D01*
X152436470Y-132672659D01*
X152274358Y-133170805D01*
X134725642Y-133170805D01*
X134563530Y-132672659D01*
X134030674Y-132417153D01*
X133458209Y-132270510D01*
X132868135Y-132238368D01*
X132283129Y-132321961D01*
X131725671Y-132518077D01*
X131436470Y-132672659D01*
X131274358Y-133170805D01*
X116041008Y-133170805D01*
X115881530Y-132500000D01*
X115585642Y-132500000D01*
X115596293Y-132451561D01*
X115603022Y-132116758D01*
X115582227Y-132000000D01*
X115881530Y-132000000D01*
X116086998Y-131135748D01*
X115873202Y-130357076D01*
X115403549Y-129374452D01*
X114751219Y-128502334D01*
X113941282Y-127774236D01*
X113096835Y-127272757D01*
X130642000Y-127272757D01*
X130642000Y-127737243D01*
X130732617Y-128192803D01*
X130910368Y-128621932D01*
X131168422Y-129008137D01*
X131496863Y-129336578D01*
X131883068Y-129594632D01*
X132312197Y-129772383D01*
X132767757Y-129863000D01*
X133232243Y-129863000D01*
X133687803Y-129772383D01*
X134116932Y-129594632D01*
X134503137Y-129336578D01*
X134831578Y-129008137D01*
X135089632Y-128621932D01*
X135267383Y-128192803D01*
X135358000Y-127737243D01*
X135358000Y-127272757D01*
X151642000Y-127272757D01*
X151642000Y-127737243D01*
X151732617Y-128192803D01*
X151910368Y-128621932D01*
X152168422Y-129008137D01*
X152496863Y-129336578D01*
X152883068Y-129594632D01*
X153312197Y-129772383D01*
X153767757Y-129863000D01*
X154232243Y-129863000D01*
X154687803Y-129772383D01*
X155116932Y-129594632D01*
X155503137Y-129336578D01*
X155831578Y-129008137D01*
X156089632Y-128621932D01*
X156267383Y-128192803D01*
X156358000Y-127737243D01*
X156358000Y-127272757D01*
X172642000Y-127272757D01*
X172642000Y-127737243D01*
X172732617Y-128192803D01*
X172910368Y-128621932D01*
X173168422Y-129008137D01*
X173496863Y-129336578D01*
X173883068Y-129594632D01*
X174312197Y-129772383D01*
X174767757Y-129863000D01*
X175232243Y-129863000D01*
X175687803Y-129772383D01*
X176116932Y-129594632D01*
X176503137Y-129336578D01*
X176831578Y-129008137D01*
X177089632Y-128621932D01*
X177267383Y-128192803D01*
X177358000Y-127737243D01*
X177358000Y-127272757D01*
X177267383Y-126817197D01*
X177089632Y-126388068D01*
X176831578Y-126001863D01*
X176503137Y-125673422D01*
X176116932Y-125415368D01*
X175687803Y-125237617D01*
X175232243Y-125147000D01*
X174767757Y-125147000D01*
X174312197Y-125237617D01*
X173883068Y-125415368D01*
X173496863Y-125673422D01*
X173168422Y-126001863D01*
X172910368Y-126388068D01*
X172732617Y-126817197D01*
X172642000Y-127272757D01*
X156358000Y-127272757D01*
X156267383Y-126817197D01*
X156089632Y-126388068D01*
X155831578Y-126001863D01*
X155503137Y-125673422D01*
X155116932Y-125415368D01*
X154687803Y-125237617D01*
X154232243Y-125147000D01*
X153767757Y-125147000D01*
X153312197Y-125237617D01*
X152883068Y-125415368D01*
X152496863Y-125673422D01*
X152168422Y-126001863D01*
X151910368Y-126388068D01*
X151732617Y-126817197D01*
X151642000Y-127272757D01*
X135358000Y-127272757D01*
X135267383Y-126817197D01*
X135089632Y-126388068D01*
X134831578Y-126001863D01*
X134503137Y-125673422D01*
X134116932Y-125415368D01*
X133687803Y-125237617D01*
X133232243Y-125147000D01*
X132767757Y-125147000D01*
X132312197Y-125237617D01*
X131883068Y-125415368D01*
X131496863Y-125673422D01*
X131168422Y-126001863D01*
X130910368Y-126388068D01*
X130732617Y-126817197D01*
X130642000Y-127272757D01*
X113096835Y-127272757D01*
X113004863Y-127218139D01*
X111977948Y-126855414D01*
X110900000Y-126700000D01*
X110000000Y-126700000D01*
X110000000Y-127339358D01*
X109951561Y-127328707D01*
X109616758Y-127321978D01*
X109500000Y-127342773D01*
X109500000Y-126700000D01*
X108600000Y-126700000D01*
X108201936Y-126757391D01*
X108274329Y-126731923D01*
X108563530Y-126577341D01*
X108725642Y-126079195D01*
X107000000Y-124353553D01*
X105274358Y-126079195D01*
X105436470Y-126577341D01*
X105969326Y-126832847D01*
X106541791Y-126979490D01*
X107086740Y-127009174D01*
X106495137Y-127218139D01*
X105558718Y-127774236D01*
X104783000Y-128471573D01*
X104783000Y-125680796D01*
X104920805Y-125725642D01*
X106646447Y-124000000D01*
X107353553Y-124000000D01*
X109079195Y-125725642D01*
X109577341Y-125563530D01*
X109832847Y-125030674D01*
X109979490Y-124458209D01*
X109997266Y-124131865D01*
X196488368Y-124131865D01*
X196571961Y-124716871D01*
X196768077Y-125274329D01*
X196922659Y-125563530D01*
X197420805Y-125725642D01*
X199146447Y-124000000D01*
X199853553Y-124000000D01*
X201579195Y-125725642D01*
X202077341Y-125563530D01*
X202332847Y-125030674D01*
X202479490Y-124458209D01*
X202511632Y-123868135D01*
X202428039Y-123283129D01*
X202231923Y-122725671D01*
X202077341Y-122436470D01*
X201579195Y-122274358D01*
X199853553Y-124000000D01*
X199146447Y-124000000D01*
X197420805Y-122274358D01*
X196922659Y-122436470D01*
X196667153Y-122969326D01*
X196520510Y-123541791D01*
X196488368Y-124131865D01*
X109997266Y-124131865D01*
X110011632Y-123868135D01*
X109928039Y-123283129D01*
X109731923Y-122725671D01*
X109577341Y-122436470D01*
X109079195Y-122274358D01*
X107353553Y-124000000D01*
X106646447Y-124000000D01*
X104920805Y-122274358D01*
X104783000Y-122319204D01*
X104783000Y-121920805D01*
X105274358Y-121920805D01*
X107000000Y-123646447D01*
X108725642Y-121920805D01*
X197774358Y-121920805D01*
X199500000Y-123646447D01*
X201225642Y-121920805D01*
X201063530Y-121422659D01*
X200530674Y-121167153D01*
X199958209Y-121020510D01*
X199368135Y-120988368D01*
X198783129Y-121071961D01*
X198225671Y-121268077D01*
X197936470Y-121422659D01*
X197774358Y-121920805D01*
X108725642Y-121920805D01*
X108563530Y-121422659D01*
X108030674Y-121167153D01*
X107458209Y-121020510D01*
X106868135Y-120988368D01*
X106283129Y-121071961D01*
X105725671Y-121268077D01*
X105436470Y-121422659D01*
X105274358Y-121920805D01*
X104783000Y-121920805D01*
X104783000Y-117064438D01*
X104910368Y-117371932D01*
X105168422Y-117758137D01*
X105496863Y-118086578D01*
X105883068Y-118344632D01*
X106312197Y-118522383D01*
X106767757Y-118613000D01*
X107232243Y-118613000D01*
X107687803Y-118522383D01*
X108116932Y-118344632D01*
X108503137Y-118086578D01*
X108831578Y-117758137D01*
X109089632Y-117371932D01*
X109267383Y-116942803D01*
X109358000Y-116487243D01*
X109358000Y-116022757D01*
X197142000Y-116022757D01*
X197142000Y-116487243D01*
X197232617Y-116942803D01*
X197410368Y-117371932D01*
X197668422Y-117758137D01*
X197996863Y-118086578D01*
X198383068Y-118344632D01*
X198812197Y-118522383D01*
X199267757Y-118613000D01*
X199732243Y-118613000D01*
X200187803Y-118522383D01*
X200616932Y-118344632D01*
X201003137Y-118086578D01*
X201331578Y-117758137D01*
X201589632Y-117371932D01*
X201767383Y-116942803D01*
X201858000Y-116487243D01*
X201858000Y-116022757D01*
X201767383Y-115567197D01*
X201589632Y-115138068D01*
X201331578Y-114751863D01*
X201003137Y-114423422D01*
X200616932Y-114165368D01*
X200187803Y-113987617D01*
X199732243Y-113897000D01*
X199267757Y-113897000D01*
X198812197Y-113987617D01*
X198383068Y-114165368D01*
X197996863Y-114423422D01*
X197668422Y-114751863D01*
X197410368Y-115138068D01*
X197232617Y-115567197D01*
X197142000Y-116022757D01*
X109358000Y-116022757D01*
X109267383Y-115567197D01*
X109089632Y-115138068D01*
X108831578Y-114751863D01*
X108503137Y-114423422D01*
X108116932Y-114165368D01*
X107687803Y-113987617D01*
X107232243Y-113897000D01*
X106767757Y-113897000D01*
X106312197Y-113987617D01*
X105883068Y-114165368D01*
X105496863Y-114423422D01*
X105168422Y-114751863D01*
X104910368Y-115138068D01*
X104783000Y-115445562D01*
X104783000Y-102250000D01*
X117257605Y-102250000D01*
X117273103Y-102301091D01*
X117273103Y-102301091D01*
G37*
X117273103Y-102301091D02*
X117345810Y-102437116D01*
X117443657Y-102556343D01*
X117562884Y-102654190D01*
X117698909Y-102726897D01*
X117846505Y-102771670D01*
X117961540Y-102783000D01*
X118000000Y-102786788D01*
X118038460Y-102783000D01*
X121961540Y-102783000D01*
X122000000Y-102786788D01*
X122038460Y-102783000D01*
X122153495Y-102771670D01*
X122301091Y-102726897D01*
X122437116Y-102654190D01*
X122556343Y-102556343D01*
X122654190Y-102437116D01*
X122726897Y-102301091D01*
X122742395Y-102250000D01*
X140257605Y-102250000D01*
X140273103Y-102301091D01*
X140345810Y-102437116D01*
X140443657Y-102556343D01*
X140562884Y-102654190D01*
X140698909Y-102726897D01*
X140846505Y-102771670D01*
X140961540Y-102783000D01*
X141000000Y-102786788D01*
X141038460Y-102783000D01*
X144961540Y-102783000D01*
X145000000Y-102786788D01*
X145038460Y-102783000D01*
X145153495Y-102771670D01*
X145301091Y-102726897D01*
X145437116Y-102654190D01*
X145556343Y-102556343D01*
X145654190Y-102437116D01*
X145726897Y-102301091D01*
X145742395Y-102250000D01*
X162257605Y-102250000D01*
X162273103Y-102301091D01*
X162345810Y-102437116D01*
X162443657Y-102556343D01*
X162562884Y-102654190D01*
X162698909Y-102726897D01*
X162846505Y-102771670D01*
X162961540Y-102783000D01*
X163000000Y-102786788D01*
X163038460Y-102783000D01*
X166961540Y-102783000D01*
X167000000Y-102786788D01*
X167038460Y-102783000D01*
X167153495Y-102771670D01*
X167301091Y-102726897D01*
X167437116Y-102654190D01*
X167556343Y-102556343D01*
X167654190Y-102437116D01*
X167726897Y-102301091D01*
X167742395Y-102250000D01*
X184507605Y-102250000D01*
X184523103Y-102301091D01*
X184595810Y-102437116D01*
X184693657Y-102556343D01*
X184812884Y-102654190D01*
X184948909Y-102726897D01*
X185096505Y-102771670D01*
X185211540Y-102783000D01*
X185250000Y-102786788D01*
X185288460Y-102783000D01*
X189211540Y-102783000D01*
X189250000Y-102786788D01*
X189288460Y-102783000D01*
X189403495Y-102771670D01*
X189551091Y-102726897D01*
X189687116Y-102654190D01*
X189806343Y-102556343D01*
X189904190Y-102437116D01*
X189976897Y-102301091D01*
X189992395Y-102250000D01*
X203217000Y-102250000D01*
X203217000Y-128471573D01*
X202441282Y-127774236D01*
X201504863Y-127218139D01*
X200477948Y-126855414D01*
X200439190Y-126849826D01*
X200774329Y-126731923D01*
X201063530Y-126577341D01*
X201225642Y-126079195D01*
X199500000Y-124353553D01*
X197774358Y-126079195D01*
X197936470Y-126577341D01*
X198192274Y-126700000D01*
X197100000Y-126700000D01*
X196022052Y-126855414D01*
X194995137Y-127218139D01*
X194058718Y-127774236D01*
X193248781Y-128502334D01*
X192596451Y-129374452D01*
X192126798Y-130357076D01*
X191913002Y-131135748D01*
X192118470Y-132000000D01*
X192414358Y-132000000D01*
X192403707Y-132048439D01*
X192396978Y-132383242D01*
X192417773Y-132500000D01*
X192118470Y-132500000D01*
X191913002Y-133364252D01*
X192126798Y-134142924D01*
X192596451Y-135125548D01*
X193248781Y-135997666D01*
X193492768Y-136217000D01*
X177849158Y-136217000D01*
X177979490Y-135708209D01*
X178011632Y-135118135D01*
X177928039Y-134533129D01*
X177731923Y-133975671D01*
X177577341Y-133686470D01*
X177079195Y-133524358D01*
X175353553Y-135250000D01*
X175367696Y-135264143D01*
X175014143Y-135617696D01*
X175000000Y-135603553D01*
X174985858Y-135617696D01*
X174632305Y-135264143D01*
X174646447Y-135250000D01*
X172920805Y-133524358D01*
X172422659Y-133686470D01*
X172167153Y-134219326D01*
X172020510Y-134791791D01*
X171988368Y-135381865D01*
X172071961Y-135966871D01*
X172159957Y-136217000D01*
X156849158Y-136217000D01*
X156979490Y-135708209D01*
X157011632Y-135118135D01*
X156928039Y-134533129D01*
X156731923Y-133975671D01*
X156577341Y-133686470D01*
X156079195Y-133524358D01*
X154353553Y-135250000D01*
X154367696Y-135264143D01*
X154014143Y-135617696D01*
X154000000Y-135603553D01*
X153985858Y-135617696D01*
X153632305Y-135264143D01*
X153646447Y-135250000D01*
X151920805Y-133524358D01*
X151422659Y-133686470D01*
X151167153Y-134219326D01*
X151020510Y-134791791D01*
X150988368Y-135381865D01*
X151071961Y-135966871D01*
X151159957Y-136217000D01*
X135849158Y-136217000D01*
X135979490Y-135708209D01*
X136011632Y-135118135D01*
X135928039Y-134533129D01*
X135731923Y-133975671D01*
X135577341Y-133686470D01*
X135079195Y-133524358D01*
X133353553Y-135250000D01*
X133367696Y-135264143D01*
X133014143Y-135617696D01*
X133000000Y-135603553D01*
X132985858Y-135617696D01*
X132632305Y-135264143D01*
X132646447Y-135250000D01*
X130920805Y-133524358D01*
X130422659Y-133686470D01*
X130167153Y-134219326D01*
X130020510Y-134791791D01*
X129988368Y-135381865D01*
X130071961Y-135966871D01*
X130159957Y-136217000D01*
X114507232Y-136217000D01*
X114751219Y-135997666D01*
X115403549Y-135125548D01*
X115873202Y-134142924D01*
X116086998Y-133364252D01*
X116041008Y-133170805D01*
X131274358Y-133170805D01*
X133000000Y-134896447D01*
X134725642Y-133170805D01*
X152274358Y-133170805D01*
X154000000Y-134896447D01*
X155725642Y-133170805D01*
X173274358Y-133170805D01*
X175000000Y-134896447D01*
X176725642Y-133170805D01*
X176563530Y-132672659D01*
X176030674Y-132417153D01*
X175458209Y-132270510D01*
X174868135Y-132238368D01*
X174283129Y-132321961D01*
X173725671Y-132518077D01*
X173436470Y-132672659D01*
X173274358Y-133170805D01*
X155725642Y-133170805D01*
X155563530Y-132672659D01*
X155030674Y-132417153D01*
X154458209Y-132270510D01*
X153868135Y-132238368D01*
X153283129Y-132321961D01*
X152725671Y-132518077D01*
X152436470Y-132672659D01*
X152274358Y-133170805D01*
X134725642Y-133170805D01*
X134563530Y-132672659D01*
X134030674Y-132417153D01*
X133458209Y-132270510D01*
X132868135Y-132238368D01*
X132283129Y-132321961D01*
X131725671Y-132518077D01*
X131436470Y-132672659D01*
X131274358Y-133170805D01*
X116041008Y-133170805D01*
X115881530Y-132500000D01*
X115585642Y-132500000D01*
X115596293Y-132451561D01*
X115603022Y-132116758D01*
X115582227Y-132000000D01*
X115881530Y-132000000D01*
X116086998Y-131135748D01*
X115873202Y-130357076D01*
X115403549Y-129374452D01*
X114751219Y-128502334D01*
X113941282Y-127774236D01*
X113096835Y-127272757D01*
X130642000Y-127272757D01*
X130642000Y-127737243D01*
X130732617Y-128192803D01*
X130910368Y-128621932D01*
X131168422Y-129008137D01*
X131496863Y-129336578D01*
X131883068Y-129594632D01*
X132312197Y-129772383D01*
X132767757Y-129863000D01*
X133232243Y-129863000D01*
X133687803Y-129772383D01*
X134116932Y-129594632D01*
X134503137Y-129336578D01*
X134831578Y-129008137D01*
X135089632Y-128621932D01*
X135267383Y-128192803D01*
X135358000Y-127737243D01*
X135358000Y-127272757D01*
X151642000Y-127272757D01*
X151642000Y-127737243D01*
X151732617Y-128192803D01*
X151910368Y-128621932D01*
X152168422Y-129008137D01*
X152496863Y-129336578D01*
X152883068Y-129594632D01*
X153312197Y-129772383D01*
X153767757Y-129863000D01*
X154232243Y-129863000D01*
X154687803Y-129772383D01*
X155116932Y-129594632D01*
X155503137Y-129336578D01*
X155831578Y-129008137D01*
X156089632Y-128621932D01*
X156267383Y-128192803D01*
X156358000Y-127737243D01*
X156358000Y-127272757D01*
X172642000Y-127272757D01*
X172642000Y-127737243D01*
X172732617Y-128192803D01*
X172910368Y-128621932D01*
X173168422Y-129008137D01*
X173496863Y-129336578D01*
X173883068Y-129594632D01*
X174312197Y-129772383D01*
X174767757Y-129863000D01*
X175232243Y-129863000D01*
X175687803Y-129772383D01*
X176116932Y-129594632D01*
X176503137Y-129336578D01*
X176831578Y-129008137D01*
X177089632Y-128621932D01*
X177267383Y-128192803D01*
X177358000Y-127737243D01*
X177358000Y-127272757D01*
X177267383Y-126817197D01*
X177089632Y-126388068D01*
X176831578Y-126001863D01*
X176503137Y-125673422D01*
X176116932Y-125415368D01*
X175687803Y-125237617D01*
X175232243Y-125147000D01*
X174767757Y-125147000D01*
X174312197Y-125237617D01*
X173883068Y-125415368D01*
X173496863Y-125673422D01*
X173168422Y-126001863D01*
X172910368Y-126388068D01*
X172732617Y-126817197D01*
X172642000Y-127272757D01*
X156358000Y-127272757D01*
X156267383Y-126817197D01*
X156089632Y-126388068D01*
X155831578Y-126001863D01*
X155503137Y-125673422D01*
X155116932Y-125415368D01*
X154687803Y-125237617D01*
X154232243Y-125147000D01*
X153767757Y-125147000D01*
X153312197Y-125237617D01*
X152883068Y-125415368D01*
X152496863Y-125673422D01*
X152168422Y-126001863D01*
X151910368Y-126388068D01*
X151732617Y-126817197D01*
X151642000Y-127272757D01*
X135358000Y-127272757D01*
X135267383Y-126817197D01*
X135089632Y-126388068D01*
X134831578Y-126001863D01*
X134503137Y-125673422D01*
X134116932Y-125415368D01*
X133687803Y-125237617D01*
X133232243Y-125147000D01*
X132767757Y-125147000D01*
X132312197Y-125237617D01*
X131883068Y-125415368D01*
X131496863Y-125673422D01*
X131168422Y-126001863D01*
X130910368Y-126388068D01*
X130732617Y-126817197D01*
X130642000Y-127272757D01*
X113096835Y-127272757D01*
X113004863Y-127218139D01*
X111977948Y-126855414D01*
X110900000Y-126700000D01*
X110000000Y-126700000D01*
X110000000Y-127339358D01*
X109951561Y-127328707D01*
X109616758Y-127321978D01*
X109500000Y-127342773D01*
X109500000Y-126700000D01*
X108600000Y-126700000D01*
X108201936Y-126757391D01*
X108274329Y-126731923D01*
X108563530Y-126577341D01*
X108725642Y-126079195D01*
X107000000Y-124353553D01*
X105274358Y-126079195D01*
X105436470Y-126577341D01*
X105969326Y-126832847D01*
X106541791Y-126979490D01*
X107086740Y-127009174D01*
X106495137Y-127218139D01*
X105558718Y-127774236D01*
X104783000Y-128471573D01*
X104783000Y-125680796D01*
X104920805Y-125725642D01*
X106646447Y-124000000D01*
X107353553Y-124000000D01*
X109079195Y-125725642D01*
X109577341Y-125563530D01*
X109832847Y-125030674D01*
X109979490Y-124458209D01*
X109997266Y-124131865D01*
X196488368Y-124131865D01*
X196571961Y-124716871D01*
X196768077Y-125274329D01*
X196922659Y-125563530D01*
X197420805Y-125725642D01*
X199146447Y-124000000D01*
X199853553Y-124000000D01*
X201579195Y-125725642D01*
X202077341Y-125563530D01*
X202332847Y-125030674D01*
X202479490Y-124458209D01*
X202511632Y-123868135D01*
X202428039Y-123283129D01*
X202231923Y-122725671D01*
X202077341Y-122436470D01*
X201579195Y-122274358D01*
X199853553Y-124000000D01*
X199146447Y-124000000D01*
X197420805Y-122274358D01*
X196922659Y-122436470D01*
X196667153Y-122969326D01*
X196520510Y-123541791D01*
X196488368Y-124131865D01*
X109997266Y-124131865D01*
X110011632Y-123868135D01*
X109928039Y-123283129D01*
X109731923Y-122725671D01*
X109577341Y-122436470D01*
X109079195Y-122274358D01*
X107353553Y-124000000D01*
X106646447Y-124000000D01*
X104920805Y-122274358D01*
X104783000Y-122319204D01*
X104783000Y-121920805D01*
X105274358Y-121920805D01*
X107000000Y-123646447D01*
X108725642Y-121920805D01*
X197774358Y-121920805D01*
X199500000Y-123646447D01*
X201225642Y-121920805D01*
X201063530Y-121422659D01*
X200530674Y-121167153D01*
X199958209Y-121020510D01*
X199368135Y-120988368D01*
X198783129Y-121071961D01*
X198225671Y-121268077D01*
X197936470Y-121422659D01*
X197774358Y-121920805D01*
X108725642Y-121920805D01*
X108563530Y-121422659D01*
X108030674Y-121167153D01*
X107458209Y-121020510D01*
X106868135Y-120988368D01*
X106283129Y-121071961D01*
X105725671Y-121268077D01*
X105436470Y-121422659D01*
X105274358Y-121920805D01*
X104783000Y-121920805D01*
X104783000Y-117064438D01*
X104910368Y-117371932D01*
X105168422Y-117758137D01*
X105496863Y-118086578D01*
X105883068Y-118344632D01*
X106312197Y-118522383D01*
X106767757Y-118613000D01*
X107232243Y-118613000D01*
X107687803Y-118522383D01*
X108116932Y-118344632D01*
X108503137Y-118086578D01*
X108831578Y-117758137D01*
X109089632Y-117371932D01*
X109267383Y-116942803D01*
X109358000Y-116487243D01*
X109358000Y-116022757D01*
X197142000Y-116022757D01*
X197142000Y-116487243D01*
X197232617Y-116942803D01*
X197410368Y-117371932D01*
X197668422Y-117758137D01*
X197996863Y-118086578D01*
X198383068Y-118344632D01*
X198812197Y-118522383D01*
X199267757Y-118613000D01*
X199732243Y-118613000D01*
X200187803Y-118522383D01*
X200616932Y-118344632D01*
X201003137Y-118086578D01*
X201331578Y-117758137D01*
X201589632Y-117371932D01*
X201767383Y-116942803D01*
X201858000Y-116487243D01*
X201858000Y-116022757D01*
X201767383Y-115567197D01*
X201589632Y-115138068D01*
X201331578Y-114751863D01*
X201003137Y-114423422D01*
X200616932Y-114165368D01*
X200187803Y-113987617D01*
X199732243Y-113897000D01*
X199267757Y-113897000D01*
X198812197Y-113987617D01*
X198383068Y-114165368D01*
X197996863Y-114423422D01*
X197668422Y-114751863D01*
X197410368Y-115138068D01*
X197232617Y-115567197D01*
X197142000Y-116022757D01*
X109358000Y-116022757D01*
X109267383Y-115567197D01*
X109089632Y-115138068D01*
X108831578Y-114751863D01*
X108503137Y-114423422D01*
X108116932Y-114165368D01*
X107687803Y-113987617D01*
X107232243Y-113897000D01*
X106767757Y-113897000D01*
X106312197Y-113987617D01*
X105883068Y-114165368D01*
X105496863Y-114423422D01*
X105168422Y-114751863D01*
X104910368Y-115138068D01*
X104783000Y-115445562D01*
X104783000Y-102250000D01*
X117257605Y-102250000D01*
X117273103Y-102301091D01*
G36*
X110000000Y-132000000D02*
G01*
X112214358Y-132000000D01*
X112203707Y-132048439D01*
X112196978Y-132383242D01*
X112217773Y-132500000D01*
X110000000Y-132500000D01*
X110000000Y-132520000D01*
X109500000Y-132520000D01*
X109500000Y-132500000D01*
X109480000Y-132500000D01*
X109480000Y-132000000D01*
X109500000Y-132000000D01*
X109500000Y-130710642D01*
X109548439Y-130721293D01*
X109883242Y-130728022D01*
X110000000Y-130707227D01*
X110000000Y-132000000D01*
X110000000Y-132000000D01*
G37*
X110000000Y-132000000D02*
X112214358Y-132000000D01*
X112203707Y-132048439D01*
X112196978Y-132383242D01*
X112217773Y-132500000D01*
X110000000Y-132500000D01*
X110000000Y-132520000D01*
X109500000Y-132520000D01*
X109500000Y-132500000D01*
X109480000Y-132500000D01*
X109480000Y-132000000D01*
X109500000Y-132000000D01*
X109500000Y-130710642D01*
X109548439Y-130721293D01*
X109883242Y-130728022D01*
X110000000Y-130707227D01*
X110000000Y-132000000D01*
G36*
X198500000Y-132000000D02*
G01*
X198520000Y-132000000D01*
X198520000Y-132500000D01*
X198500000Y-132500000D01*
X198500000Y-132520000D01*
X198000000Y-132520000D01*
X198000000Y-132500000D01*
X195785642Y-132500000D01*
X195796293Y-132451561D01*
X195803022Y-132116758D01*
X195782227Y-132000000D01*
X198000000Y-132000000D01*
X198000000Y-131980000D01*
X198500000Y-131980000D01*
X198500000Y-132000000D01*
X198500000Y-132000000D01*
G37*
X198500000Y-132000000D02*
X198520000Y-132000000D01*
X198520000Y-132500000D01*
X198500000Y-132500000D01*
X198500000Y-132520000D01*
X198000000Y-132520000D01*
X198000000Y-132500000D01*
X195785642Y-132500000D01*
X195796293Y-132451561D01*
X195803022Y-132116758D01*
X195782227Y-132000000D01*
X198000000Y-132000000D01*
X198000000Y-131980000D01*
X198500000Y-131980000D01*
X198500000Y-132000000D01*
M02*
