G04 #@! TF.GenerationSoftware,KiCad,Pcbnew,(5.1.2)-2*
G04 #@! TF.CreationDate,2019-10-08T20:06:51+08:00*
G04 #@! TF.ProjectId,18650 holder,31383635-3020-4686-9f6c-6465722e6b69,rev?*
G04 #@! TF.SameCoordinates,Original*
G04 #@! TF.FileFunction,Profile,NP*
%FSLAX46Y46*%
G04 Gerber Fmt 4.6, Leading zero omitted, Abs format (unit mm)*
G04 Created by KiCad (PCBNEW (5.1.2)-2) date 2019-10-08 20:06:51*
%MOMM*%
%LPD*%
G04 APERTURE LIST*
%ADD10C,0.050000*%
G04 APERTURE END LIST*
D10*
X185250000Y-102000000D02*
X189250000Y-102000000D01*
X185250000Y-67000000D02*
X185250000Y-102000000D01*
X189250000Y-102000000D02*
X189250000Y-67000000D01*
X189250000Y-67000000D02*
X185250000Y-67000000D01*
X163000000Y-102000000D02*
X167000000Y-102000000D01*
X163000000Y-67000000D02*
X163000000Y-102000000D01*
X167000000Y-102000000D02*
X167000000Y-67000000D01*
X167000000Y-67000000D02*
X163000000Y-67000000D01*
X141000000Y-102000000D02*
X145000000Y-102000000D01*
X141000000Y-67000000D02*
X141000000Y-102000000D01*
X145000000Y-102000000D02*
X145000000Y-67000000D01*
X145000000Y-67000000D02*
X141000000Y-67000000D01*
X122000000Y-67000000D02*
X118000000Y-67000000D01*
X122000000Y-102000000D02*
X122000000Y-67000000D01*
X118000000Y-102000000D02*
X122000000Y-102000000D01*
X118000000Y-67000000D02*
X118000000Y-102000000D01*
X104000000Y-137000000D02*
X204000000Y-137000000D01*
X104000000Y-37000000D02*
X104000000Y-137000000D01*
X204000000Y-37000000D02*
X104000000Y-37000000D01*
X204000000Y-137000000D02*
X204000000Y-37000000D01*
M02*
