G04 #@! TF.GenerationSoftware,KiCad,Pcbnew,(5.1.2)-2*
G04 #@! TF.CreationDate,2019-10-08T20:06:50+08:00*
G04 #@! TF.ProjectId,18650 holder,31383635-3020-4686-9f6c-6465722e6b69,rev?*
G04 #@! TF.SameCoordinates,Original*
G04 #@! TF.FileFunction,Legend,Bot*
G04 #@! TF.FilePolarity,Positive*
%FSLAX46Y46*%
G04 Gerber Fmt 4.6, Leading zero omitted, Abs format (unit mm)*
G04 Created by KiCad (PCBNEW (5.1.2)-2) date 2019-10-08 20:06:50*
%MOMM*%
%LPD*%
G04 APERTURE LIST*
%ADD10C,0.500000*%
G04 APERTURE END LIST*
D10*
X182535714Y-107035714D02*
X183535714Y-107035714D01*
X183535714Y-108607142D02*
X183535714Y-105607142D01*
X182107142Y-105607142D01*
X179678571Y-106607142D02*
X179678571Y-108607142D01*
X180964285Y-106607142D02*
X180964285Y-108178571D01*
X180821428Y-108464285D01*
X180535714Y-108607142D01*
X180107142Y-108607142D01*
X179821428Y-108464285D01*
X179678571Y-108321428D01*
X178392857Y-108464285D02*
X178107142Y-108607142D01*
X177535714Y-108607142D01*
X177250000Y-108464285D01*
X177107142Y-108178571D01*
X177107142Y-108035714D01*
X177250000Y-107750000D01*
X177535714Y-107607142D01*
X177964285Y-107607142D01*
X178250000Y-107464285D01*
X178392857Y-107178571D01*
X178392857Y-107035714D01*
X178250000Y-106750000D01*
X177964285Y-106607142D01*
X177535714Y-106607142D01*
X177250000Y-106750000D01*
X174678571Y-108464285D02*
X174964285Y-108607142D01*
X175535714Y-108607142D01*
X175821428Y-108464285D01*
X175964285Y-108178571D01*
X175964285Y-107035714D01*
X175821428Y-106750000D01*
X175535714Y-106607142D01*
X174964285Y-106607142D01*
X174678571Y-106750000D01*
X174535714Y-107035714D01*
X174535714Y-107321428D01*
X175964285Y-107607142D01*
X171964285Y-108607142D02*
X171964285Y-105607142D01*
X171964285Y-108464285D02*
X172250000Y-108607142D01*
X172821428Y-108607142D01*
X173107142Y-108464285D01*
X173250000Y-108321428D01*
X173392857Y-108035714D01*
X173392857Y-107178571D01*
X173250000Y-106892857D01*
X173107142Y-106750000D01*
X172821428Y-106607142D01*
X172250000Y-106607142D01*
X171964285Y-106750000D01*
X166678571Y-108607142D02*
X168392857Y-108607142D01*
X167535714Y-108607142D02*
X167535714Y-105607142D01*
X167821428Y-106035714D01*
X168107142Y-106321428D01*
X168392857Y-106464285D01*
X164964285Y-106892857D02*
X165250000Y-106750000D01*
X165392857Y-106607142D01*
X165535714Y-106321428D01*
X165535714Y-106178571D01*
X165392857Y-105892857D01*
X165250000Y-105750000D01*
X164964285Y-105607142D01*
X164392857Y-105607142D01*
X164107142Y-105750000D01*
X163964285Y-105892857D01*
X163821428Y-106178571D01*
X163821428Y-106321428D01*
X163964285Y-106607142D01*
X164107142Y-106750000D01*
X164392857Y-106892857D01*
X164964285Y-106892857D01*
X165250000Y-107035714D01*
X165392857Y-107178571D01*
X165535714Y-107464285D01*
X165535714Y-108035714D01*
X165392857Y-108321428D01*
X165250000Y-108464285D01*
X164964285Y-108607142D01*
X164392857Y-108607142D01*
X164107142Y-108464285D01*
X163964285Y-108321428D01*
X163821428Y-108035714D01*
X163821428Y-107464285D01*
X163964285Y-107178571D01*
X164107142Y-107035714D01*
X164392857Y-106892857D01*
X161250000Y-105607142D02*
X161821428Y-105607142D01*
X162107142Y-105750000D01*
X162250000Y-105892857D01*
X162535714Y-106321428D01*
X162678571Y-106892857D01*
X162678571Y-108035714D01*
X162535714Y-108321428D01*
X162392857Y-108464285D01*
X162107142Y-108607142D01*
X161535714Y-108607142D01*
X161250000Y-108464285D01*
X161107142Y-108321428D01*
X160964285Y-108035714D01*
X160964285Y-107321428D01*
X161107142Y-107035714D01*
X161250000Y-106892857D01*
X161535714Y-106750000D01*
X162107142Y-106750000D01*
X162392857Y-106892857D01*
X162535714Y-107035714D01*
X162678571Y-107321428D01*
X158250000Y-105607142D02*
X159678571Y-105607142D01*
X159821428Y-107035714D01*
X159678571Y-106892857D01*
X159392857Y-106750000D01*
X158678571Y-106750000D01*
X158392857Y-106892857D01*
X158250000Y-107035714D01*
X158107142Y-107321428D01*
X158107142Y-108035714D01*
X158250000Y-108321428D01*
X158392857Y-108464285D01*
X158678571Y-108607142D01*
X159392857Y-108607142D01*
X159678571Y-108464285D01*
X159821428Y-108321428D01*
X156250000Y-105607142D02*
X155964285Y-105607142D01*
X155678571Y-105750000D01*
X155535714Y-105892857D01*
X155392857Y-106178571D01*
X155250000Y-106750000D01*
X155250000Y-107464285D01*
X155392857Y-108035714D01*
X155535714Y-108321428D01*
X155678571Y-108464285D01*
X155964285Y-108607142D01*
X156250000Y-108607142D01*
X156535714Y-108464285D01*
X156678571Y-108321428D01*
X156821428Y-108035714D01*
X156964285Y-107464285D01*
X156964285Y-106750000D01*
X156821428Y-106178571D01*
X156678571Y-105892857D01*
X156535714Y-105750000D01*
X156250000Y-105607142D01*
X150250000Y-105607142D02*
X151678571Y-105607142D01*
X151821428Y-107035714D01*
X151678571Y-106892857D01*
X151392857Y-106750000D01*
X150678571Y-106750000D01*
X150392857Y-106892857D01*
X150250000Y-107035714D01*
X150107142Y-107321428D01*
X150107142Y-108035714D01*
X150250000Y-108321428D01*
X150392857Y-108464285D01*
X150678571Y-108607142D01*
X151392857Y-108607142D01*
X151678571Y-108464285D01*
X151821428Y-108321428D01*
X148821428Y-108607142D02*
X148821428Y-105607142D01*
X147678571Y-105607142D01*
X147392857Y-105750000D01*
X147250000Y-105892857D01*
X147107142Y-106178571D01*
X147107142Y-106607142D01*
X147250000Y-106892857D01*
X147392857Y-107035714D01*
X147678571Y-107178571D01*
X148821428Y-107178571D01*
X143535714Y-108607142D02*
X143535714Y-105607142D01*
X143535714Y-107035714D02*
X141821428Y-107035714D01*
X141821428Y-108607142D02*
X141821428Y-105607142D01*
X139964285Y-108607142D02*
X140250000Y-108464285D01*
X140392857Y-108321428D01*
X140535714Y-108035714D01*
X140535714Y-107178571D01*
X140392857Y-106892857D01*
X140250000Y-106750000D01*
X139964285Y-106607142D01*
X139535714Y-106607142D01*
X139250000Y-106750000D01*
X139107142Y-106892857D01*
X138964285Y-107178571D01*
X138964285Y-108035714D01*
X139107142Y-108321428D01*
X139250000Y-108464285D01*
X139535714Y-108607142D01*
X139964285Y-108607142D01*
X137250000Y-108607142D02*
X137535714Y-108464285D01*
X137678571Y-108178571D01*
X137678571Y-105607142D01*
X134821428Y-108607142D02*
X134821428Y-105607142D01*
X134821428Y-108464285D02*
X135107142Y-108607142D01*
X135678571Y-108607142D01*
X135964285Y-108464285D01*
X136107142Y-108321428D01*
X136250000Y-108035714D01*
X136250000Y-107178571D01*
X136107142Y-106892857D01*
X135964285Y-106750000D01*
X135678571Y-106607142D01*
X135107142Y-106607142D01*
X134821428Y-106750000D01*
X132250000Y-108464285D02*
X132535714Y-108607142D01*
X133107142Y-108607142D01*
X133392857Y-108464285D01*
X133535714Y-108178571D01*
X133535714Y-107035714D01*
X133392857Y-106750000D01*
X133107142Y-106607142D01*
X132535714Y-106607142D01*
X132250000Y-106750000D01*
X132107142Y-107035714D01*
X132107142Y-107321428D01*
X133535714Y-107607142D01*
X130821428Y-108607142D02*
X130821428Y-106607142D01*
X130821428Y-107178571D02*
X130678571Y-106892857D01*
X130535714Y-106750000D01*
X130250000Y-106607142D01*
X129964285Y-106607142D01*
X126964285Y-106607142D02*
X126250000Y-108607142D01*
X125535714Y-106607142D01*
X122821428Y-108607142D02*
X124535714Y-108607142D01*
X123678571Y-108607142D02*
X123678571Y-105607142D01*
X123964285Y-106035714D01*
X124250000Y-106321428D01*
X124535714Y-106464285D01*
X165964285Y-110607142D02*
X165964285Y-112750000D01*
X166107142Y-113178571D01*
X166392857Y-113464285D01*
X166821428Y-113607142D01*
X167107142Y-113607142D01*
X163250000Y-113607142D02*
X163250000Y-112035714D01*
X163392857Y-111750000D01*
X163678571Y-111607142D01*
X164250000Y-111607142D01*
X164535714Y-111750000D01*
X163250000Y-113464285D02*
X163535714Y-113607142D01*
X164250000Y-113607142D01*
X164535714Y-113464285D01*
X164678571Y-113178571D01*
X164678571Y-112892857D01*
X164535714Y-112607142D01*
X164250000Y-112464285D01*
X163535714Y-112464285D01*
X163250000Y-112321428D01*
X160535714Y-113464285D02*
X160821428Y-113607142D01*
X161392857Y-113607142D01*
X161678571Y-113464285D01*
X161821428Y-113321428D01*
X161964285Y-113035714D01*
X161964285Y-112178571D01*
X161821428Y-111892857D01*
X161678571Y-111750000D01*
X161392857Y-111607142D01*
X160821428Y-111607142D01*
X160535714Y-111750000D01*
X158821428Y-113607142D02*
X159107142Y-113464285D01*
X159250000Y-113321428D01*
X159392857Y-113035714D01*
X159392857Y-112178571D01*
X159250000Y-111892857D01*
X159107142Y-111750000D01*
X158821428Y-111607142D01*
X158392857Y-111607142D01*
X158107142Y-111750000D01*
X157964285Y-111892857D01*
X157821428Y-112178571D01*
X157821428Y-113035714D01*
X157964285Y-113321428D01*
X158107142Y-113464285D01*
X158392857Y-113607142D01*
X158821428Y-113607142D01*
X156535714Y-113607142D02*
X156535714Y-110607142D01*
X156535714Y-111750000D02*
X156250000Y-111607142D01*
X155678571Y-111607142D01*
X155392857Y-111750000D01*
X155250000Y-111892857D01*
X155107142Y-112178571D01*
X155107142Y-113035714D01*
X155250000Y-113321428D01*
X155392857Y-113464285D01*
X155678571Y-113607142D01*
X156250000Y-113607142D01*
X156535714Y-113464285D01*
X150678571Y-110607142D02*
X150678571Y-112750000D01*
X150821428Y-113178571D01*
X151107142Y-113464285D01*
X151535714Y-113607142D01*
X151821428Y-113607142D01*
X147964285Y-113607142D02*
X147964285Y-112035714D01*
X148107142Y-111750000D01*
X148392857Y-111607142D01*
X148964285Y-111607142D01*
X149250000Y-111750000D01*
X147964285Y-113464285D02*
X148250000Y-113607142D01*
X148964285Y-113607142D01*
X149250000Y-113464285D01*
X149392857Y-113178571D01*
X149392857Y-112892857D01*
X149250000Y-112607142D01*
X148964285Y-112464285D01*
X148250000Y-112464285D01*
X147964285Y-112321428D01*
X146535714Y-113607142D02*
X146535714Y-111607142D01*
X146535714Y-112178571D02*
X146392857Y-111892857D01*
X146250000Y-111750000D01*
X145964285Y-111607142D01*
X145678571Y-111607142D01*
X144678571Y-113607142D02*
X144678571Y-111607142D01*
X144678571Y-110607142D02*
X144821428Y-110750000D01*
X144678571Y-110892857D01*
X144535714Y-110750000D01*
X144678571Y-110607142D01*
X144678571Y-110892857D01*
X141964285Y-113464285D02*
X142250000Y-113607142D01*
X142821428Y-113607142D01*
X143107142Y-113464285D01*
X143250000Y-113321428D01*
X143392857Y-113035714D01*
X143392857Y-112178571D01*
X143250000Y-111892857D01*
X143107142Y-111750000D01*
X142821428Y-111607142D01*
X142250000Y-111607142D01*
X141964285Y-111750000D01*
X140678571Y-113607142D02*
X140678571Y-110607142D01*
X140392857Y-112464285D02*
X139535714Y-113607142D01*
X139535714Y-111607142D02*
X140678571Y-112750000D01*
X180750000Y-118607142D02*
X180750000Y-115607142D01*
X179750000Y-117750000D01*
X178750000Y-115607142D01*
X178750000Y-118607142D01*
X176178571Y-118464285D02*
X176464285Y-118607142D01*
X177035714Y-118607142D01*
X177321428Y-118464285D01*
X177464285Y-118178571D01*
X177464285Y-117035714D01*
X177321428Y-116750000D01*
X177035714Y-116607142D01*
X176464285Y-116607142D01*
X176178571Y-116750000D01*
X176035714Y-117035714D01*
X176035714Y-117321428D01*
X177464285Y-117607142D01*
X174750000Y-118607142D02*
X174750000Y-116607142D01*
X174750000Y-116892857D02*
X174607142Y-116750000D01*
X174321428Y-116607142D01*
X173892857Y-116607142D01*
X173607142Y-116750000D01*
X173464285Y-117035714D01*
X173464285Y-118607142D01*
X173464285Y-117035714D02*
X173321428Y-116750000D01*
X173035714Y-116607142D01*
X172607142Y-116607142D01*
X172321428Y-116750000D01*
X172178571Y-117035714D01*
X172178571Y-118607142D01*
X170750000Y-118321428D02*
X170607142Y-118464285D01*
X170750000Y-118607142D01*
X170892857Y-118464285D01*
X170750000Y-118321428D01*
X170750000Y-118607142D01*
X169321428Y-118607142D02*
X169321428Y-115607142D01*
X167607142Y-118607142D01*
X167607142Y-115607142D01*
X164892857Y-118607142D02*
X164892857Y-117035714D01*
X165035714Y-116750000D01*
X165321428Y-116607142D01*
X165892857Y-116607142D01*
X166178571Y-116750000D01*
X164892857Y-118464285D02*
X165178571Y-118607142D01*
X165892857Y-118607142D01*
X166178571Y-118464285D01*
X166321428Y-118178571D01*
X166321428Y-117892857D01*
X166178571Y-117607142D01*
X165892857Y-117464285D01*
X165178571Y-117464285D01*
X164892857Y-117321428D01*
X163464285Y-118607142D02*
X163464285Y-116607142D01*
X163464285Y-116892857D02*
X163321428Y-116750000D01*
X163035714Y-116607142D01*
X162607142Y-116607142D01*
X162321428Y-116750000D01*
X162178571Y-117035714D01*
X162178571Y-118607142D01*
X162178571Y-117035714D02*
X162035714Y-116750000D01*
X161750000Y-116607142D01*
X161321428Y-116607142D01*
X161035714Y-116750000D01*
X160892857Y-117035714D01*
X160892857Y-118607142D01*
X158321428Y-118464285D02*
X158607142Y-118607142D01*
X159178571Y-118607142D01*
X159464285Y-118464285D01*
X159607142Y-118178571D01*
X159607142Y-117035714D01*
X159464285Y-116750000D01*
X159178571Y-116607142D01*
X158607142Y-116607142D01*
X158321428Y-116750000D01*
X158178571Y-117035714D01*
X158178571Y-117321428D01*
X159607142Y-117607142D01*
X157321428Y-116607142D02*
X156178571Y-116607142D01*
X156892857Y-118607142D02*
X156892857Y-116035714D01*
X156750000Y-115750000D01*
X156464285Y-115607142D01*
X156178571Y-115607142D01*
X155178571Y-118607142D02*
X155178571Y-116607142D01*
X155178571Y-115607142D02*
X155321428Y-115750000D01*
X155178571Y-115892857D01*
X155035714Y-115750000D01*
X155178571Y-115607142D01*
X155178571Y-115892857D01*
X154035714Y-118607142D02*
X152464285Y-116607142D01*
X154035714Y-116607142D02*
X152464285Y-118607142D01*
X149464285Y-117178571D02*
X149607142Y-117035714D01*
X149892857Y-116892857D01*
X150178571Y-116892857D01*
X150464285Y-117035714D01*
X150607142Y-117178571D01*
X150750000Y-117464285D01*
X150750000Y-117750000D01*
X150607142Y-118035714D01*
X150464285Y-118178571D01*
X150178571Y-118321428D01*
X149892857Y-118321428D01*
X149607142Y-118178571D01*
X149464285Y-118035714D01*
X149464285Y-116892857D02*
X149464285Y-118035714D01*
X149321428Y-118178571D01*
X149178571Y-118178571D01*
X148892857Y-118035714D01*
X148750000Y-117750000D01*
X148750000Y-117035714D01*
X149035714Y-116607142D01*
X149464285Y-116321428D01*
X150035714Y-116178571D01*
X150607142Y-116321428D01*
X151035714Y-116607142D01*
X151321428Y-117035714D01*
X151464285Y-117607142D01*
X151321428Y-118178571D01*
X151035714Y-118607142D01*
X150607142Y-118892857D01*
X150035714Y-119035714D01*
X149464285Y-118892857D01*
X149035714Y-118607142D01*
X146178571Y-116607142D02*
X146178571Y-119035714D01*
X146321428Y-119321428D01*
X146464285Y-119464285D01*
X146750000Y-119607142D01*
X147178571Y-119607142D01*
X147464285Y-119464285D01*
X146178571Y-118464285D02*
X146464285Y-118607142D01*
X147035714Y-118607142D01*
X147321428Y-118464285D01*
X147464285Y-118321428D01*
X147607142Y-118035714D01*
X147607142Y-117178571D01*
X147464285Y-116892857D01*
X147321428Y-116750000D01*
X147035714Y-116607142D01*
X146464285Y-116607142D01*
X146178571Y-116750000D01*
X144750000Y-118607142D02*
X144750000Y-116607142D01*
X144750000Y-116892857D02*
X144607142Y-116750000D01*
X144321428Y-116607142D01*
X143892857Y-116607142D01*
X143607142Y-116750000D01*
X143464285Y-117035714D01*
X143464285Y-118607142D01*
X143464285Y-117035714D02*
X143321428Y-116750000D01*
X143035714Y-116607142D01*
X142607142Y-116607142D01*
X142321428Y-116750000D01*
X142178571Y-117035714D01*
X142178571Y-118607142D01*
X139464285Y-118607142D02*
X139464285Y-117035714D01*
X139607142Y-116750000D01*
X139892857Y-116607142D01*
X140464285Y-116607142D01*
X140750000Y-116750000D01*
X139464285Y-118464285D02*
X139750000Y-118607142D01*
X140464285Y-118607142D01*
X140750000Y-118464285D01*
X140892857Y-118178571D01*
X140892857Y-117892857D01*
X140750000Y-117607142D01*
X140464285Y-117464285D01*
X139750000Y-117464285D01*
X139464285Y-117321428D01*
X138035714Y-118607142D02*
X138035714Y-116607142D01*
X138035714Y-115607142D02*
X138178571Y-115750000D01*
X138035714Y-115892857D01*
X137892857Y-115750000D01*
X138035714Y-115607142D01*
X138035714Y-115892857D01*
X136178571Y-118607142D02*
X136464285Y-118464285D01*
X136607142Y-118178571D01*
X136607142Y-115607142D01*
X135035714Y-118321428D02*
X134892857Y-118464285D01*
X135035714Y-118607142D01*
X135178571Y-118464285D01*
X135035714Y-118321428D01*
X135035714Y-118607142D01*
X132321428Y-118464285D02*
X132607142Y-118607142D01*
X133178571Y-118607142D01*
X133464285Y-118464285D01*
X133607142Y-118321428D01*
X133750000Y-118035714D01*
X133750000Y-117178571D01*
X133607142Y-116892857D01*
X133464285Y-116750000D01*
X133178571Y-116607142D01*
X132607142Y-116607142D01*
X132321428Y-116750000D01*
X130607142Y-118607142D02*
X130892857Y-118464285D01*
X131035714Y-118321428D01*
X131178571Y-118035714D01*
X131178571Y-117178571D01*
X131035714Y-116892857D01*
X130892857Y-116750000D01*
X130607142Y-116607142D01*
X130178571Y-116607142D01*
X129892857Y-116750000D01*
X129750000Y-116892857D01*
X129607142Y-117178571D01*
X129607142Y-118035714D01*
X129750000Y-118321428D01*
X129892857Y-118464285D01*
X130178571Y-118607142D01*
X130607142Y-118607142D01*
X128321428Y-118607142D02*
X128321428Y-116607142D01*
X128321428Y-116892857D02*
X128178571Y-116750000D01*
X127892857Y-116607142D01*
X127464285Y-116607142D01*
X127178571Y-116750000D01*
X127035714Y-117035714D01*
X127035714Y-118607142D01*
X127035714Y-117035714D02*
X126892857Y-116750000D01*
X126607142Y-116607142D01*
X126178571Y-116607142D01*
X125892857Y-116750000D01*
X125750000Y-117035714D01*
X125750000Y-118607142D01*
M02*
