M48
; DRILL file {KiCad (5.1.2)-2} date 8/10/2019 8:06:52 PM
; FORMAT={-:-/ absolute / inch / decimal}
; #@! TF.CreationDate,2019-10-08T20:06:52+08:00
; #@! TF.GenerationSoftware,Kicad,Pcbnew,(5.1.2)-2
; #@! TF.FileFunction,Plated,1,2,PTH
FMAT,2
INCH
T1C0.0236
T2C0.0512
T3C0.0787
T4C0.1693
%
G90
G05
T1
X4.1575Y-5.2067
X4.1712Y-5.1496
X4.1712Y-5.2638
X4.2059Y-5.1074
X4.2059Y-5.3059
X4.2616Y-5.0826
X4.2616Y-5.3307
X4.3209Y-5.0797
X4.3209Y-5.3337
X4.3801Y-5.0826
X4.3801Y-5.3307
X4.4358Y-5.1074
X4.4358Y-5.3059
X4.4705Y-5.1496
X4.4705Y-5.2638
X4.4843Y-5.2067
X4.1575Y-1.6437
X4.1712Y-1.5866
X4.1712Y-1.7008
X4.2059Y-1.5444
X4.2059Y-1.743
X4.2616Y-1.5196
X4.2616Y-1.7678
X4.3209Y-1.5167
X4.3209Y-1.7707
X4.3801Y-1.5196
X4.3801Y-1.7678
X4.4358Y-1.5444
X4.4358Y-1.743
X4.4705Y-1.5866
X4.4705Y-1.7008
X4.4843Y-1.6437
X7.6516Y-1.6437
X7.6653Y-1.5866
X7.6653Y-1.7008
X7.7Y-1.5444
X7.7Y-1.743
X7.7557Y-1.5196
X7.7557Y-1.7678
X7.815Y-1.5167
X7.815Y-1.7707
X7.8742Y-1.5196
X7.8742Y-1.7678
X7.9299Y-1.5444
X7.9299Y-1.743
X7.9646Y-1.5866
X7.9646Y-1.7008
X7.9783Y-1.6437
X7.6417Y-5.2067
X7.6555Y-5.1496
X7.6555Y-5.2638
X7.6902Y-5.1074
X7.6902Y-5.3059
X7.7459Y-5.0826
X7.7459Y-5.3307
X7.8051Y-5.0797
X7.8051Y-5.3337
X7.8644Y-5.0826
X7.8644Y-5.3307
X7.9201Y-5.1074
X7.9201Y-5.3059
X7.9548Y-5.1496
X7.9548Y-5.2638
X7.9685Y-5.2067
T2
X5.8268Y-2.2244
X6.3962Y-1.5458
X6.8701Y-2.2244
X7.4395Y-1.5458
X4.7835Y-2.2244
X5.3529Y-1.5458
X5.3051Y-2.2244
X5.8745Y-1.5458
X6.3484Y-2.2244
X6.9178Y-1.5458
T3
X5.2362Y-2.4902
X5.2362Y-5.3248
X6.8898Y-2.4902
X6.8898Y-5.3248
X4.2126Y-2.0472
X4.2126Y-4.8819
X7.8543Y-2.0472
X7.8543Y-4.8819
X6.063Y-2.4902
X6.063Y-5.3248
T4
G00X4.3583Y-1.6437
M15
G01X4.2835Y-1.6437
M16
G05
G00X7.8524Y-1.6437
M15
G01X7.7776Y-1.6437
M16
G05
G00X7.8425Y-5.2067
M15
G01X7.7677Y-5.2067
M16
G05
G00X4.3583Y-5.2067
M15
G01X4.2835Y-5.2067
M16
G05
T0
M30
