G04 #@! TF.GenerationSoftware,KiCad,Pcbnew,(5.1.2)-2*
G04 #@! TF.CreationDate,2019-10-08T20:06:50+08:00*
G04 #@! TF.ProjectId,18650 holder,31383635-3020-4686-9f6c-6465722e6b69,rev?*
G04 #@! TF.SameCoordinates,Original*
G04 #@! TF.FileFunction,Copper,L2,Bot*
G04 #@! TF.FilePolarity,Positive*
%FSLAX46Y46*%
G04 Gerber Fmt 4.6, Leading zero omitted, Abs format (unit mm)*
G04 Created by KiCad (PCBNEW (5.1.2)-2) date 2019-10-08 20:06:50*
%MOMM*%
%LPD*%
G04 APERTURE LIST*
%ADD10C,3.000000*%
%ADD11R,3.500000X3.500000*%
%ADD12C,3.500000*%
%ADD13C,0.900000*%
%ADD14O,10.400000X8.600000*%
%ADD15C,5.000000*%
%ADD16C,3.000000*%
%ADD17C,0.254000*%
G04 APERTURE END LIST*
D10*
X188962721Y-39264000D03*
X174500000Y-56500000D03*
X135962721Y-39264000D03*
X121500000Y-56500000D03*
X149212721Y-39264000D03*
X134750000Y-56500000D03*
X162462721Y-39264000D03*
X148000000Y-56500000D03*
X175712721Y-39264000D03*
X161250000Y-56500000D03*
D11*
X199500000Y-52000000D03*
D12*
X199500000Y-124000000D03*
D13*
X194699000Y-43200000D03*
X198500000Y-44975000D03*
X202301000Y-43200000D03*
X202650000Y-41750000D03*
X202301000Y-40300000D03*
X198500000Y-38525000D03*
X194699000Y-40300000D03*
X194350000Y-41750000D03*
X196995000Y-44901000D03*
X195580000Y-44271000D03*
X195580000Y-39229000D03*
X201420000Y-39229000D03*
X201420000Y-44271000D03*
X200005000Y-44901000D03*
X200005000Y-38599000D03*
X196995000Y-38599000D03*
D14*
X198500000Y-41750000D03*
D13*
X194449000Y-133700000D03*
X198250000Y-135475000D03*
X202051000Y-133700000D03*
X202400000Y-132250000D03*
X202051000Y-130800000D03*
X198250000Y-129025000D03*
X194449000Y-130800000D03*
X194100000Y-132250000D03*
X196745000Y-135401000D03*
X195330000Y-134771000D03*
X195330000Y-129729000D03*
X201170000Y-129729000D03*
X201170000Y-134771000D03*
X199755000Y-135401000D03*
X199755000Y-129099000D03*
X196745000Y-129099000D03*
D14*
X198250000Y-132250000D03*
D13*
X105949000Y-133700000D03*
X109750000Y-135475000D03*
X113551000Y-133700000D03*
X113900000Y-132250000D03*
X113551000Y-130800000D03*
X109750000Y-129025000D03*
X105949000Y-130800000D03*
X105600000Y-132250000D03*
X108245000Y-135401000D03*
X106830000Y-134771000D03*
X106830000Y-129729000D03*
X112670000Y-129729000D03*
X112670000Y-134771000D03*
X111255000Y-135401000D03*
X111255000Y-129099000D03*
X108245000Y-129099000D03*
D14*
X109750000Y-132250000D03*
D13*
X105949000Y-43200000D03*
X109750000Y-44975000D03*
X113551000Y-43200000D03*
X113900000Y-41750000D03*
X113551000Y-40300000D03*
X109750000Y-38525000D03*
X105949000Y-40300000D03*
X105600000Y-41750000D03*
X108245000Y-44901000D03*
X106830000Y-44271000D03*
X106830000Y-39229000D03*
X112670000Y-39229000D03*
X112670000Y-44271000D03*
X111255000Y-44901000D03*
X111255000Y-38599000D03*
X108245000Y-38599000D03*
D14*
X109750000Y-41750000D03*
D11*
X107000000Y-52000000D03*
D12*
X107000000Y-124000000D03*
D11*
X133000000Y-63250000D03*
D12*
X133000000Y-135250000D03*
D11*
X154000000Y-63250000D03*
D12*
X154000000Y-135250000D03*
D11*
X175000000Y-63250000D03*
D12*
X175000000Y-135250000D03*
D15*
X167750000Y-63000000D02*
X161250000Y-56500000D01*
X176000000Y-63000000D02*
X167750000Y-63000000D01*
X199500000Y-131000000D02*
X198250000Y-132250000D01*
X199500000Y-124000000D02*
X199500000Y-131000000D01*
X109750000Y-126000000D02*
X107750000Y-124000000D01*
X109750000Y-132250000D02*
X109750000Y-126000000D01*
X154000000Y-62250000D02*
X148250000Y-56500000D01*
X154000000Y-63000000D02*
X154000000Y-62250000D01*
X132000000Y-59500000D02*
X135000000Y-56500000D01*
X132000000Y-63000000D02*
X132000000Y-59500000D01*
X117500000Y-52000000D02*
X122000000Y-56500000D01*
X107750000Y-52000000D02*
X117500000Y-52000000D01*
D16*
X195687396Y-39187396D02*
X198250000Y-41750000D01*
X189027000Y-39187396D02*
X195687396Y-39187396D01*
D15*
X179000000Y-52000000D02*
X174500000Y-56500000D01*
X199500000Y-52000000D02*
X179000000Y-52000000D01*
D17*
G36*
X117349550Y-102129383D02*
G01*
X117387290Y-102253793D01*
X117448575Y-102368450D01*
X117531052Y-102468948D01*
X117631550Y-102551425D01*
X117746207Y-102612710D01*
X117870617Y-102650450D01*
X117967581Y-102660000D01*
X118000000Y-102663193D01*
X118032419Y-102660000D01*
X121967581Y-102660000D01*
X122000000Y-102663193D01*
X122032419Y-102660000D01*
X122129383Y-102650450D01*
X122253793Y-102612710D01*
X122368450Y-102551425D01*
X122468948Y-102468948D01*
X122551425Y-102368450D01*
X122612710Y-102253793D01*
X122650450Y-102129383D01*
X122650685Y-102127000D01*
X140349315Y-102127000D01*
X140349550Y-102129383D01*
X140387290Y-102253793D01*
X140448575Y-102368450D01*
X140531052Y-102468948D01*
X140631550Y-102551425D01*
X140746207Y-102612710D01*
X140870617Y-102650450D01*
X140967581Y-102660000D01*
X141000000Y-102663193D01*
X141032419Y-102660000D01*
X144967581Y-102660000D01*
X145000000Y-102663193D01*
X145032419Y-102660000D01*
X145129383Y-102650450D01*
X145253793Y-102612710D01*
X145368450Y-102551425D01*
X145468948Y-102468948D01*
X145551425Y-102368450D01*
X145612710Y-102253793D01*
X145650450Y-102129383D01*
X145650685Y-102127000D01*
X162349315Y-102127000D01*
X162349550Y-102129383D01*
X162387290Y-102253793D01*
X162448575Y-102368450D01*
X162531052Y-102468948D01*
X162631550Y-102551425D01*
X162746207Y-102612710D01*
X162870617Y-102650450D01*
X162967581Y-102660000D01*
X163000000Y-102663193D01*
X163032419Y-102660000D01*
X166967581Y-102660000D01*
X167000000Y-102663193D01*
X167032419Y-102660000D01*
X167129383Y-102650450D01*
X167253793Y-102612710D01*
X167368450Y-102551425D01*
X167468948Y-102468948D01*
X167551425Y-102368450D01*
X167612710Y-102253793D01*
X167650450Y-102129383D01*
X167650685Y-102127000D01*
X184599315Y-102127000D01*
X184599550Y-102129383D01*
X184637290Y-102253793D01*
X184698575Y-102368450D01*
X184781052Y-102468948D01*
X184881550Y-102551425D01*
X184996207Y-102612710D01*
X185120617Y-102650450D01*
X185217581Y-102660000D01*
X185250000Y-102663193D01*
X185282419Y-102660000D01*
X189217581Y-102660000D01*
X189250000Y-102663193D01*
X189282419Y-102660000D01*
X189379383Y-102650450D01*
X189503793Y-102612710D01*
X189618450Y-102551425D01*
X189718948Y-102468948D01*
X189801425Y-102368450D01*
X189862710Y-102253793D01*
X189900450Y-102129383D01*
X189900685Y-102127000D01*
X203340000Y-102127000D01*
X203340000Y-129646020D01*
X203323859Y-129613858D01*
X202729374Y-128850231D01*
X201997335Y-128217255D01*
X201155875Y-127739255D01*
X200237330Y-127434601D01*
X199277000Y-127315000D01*
X198377000Y-127315000D01*
X198377000Y-127942397D01*
X198165610Y-127938021D01*
X198123000Y-127945584D01*
X198123000Y-127315000D01*
X197223000Y-127315000D01*
X196262670Y-127434601D01*
X195344125Y-127739255D01*
X194502665Y-128217255D01*
X193770626Y-128850231D01*
X193176141Y-129613858D01*
X192742055Y-130478790D01*
X192497239Y-131352815D01*
X192575439Y-132123000D01*
X193017397Y-132123000D01*
X193013021Y-132334390D01*
X193020584Y-132377000D01*
X192575439Y-132377000D01*
X192497239Y-133147185D01*
X192742055Y-134021210D01*
X193176141Y-134886142D01*
X193770626Y-135649769D01*
X194502665Y-136282745D01*
X194603455Y-136340000D01*
X177121358Y-136340000D01*
X177226513Y-136136591D01*
X177356696Y-135685185D01*
X177396313Y-135217054D01*
X177343842Y-134750189D01*
X177201297Y-134302532D01*
X177010766Y-133946073D01*
X176669609Y-133759997D01*
X175179605Y-135250000D01*
X175193748Y-135264142D01*
X175014142Y-135443748D01*
X175000000Y-135429605D01*
X174985858Y-135443748D01*
X174806252Y-135264142D01*
X174820395Y-135250000D01*
X173330391Y-133759997D01*
X172989234Y-133946073D01*
X172773487Y-134363409D01*
X172643304Y-134814815D01*
X172603687Y-135282946D01*
X172656158Y-135749811D01*
X172798703Y-136197468D01*
X172874888Y-136340000D01*
X156121358Y-136340000D01*
X156226513Y-136136591D01*
X156356696Y-135685185D01*
X156396313Y-135217054D01*
X156343842Y-134750189D01*
X156201297Y-134302532D01*
X156010766Y-133946073D01*
X155669609Y-133759997D01*
X154179605Y-135250000D01*
X154193748Y-135264142D01*
X154014142Y-135443748D01*
X154000000Y-135429605D01*
X153985858Y-135443748D01*
X153806252Y-135264142D01*
X153820395Y-135250000D01*
X152330391Y-133759997D01*
X151989234Y-133946073D01*
X151773487Y-134363409D01*
X151643304Y-134814815D01*
X151603687Y-135282946D01*
X151656158Y-135749811D01*
X151798703Y-136197468D01*
X151874888Y-136340000D01*
X135121358Y-136340000D01*
X135226513Y-136136591D01*
X135356696Y-135685185D01*
X135396313Y-135217054D01*
X135343842Y-134750189D01*
X135201297Y-134302532D01*
X135010766Y-133946073D01*
X134669609Y-133759997D01*
X133179605Y-135250000D01*
X133193748Y-135264142D01*
X133014142Y-135443748D01*
X133000000Y-135429605D01*
X132985858Y-135443748D01*
X132806252Y-135264142D01*
X132820395Y-135250000D01*
X131330391Y-133759997D01*
X130989234Y-133946073D01*
X130773487Y-134363409D01*
X130643304Y-134814815D01*
X130603687Y-135282946D01*
X130656158Y-135749811D01*
X130798703Y-136197468D01*
X130874888Y-136340000D01*
X113396545Y-136340000D01*
X113497335Y-136282745D01*
X114229374Y-135649769D01*
X114823859Y-134886142D01*
X115257945Y-134021210D01*
X115381419Y-133580391D01*
X131509997Y-133580391D01*
X133000000Y-135070395D01*
X134490003Y-133580391D01*
X152509997Y-133580391D01*
X154000000Y-135070395D01*
X155490003Y-133580391D01*
X173509997Y-133580391D01*
X175000000Y-135070395D01*
X176490003Y-133580391D01*
X176303927Y-133239234D01*
X175886591Y-133023487D01*
X175435185Y-132893304D01*
X174967054Y-132853687D01*
X174500189Y-132906158D01*
X174052532Y-133048703D01*
X173696073Y-133239234D01*
X173509997Y-133580391D01*
X155490003Y-133580391D01*
X155303927Y-133239234D01*
X154886591Y-133023487D01*
X154435185Y-132893304D01*
X153967054Y-132853687D01*
X153500189Y-132906158D01*
X153052532Y-133048703D01*
X152696073Y-133239234D01*
X152509997Y-133580391D01*
X134490003Y-133580391D01*
X134303927Y-133239234D01*
X133886591Y-133023487D01*
X133435185Y-132893304D01*
X132967054Y-132853687D01*
X132500189Y-132906158D01*
X132052532Y-133048703D01*
X131696073Y-133239234D01*
X131509997Y-133580391D01*
X115381419Y-133580391D01*
X115502761Y-133147185D01*
X115424561Y-132377000D01*
X114982603Y-132377000D01*
X114986979Y-132165610D01*
X114979416Y-132123000D01*
X115424561Y-132123000D01*
X115502761Y-131352815D01*
X115257945Y-130478790D01*
X114823859Y-129613858D01*
X114229374Y-128850231D01*
X113497335Y-128217255D01*
X112655875Y-127739255D01*
X111737330Y-127434601D01*
X110777000Y-127315000D01*
X109877000Y-127315000D01*
X109877000Y-127942397D01*
X109665610Y-127938021D01*
X109623000Y-127945584D01*
X109623000Y-127315000D01*
X108723000Y-127315000D01*
X107762670Y-127434601D01*
X106844125Y-127739255D01*
X106002665Y-128217255D01*
X105270626Y-128850231D01*
X104676141Y-129613858D01*
X104660000Y-129646020D01*
X104660000Y-127284872D01*
X130765000Y-127284872D01*
X130765000Y-127725128D01*
X130850890Y-128156925D01*
X131019369Y-128563669D01*
X131263962Y-128929729D01*
X131575271Y-129241038D01*
X131941331Y-129485631D01*
X132348075Y-129654110D01*
X132779872Y-129740000D01*
X133220128Y-129740000D01*
X133651925Y-129654110D01*
X134058669Y-129485631D01*
X134424729Y-129241038D01*
X134736038Y-128929729D01*
X134980631Y-128563669D01*
X135149110Y-128156925D01*
X135235000Y-127725128D01*
X135235000Y-127284872D01*
X151765000Y-127284872D01*
X151765000Y-127725128D01*
X151850890Y-128156925D01*
X152019369Y-128563669D01*
X152263962Y-128929729D01*
X152575271Y-129241038D01*
X152941331Y-129485631D01*
X153348075Y-129654110D01*
X153779872Y-129740000D01*
X154220128Y-129740000D01*
X154651925Y-129654110D01*
X155058669Y-129485631D01*
X155424729Y-129241038D01*
X155736038Y-128929729D01*
X155980631Y-128563669D01*
X156149110Y-128156925D01*
X156235000Y-127725128D01*
X156235000Y-127284872D01*
X172765000Y-127284872D01*
X172765000Y-127725128D01*
X172850890Y-128156925D01*
X173019369Y-128563669D01*
X173263962Y-128929729D01*
X173575271Y-129241038D01*
X173941331Y-129485631D01*
X174348075Y-129654110D01*
X174779872Y-129740000D01*
X175220128Y-129740000D01*
X175651925Y-129654110D01*
X176058669Y-129485631D01*
X176424729Y-129241038D01*
X176736038Y-128929729D01*
X176980631Y-128563669D01*
X177149110Y-128156925D01*
X177235000Y-127725128D01*
X177235000Y-127284872D01*
X177149110Y-126853075D01*
X176980631Y-126446331D01*
X176736038Y-126080271D01*
X176424729Y-125768962D01*
X176276037Y-125669609D01*
X198009997Y-125669609D01*
X198196073Y-126010766D01*
X198613409Y-126226513D01*
X199064815Y-126356696D01*
X199532946Y-126396313D01*
X199999811Y-126343842D01*
X200447468Y-126201297D01*
X200803927Y-126010766D01*
X200990003Y-125669609D01*
X199500000Y-124179605D01*
X198009997Y-125669609D01*
X176276037Y-125669609D01*
X176058669Y-125524369D01*
X175651925Y-125355890D01*
X175220128Y-125270000D01*
X174779872Y-125270000D01*
X174348075Y-125355890D01*
X173941331Y-125524369D01*
X173575271Y-125768962D01*
X173263962Y-126080271D01*
X173019369Y-126446331D01*
X172850890Y-126853075D01*
X172765000Y-127284872D01*
X156235000Y-127284872D01*
X156149110Y-126853075D01*
X155980631Y-126446331D01*
X155736038Y-126080271D01*
X155424729Y-125768962D01*
X155058669Y-125524369D01*
X154651925Y-125355890D01*
X154220128Y-125270000D01*
X153779872Y-125270000D01*
X153348075Y-125355890D01*
X152941331Y-125524369D01*
X152575271Y-125768962D01*
X152263962Y-126080271D01*
X152019369Y-126446331D01*
X151850890Y-126853075D01*
X151765000Y-127284872D01*
X135235000Y-127284872D01*
X135149110Y-126853075D01*
X134980631Y-126446331D01*
X134736038Y-126080271D01*
X134424729Y-125768962D01*
X134058669Y-125524369D01*
X133651925Y-125355890D01*
X133220128Y-125270000D01*
X132779872Y-125270000D01*
X132348075Y-125355890D01*
X131941331Y-125524369D01*
X131575271Y-125768962D01*
X131263962Y-126080271D01*
X131019369Y-126446331D01*
X130850890Y-126853075D01*
X130765000Y-127284872D01*
X104660000Y-127284872D01*
X104660000Y-125669609D01*
X105509997Y-125669609D01*
X105696073Y-126010766D01*
X106113409Y-126226513D01*
X106564815Y-126356696D01*
X107032946Y-126396313D01*
X107499811Y-126343842D01*
X107947468Y-126201297D01*
X108303927Y-126010766D01*
X108490003Y-125669609D01*
X107000000Y-124179605D01*
X105509997Y-125669609D01*
X104660000Y-125669609D01*
X104660000Y-124511877D01*
X104798703Y-124947468D01*
X104989234Y-125303927D01*
X105330391Y-125490003D01*
X106820395Y-124000000D01*
X107179605Y-124000000D01*
X108669609Y-125490003D01*
X109010766Y-125303927D01*
X109226513Y-124886591D01*
X109356696Y-124435185D01*
X109390736Y-124032946D01*
X197103687Y-124032946D01*
X197156158Y-124499811D01*
X197298703Y-124947468D01*
X197489234Y-125303927D01*
X197830391Y-125490003D01*
X199320395Y-124000000D01*
X199679605Y-124000000D01*
X201169609Y-125490003D01*
X201510766Y-125303927D01*
X201726513Y-124886591D01*
X201856696Y-124435185D01*
X201896313Y-123967054D01*
X201843842Y-123500189D01*
X201701297Y-123052532D01*
X201510766Y-122696073D01*
X201169609Y-122509997D01*
X199679605Y-124000000D01*
X199320395Y-124000000D01*
X197830391Y-122509997D01*
X197489234Y-122696073D01*
X197273487Y-123113409D01*
X197143304Y-123564815D01*
X197103687Y-124032946D01*
X109390736Y-124032946D01*
X109396313Y-123967054D01*
X109343842Y-123500189D01*
X109201297Y-123052532D01*
X109010766Y-122696073D01*
X108669609Y-122509997D01*
X107179605Y-124000000D01*
X106820395Y-124000000D01*
X105330391Y-122509997D01*
X104989234Y-122696073D01*
X104773487Y-123113409D01*
X104660000Y-123506922D01*
X104660000Y-122330391D01*
X105509997Y-122330391D01*
X107000000Y-123820395D01*
X108490003Y-122330391D01*
X198009997Y-122330391D01*
X199500000Y-123820395D01*
X200990003Y-122330391D01*
X200803927Y-121989234D01*
X200386591Y-121773487D01*
X199935185Y-121643304D01*
X199467054Y-121603687D01*
X199000189Y-121656158D01*
X198552532Y-121798703D01*
X198196073Y-121989234D01*
X198009997Y-122330391D01*
X108490003Y-122330391D01*
X108303927Y-121989234D01*
X107886591Y-121773487D01*
X107435185Y-121643304D01*
X106967054Y-121603687D01*
X106500189Y-121656158D01*
X106052532Y-121798703D01*
X105696073Y-121989234D01*
X105509997Y-122330391D01*
X104660000Y-122330391D01*
X104660000Y-116034872D01*
X104765000Y-116034872D01*
X104765000Y-116475128D01*
X104850890Y-116906925D01*
X105019369Y-117313669D01*
X105263962Y-117679729D01*
X105575271Y-117991038D01*
X105941331Y-118235631D01*
X106348075Y-118404110D01*
X106779872Y-118490000D01*
X107220128Y-118490000D01*
X107651925Y-118404110D01*
X108058669Y-118235631D01*
X108424729Y-117991038D01*
X108736038Y-117679729D01*
X108980631Y-117313669D01*
X109149110Y-116906925D01*
X109235000Y-116475128D01*
X109235000Y-116034872D01*
X197265000Y-116034872D01*
X197265000Y-116475128D01*
X197350890Y-116906925D01*
X197519369Y-117313669D01*
X197763962Y-117679729D01*
X198075271Y-117991038D01*
X198441331Y-118235631D01*
X198848075Y-118404110D01*
X199279872Y-118490000D01*
X199720128Y-118490000D01*
X200151925Y-118404110D01*
X200558669Y-118235631D01*
X200924729Y-117991038D01*
X201236038Y-117679729D01*
X201480631Y-117313669D01*
X201649110Y-116906925D01*
X201735000Y-116475128D01*
X201735000Y-116034872D01*
X201649110Y-115603075D01*
X201480631Y-115196331D01*
X201236038Y-114830271D01*
X200924729Y-114518962D01*
X200558669Y-114274369D01*
X200151925Y-114105890D01*
X199720128Y-114020000D01*
X199279872Y-114020000D01*
X198848075Y-114105890D01*
X198441331Y-114274369D01*
X198075271Y-114518962D01*
X197763962Y-114830271D01*
X197519369Y-115196331D01*
X197350890Y-115603075D01*
X197265000Y-116034872D01*
X109235000Y-116034872D01*
X109149110Y-115603075D01*
X108980631Y-115196331D01*
X108736038Y-114830271D01*
X108424729Y-114518962D01*
X108058669Y-114274369D01*
X107651925Y-114105890D01*
X107220128Y-114020000D01*
X106779872Y-114020000D01*
X106348075Y-114105890D01*
X105941331Y-114274369D01*
X105575271Y-114518962D01*
X105263962Y-114830271D01*
X105019369Y-115196331D01*
X104850890Y-115603075D01*
X104765000Y-116034872D01*
X104660000Y-116034872D01*
X104660000Y-102127000D01*
X117349315Y-102127000D01*
X117349550Y-102129383D01*
X117349550Y-102129383D01*
G37*
X117349550Y-102129383D02*
X117387290Y-102253793D01*
X117448575Y-102368450D01*
X117531052Y-102468948D01*
X117631550Y-102551425D01*
X117746207Y-102612710D01*
X117870617Y-102650450D01*
X117967581Y-102660000D01*
X118000000Y-102663193D01*
X118032419Y-102660000D01*
X121967581Y-102660000D01*
X122000000Y-102663193D01*
X122032419Y-102660000D01*
X122129383Y-102650450D01*
X122253793Y-102612710D01*
X122368450Y-102551425D01*
X122468948Y-102468948D01*
X122551425Y-102368450D01*
X122612710Y-102253793D01*
X122650450Y-102129383D01*
X122650685Y-102127000D01*
X140349315Y-102127000D01*
X140349550Y-102129383D01*
X140387290Y-102253793D01*
X140448575Y-102368450D01*
X140531052Y-102468948D01*
X140631550Y-102551425D01*
X140746207Y-102612710D01*
X140870617Y-102650450D01*
X140967581Y-102660000D01*
X141000000Y-102663193D01*
X141032419Y-102660000D01*
X144967581Y-102660000D01*
X145000000Y-102663193D01*
X145032419Y-102660000D01*
X145129383Y-102650450D01*
X145253793Y-102612710D01*
X145368450Y-102551425D01*
X145468948Y-102468948D01*
X145551425Y-102368450D01*
X145612710Y-102253793D01*
X145650450Y-102129383D01*
X145650685Y-102127000D01*
X162349315Y-102127000D01*
X162349550Y-102129383D01*
X162387290Y-102253793D01*
X162448575Y-102368450D01*
X162531052Y-102468948D01*
X162631550Y-102551425D01*
X162746207Y-102612710D01*
X162870617Y-102650450D01*
X162967581Y-102660000D01*
X163000000Y-102663193D01*
X163032419Y-102660000D01*
X166967581Y-102660000D01*
X167000000Y-102663193D01*
X167032419Y-102660000D01*
X167129383Y-102650450D01*
X167253793Y-102612710D01*
X167368450Y-102551425D01*
X167468948Y-102468948D01*
X167551425Y-102368450D01*
X167612710Y-102253793D01*
X167650450Y-102129383D01*
X167650685Y-102127000D01*
X184599315Y-102127000D01*
X184599550Y-102129383D01*
X184637290Y-102253793D01*
X184698575Y-102368450D01*
X184781052Y-102468948D01*
X184881550Y-102551425D01*
X184996207Y-102612710D01*
X185120617Y-102650450D01*
X185217581Y-102660000D01*
X185250000Y-102663193D01*
X185282419Y-102660000D01*
X189217581Y-102660000D01*
X189250000Y-102663193D01*
X189282419Y-102660000D01*
X189379383Y-102650450D01*
X189503793Y-102612710D01*
X189618450Y-102551425D01*
X189718948Y-102468948D01*
X189801425Y-102368450D01*
X189862710Y-102253793D01*
X189900450Y-102129383D01*
X189900685Y-102127000D01*
X203340000Y-102127000D01*
X203340000Y-129646020D01*
X203323859Y-129613858D01*
X202729374Y-128850231D01*
X201997335Y-128217255D01*
X201155875Y-127739255D01*
X200237330Y-127434601D01*
X199277000Y-127315000D01*
X198377000Y-127315000D01*
X198377000Y-127942397D01*
X198165610Y-127938021D01*
X198123000Y-127945584D01*
X198123000Y-127315000D01*
X197223000Y-127315000D01*
X196262670Y-127434601D01*
X195344125Y-127739255D01*
X194502665Y-128217255D01*
X193770626Y-128850231D01*
X193176141Y-129613858D01*
X192742055Y-130478790D01*
X192497239Y-131352815D01*
X192575439Y-132123000D01*
X193017397Y-132123000D01*
X193013021Y-132334390D01*
X193020584Y-132377000D01*
X192575439Y-132377000D01*
X192497239Y-133147185D01*
X192742055Y-134021210D01*
X193176141Y-134886142D01*
X193770626Y-135649769D01*
X194502665Y-136282745D01*
X194603455Y-136340000D01*
X177121358Y-136340000D01*
X177226513Y-136136591D01*
X177356696Y-135685185D01*
X177396313Y-135217054D01*
X177343842Y-134750189D01*
X177201297Y-134302532D01*
X177010766Y-133946073D01*
X176669609Y-133759997D01*
X175179605Y-135250000D01*
X175193748Y-135264142D01*
X175014142Y-135443748D01*
X175000000Y-135429605D01*
X174985858Y-135443748D01*
X174806252Y-135264142D01*
X174820395Y-135250000D01*
X173330391Y-133759997D01*
X172989234Y-133946073D01*
X172773487Y-134363409D01*
X172643304Y-134814815D01*
X172603687Y-135282946D01*
X172656158Y-135749811D01*
X172798703Y-136197468D01*
X172874888Y-136340000D01*
X156121358Y-136340000D01*
X156226513Y-136136591D01*
X156356696Y-135685185D01*
X156396313Y-135217054D01*
X156343842Y-134750189D01*
X156201297Y-134302532D01*
X156010766Y-133946073D01*
X155669609Y-133759997D01*
X154179605Y-135250000D01*
X154193748Y-135264142D01*
X154014142Y-135443748D01*
X154000000Y-135429605D01*
X153985858Y-135443748D01*
X153806252Y-135264142D01*
X153820395Y-135250000D01*
X152330391Y-133759997D01*
X151989234Y-133946073D01*
X151773487Y-134363409D01*
X151643304Y-134814815D01*
X151603687Y-135282946D01*
X151656158Y-135749811D01*
X151798703Y-136197468D01*
X151874888Y-136340000D01*
X135121358Y-136340000D01*
X135226513Y-136136591D01*
X135356696Y-135685185D01*
X135396313Y-135217054D01*
X135343842Y-134750189D01*
X135201297Y-134302532D01*
X135010766Y-133946073D01*
X134669609Y-133759997D01*
X133179605Y-135250000D01*
X133193748Y-135264142D01*
X133014142Y-135443748D01*
X133000000Y-135429605D01*
X132985858Y-135443748D01*
X132806252Y-135264142D01*
X132820395Y-135250000D01*
X131330391Y-133759997D01*
X130989234Y-133946073D01*
X130773487Y-134363409D01*
X130643304Y-134814815D01*
X130603687Y-135282946D01*
X130656158Y-135749811D01*
X130798703Y-136197468D01*
X130874888Y-136340000D01*
X113396545Y-136340000D01*
X113497335Y-136282745D01*
X114229374Y-135649769D01*
X114823859Y-134886142D01*
X115257945Y-134021210D01*
X115381419Y-133580391D01*
X131509997Y-133580391D01*
X133000000Y-135070395D01*
X134490003Y-133580391D01*
X152509997Y-133580391D01*
X154000000Y-135070395D01*
X155490003Y-133580391D01*
X173509997Y-133580391D01*
X175000000Y-135070395D01*
X176490003Y-133580391D01*
X176303927Y-133239234D01*
X175886591Y-133023487D01*
X175435185Y-132893304D01*
X174967054Y-132853687D01*
X174500189Y-132906158D01*
X174052532Y-133048703D01*
X173696073Y-133239234D01*
X173509997Y-133580391D01*
X155490003Y-133580391D01*
X155303927Y-133239234D01*
X154886591Y-133023487D01*
X154435185Y-132893304D01*
X153967054Y-132853687D01*
X153500189Y-132906158D01*
X153052532Y-133048703D01*
X152696073Y-133239234D01*
X152509997Y-133580391D01*
X134490003Y-133580391D01*
X134303927Y-133239234D01*
X133886591Y-133023487D01*
X133435185Y-132893304D01*
X132967054Y-132853687D01*
X132500189Y-132906158D01*
X132052532Y-133048703D01*
X131696073Y-133239234D01*
X131509997Y-133580391D01*
X115381419Y-133580391D01*
X115502761Y-133147185D01*
X115424561Y-132377000D01*
X114982603Y-132377000D01*
X114986979Y-132165610D01*
X114979416Y-132123000D01*
X115424561Y-132123000D01*
X115502761Y-131352815D01*
X115257945Y-130478790D01*
X114823859Y-129613858D01*
X114229374Y-128850231D01*
X113497335Y-128217255D01*
X112655875Y-127739255D01*
X111737330Y-127434601D01*
X110777000Y-127315000D01*
X109877000Y-127315000D01*
X109877000Y-127942397D01*
X109665610Y-127938021D01*
X109623000Y-127945584D01*
X109623000Y-127315000D01*
X108723000Y-127315000D01*
X107762670Y-127434601D01*
X106844125Y-127739255D01*
X106002665Y-128217255D01*
X105270626Y-128850231D01*
X104676141Y-129613858D01*
X104660000Y-129646020D01*
X104660000Y-127284872D01*
X130765000Y-127284872D01*
X130765000Y-127725128D01*
X130850890Y-128156925D01*
X131019369Y-128563669D01*
X131263962Y-128929729D01*
X131575271Y-129241038D01*
X131941331Y-129485631D01*
X132348075Y-129654110D01*
X132779872Y-129740000D01*
X133220128Y-129740000D01*
X133651925Y-129654110D01*
X134058669Y-129485631D01*
X134424729Y-129241038D01*
X134736038Y-128929729D01*
X134980631Y-128563669D01*
X135149110Y-128156925D01*
X135235000Y-127725128D01*
X135235000Y-127284872D01*
X151765000Y-127284872D01*
X151765000Y-127725128D01*
X151850890Y-128156925D01*
X152019369Y-128563669D01*
X152263962Y-128929729D01*
X152575271Y-129241038D01*
X152941331Y-129485631D01*
X153348075Y-129654110D01*
X153779872Y-129740000D01*
X154220128Y-129740000D01*
X154651925Y-129654110D01*
X155058669Y-129485631D01*
X155424729Y-129241038D01*
X155736038Y-128929729D01*
X155980631Y-128563669D01*
X156149110Y-128156925D01*
X156235000Y-127725128D01*
X156235000Y-127284872D01*
X172765000Y-127284872D01*
X172765000Y-127725128D01*
X172850890Y-128156925D01*
X173019369Y-128563669D01*
X173263962Y-128929729D01*
X173575271Y-129241038D01*
X173941331Y-129485631D01*
X174348075Y-129654110D01*
X174779872Y-129740000D01*
X175220128Y-129740000D01*
X175651925Y-129654110D01*
X176058669Y-129485631D01*
X176424729Y-129241038D01*
X176736038Y-128929729D01*
X176980631Y-128563669D01*
X177149110Y-128156925D01*
X177235000Y-127725128D01*
X177235000Y-127284872D01*
X177149110Y-126853075D01*
X176980631Y-126446331D01*
X176736038Y-126080271D01*
X176424729Y-125768962D01*
X176276037Y-125669609D01*
X198009997Y-125669609D01*
X198196073Y-126010766D01*
X198613409Y-126226513D01*
X199064815Y-126356696D01*
X199532946Y-126396313D01*
X199999811Y-126343842D01*
X200447468Y-126201297D01*
X200803927Y-126010766D01*
X200990003Y-125669609D01*
X199500000Y-124179605D01*
X198009997Y-125669609D01*
X176276037Y-125669609D01*
X176058669Y-125524369D01*
X175651925Y-125355890D01*
X175220128Y-125270000D01*
X174779872Y-125270000D01*
X174348075Y-125355890D01*
X173941331Y-125524369D01*
X173575271Y-125768962D01*
X173263962Y-126080271D01*
X173019369Y-126446331D01*
X172850890Y-126853075D01*
X172765000Y-127284872D01*
X156235000Y-127284872D01*
X156149110Y-126853075D01*
X155980631Y-126446331D01*
X155736038Y-126080271D01*
X155424729Y-125768962D01*
X155058669Y-125524369D01*
X154651925Y-125355890D01*
X154220128Y-125270000D01*
X153779872Y-125270000D01*
X153348075Y-125355890D01*
X152941331Y-125524369D01*
X152575271Y-125768962D01*
X152263962Y-126080271D01*
X152019369Y-126446331D01*
X151850890Y-126853075D01*
X151765000Y-127284872D01*
X135235000Y-127284872D01*
X135149110Y-126853075D01*
X134980631Y-126446331D01*
X134736038Y-126080271D01*
X134424729Y-125768962D01*
X134058669Y-125524369D01*
X133651925Y-125355890D01*
X133220128Y-125270000D01*
X132779872Y-125270000D01*
X132348075Y-125355890D01*
X131941331Y-125524369D01*
X131575271Y-125768962D01*
X131263962Y-126080271D01*
X131019369Y-126446331D01*
X130850890Y-126853075D01*
X130765000Y-127284872D01*
X104660000Y-127284872D01*
X104660000Y-125669609D01*
X105509997Y-125669609D01*
X105696073Y-126010766D01*
X106113409Y-126226513D01*
X106564815Y-126356696D01*
X107032946Y-126396313D01*
X107499811Y-126343842D01*
X107947468Y-126201297D01*
X108303927Y-126010766D01*
X108490003Y-125669609D01*
X107000000Y-124179605D01*
X105509997Y-125669609D01*
X104660000Y-125669609D01*
X104660000Y-124511877D01*
X104798703Y-124947468D01*
X104989234Y-125303927D01*
X105330391Y-125490003D01*
X106820395Y-124000000D01*
X107179605Y-124000000D01*
X108669609Y-125490003D01*
X109010766Y-125303927D01*
X109226513Y-124886591D01*
X109356696Y-124435185D01*
X109390736Y-124032946D01*
X197103687Y-124032946D01*
X197156158Y-124499811D01*
X197298703Y-124947468D01*
X197489234Y-125303927D01*
X197830391Y-125490003D01*
X199320395Y-124000000D01*
X199679605Y-124000000D01*
X201169609Y-125490003D01*
X201510766Y-125303927D01*
X201726513Y-124886591D01*
X201856696Y-124435185D01*
X201896313Y-123967054D01*
X201843842Y-123500189D01*
X201701297Y-123052532D01*
X201510766Y-122696073D01*
X201169609Y-122509997D01*
X199679605Y-124000000D01*
X199320395Y-124000000D01*
X197830391Y-122509997D01*
X197489234Y-122696073D01*
X197273487Y-123113409D01*
X197143304Y-123564815D01*
X197103687Y-124032946D01*
X109390736Y-124032946D01*
X109396313Y-123967054D01*
X109343842Y-123500189D01*
X109201297Y-123052532D01*
X109010766Y-122696073D01*
X108669609Y-122509997D01*
X107179605Y-124000000D01*
X106820395Y-124000000D01*
X105330391Y-122509997D01*
X104989234Y-122696073D01*
X104773487Y-123113409D01*
X104660000Y-123506922D01*
X104660000Y-122330391D01*
X105509997Y-122330391D01*
X107000000Y-123820395D01*
X108490003Y-122330391D01*
X198009997Y-122330391D01*
X199500000Y-123820395D01*
X200990003Y-122330391D01*
X200803927Y-121989234D01*
X200386591Y-121773487D01*
X199935185Y-121643304D01*
X199467054Y-121603687D01*
X199000189Y-121656158D01*
X198552532Y-121798703D01*
X198196073Y-121989234D01*
X198009997Y-122330391D01*
X108490003Y-122330391D01*
X108303927Y-121989234D01*
X107886591Y-121773487D01*
X107435185Y-121643304D01*
X106967054Y-121603687D01*
X106500189Y-121656158D01*
X106052532Y-121798703D01*
X105696073Y-121989234D01*
X105509997Y-122330391D01*
X104660000Y-122330391D01*
X104660000Y-116034872D01*
X104765000Y-116034872D01*
X104765000Y-116475128D01*
X104850890Y-116906925D01*
X105019369Y-117313669D01*
X105263962Y-117679729D01*
X105575271Y-117991038D01*
X105941331Y-118235631D01*
X106348075Y-118404110D01*
X106779872Y-118490000D01*
X107220128Y-118490000D01*
X107651925Y-118404110D01*
X108058669Y-118235631D01*
X108424729Y-117991038D01*
X108736038Y-117679729D01*
X108980631Y-117313669D01*
X109149110Y-116906925D01*
X109235000Y-116475128D01*
X109235000Y-116034872D01*
X197265000Y-116034872D01*
X197265000Y-116475128D01*
X197350890Y-116906925D01*
X197519369Y-117313669D01*
X197763962Y-117679729D01*
X198075271Y-117991038D01*
X198441331Y-118235631D01*
X198848075Y-118404110D01*
X199279872Y-118490000D01*
X199720128Y-118490000D01*
X200151925Y-118404110D01*
X200558669Y-118235631D01*
X200924729Y-117991038D01*
X201236038Y-117679729D01*
X201480631Y-117313669D01*
X201649110Y-116906925D01*
X201735000Y-116475128D01*
X201735000Y-116034872D01*
X201649110Y-115603075D01*
X201480631Y-115196331D01*
X201236038Y-114830271D01*
X200924729Y-114518962D01*
X200558669Y-114274369D01*
X200151925Y-114105890D01*
X199720128Y-114020000D01*
X199279872Y-114020000D01*
X198848075Y-114105890D01*
X198441331Y-114274369D01*
X198075271Y-114518962D01*
X197763962Y-114830271D01*
X197519369Y-115196331D01*
X197350890Y-115603075D01*
X197265000Y-116034872D01*
X109235000Y-116034872D01*
X109149110Y-115603075D01*
X108980631Y-115196331D01*
X108736038Y-114830271D01*
X108424729Y-114518962D01*
X108058669Y-114274369D01*
X107651925Y-114105890D01*
X107220128Y-114020000D01*
X106779872Y-114020000D01*
X106348075Y-114105890D01*
X105941331Y-114274369D01*
X105575271Y-114518962D01*
X105263962Y-114830271D01*
X105019369Y-115196331D01*
X104850890Y-115603075D01*
X104765000Y-116034872D01*
X104660000Y-116034872D01*
X104660000Y-102127000D01*
X117349315Y-102127000D01*
X117349550Y-102129383D01*
G36*
X109877000Y-132123000D02*
G01*
X112817397Y-132123000D01*
X112813021Y-132334390D01*
X112820584Y-132377000D01*
X109877000Y-132377000D01*
X109877000Y-132397000D01*
X109623000Y-132397000D01*
X109623000Y-132377000D01*
X109603000Y-132377000D01*
X109603000Y-132123000D01*
X109623000Y-132123000D01*
X109623000Y-130107603D01*
X109834390Y-130111979D01*
X109877000Y-130104416D01*
X109877000Y-132123000D01*
X109877000Y-132123000D01*
G37*
X109877000Y-132123000D02*
X112817397Y-132123000D01*
X112813021Y-132334390D01*
X112820584Y-132377000D01*
X109877000Y-132377000D01*
X109877000Y-132397000D01*
X109623000Y-132397000D01*
X109623000Y-132377000D01*
X109603000Y-132377000D01*
X109603000Y-132123000D01*
X109623000Y-132123000D01*
X109623000Y-130107603D01*
X109834390Y-130111979D01*
X109877000Y-130104416D01*
X109877000Y-132123000D01*
G36*
X198377000Y-132123000D02*
G01*
X198397000Y-132123000D01*
X198397000Y-132377000D01*
X198377000Y-132377000D01*
X198377000Y-132397000D01*
X198123000Y-132397000D01*
X198123000Y-132377000D01*
X195182603Y-132377000D01*
X195186979Y-132165610D01*
X195179416Y-132123000D01*
X198123000Y-132123000D01*
X198123000Y-130107603D01*
X198334390Y-130111979D01*
X198377000Y-130104416D01*
X198377000Y-132123000D01*
X198377000Y-132123000D01*
G37*
X198377000Y-132123000D02*
X198397000Y-132123000D01*
X198397000Y-132377000D01*
X198377000Y-132377000D01*
X198377000Y-132397000D01*
X198123000Y-132397000D01*
X198123000Y-132377000D01*
X195182603Y-132377000D01*
X195186979Y-132165610D01*
X195179416Y-132123000D01*
X198123000Y-132123000D01*
X198123000Y-130107603D01*
X198334390Y-130111979D01*
X198377000Y-130104416D01*
X198377000Y-132123000D01*
G36*
X194293748Y-132235858D02*
G01*
X194279605Y-132250000D01*
X194293748Y-132264143D01*
X194180890Y-132377000D01*
X194019110Y-132377000D01*
X193906253Y-132264143D01*
X193920395Y-132250000D01*
X193906253Y-132235858D01*
X194019110Y-132123000D01*
X194180890Y-132123000D01*
X194293748Y-132235858D01*
X194293748Y-132235858D01*
G37*
X194293748Y-132235858D02*
X194279605Y-132250000D01*
X194293748Y-132264143D01*
X194180890Y-132377000D01*
X194019110Y-132377000D01*
X193906253Y-132264143D01*
X193920395Y-132250000D01*
X193906253Y-132235858D01*
X194019110Y-132123000D01*
X194180890Y-132123000D01*
X194293748Y-132235858D01*
G36*
X114093748Y-132235858D02*
G01*
X114079605Y-132250000D01*
X114093748Y-132264143D01*
X113980890Y-132377000D01*
X113819110Y-132377000D01*
X113706253Y-132264143D01*
X113720395Y-132250000D01*
X113706253Y-132235858D01*
X113819110Y-132123000D01*
X113980890Y-132123000D01*
X114093748Y-132235858D01*
X114093748Y-132235858D01*
G37*
X114093748Y-132235858D02*
X114079605Y-132250000D01*
X114093748Y-132264143D01*
X113980890Y-132377000D01*
X113819110Y-132377000D01*
X113706253Y-132264143D01*
X113720395Y-132250000D01*
X113706253Y-132235858D01*
X113819110Y-132123000D01*
X113980890Y-132123000D01*
X114093748Y-132235858D01*
G36*
X198377000Y-128944110D02*
G01*
X198377000Y-129105890D01*
X198264143Y-129218748D01*
X198250000Y-129204605D01*
X198235858Y-129218748D01*
X198123000Y-129105890D01*
X198123000Y-128944110D01*
X198235858Y-128831253D01*
X198250000Y-128845395D01*
X198264143Y-128831253D01*
X198377000Y-128944110D01*
X198377000Y-128944110D01*
G37*
X198377000Y-128944110D02*
X198377000Y-129105890D01*
X198264143Y-129218748D01*
X198250000Y-129204605D01*
X198235858Y-129218748D01*
X198123000Y-129105890D01*
X198123000Y-128944110D01*
X198235858Y-128831253D01*
X198250000Y-128845395D01*
X198264143Y-128831253D01*
X198377000Y-128944110D01*
G36*
X109877000Y-128944110D02*
G01*
X109877000Y-129105890D01*
X109764143Y-129218748D01*
X109750000Y-129204605D01*
X109735858Y-129218748D01*
X109623000Y-129105890D01*
X109623000Y-128944110D01*
X109735858Y-128831253D01*
X109750000Y-128845395D01*
X109764143Y-128831253D01*
X109877000Y-128944110D01*
X109877000Y-128944110D01*
G37*
X109877000Y-128944110D02*
X109877000Y-129105890D01*
X109764143Y-129218748D01*
X109750000Y-129204605D01*
X109735858Y-129218748D01*
X109623000Y-129105890D01*
X109623000Y-128944110D01*
X109735858Y-128831253D01*
X109750000Y-128845395D01*
X109764143Y-128831253D01*
X109877000Y-128944110D01*
G36*
X133832846Y-37661630D02*
G01*
X133857806Y-37686590D01*
X133777572Y-37783055D01*
X133530641Y-38237812D01*
X133381881Y-38709619D01*
X133610800Y-39095342D01*
X135133352Y-38962135D01*
X135421076Y-39249859D01*
X135948580Y-38722355D01*
X135501822Y-38275597D01*
X135447964Y-37660000D01*
X136196814Y-37660000D01*
X136264586Y-38434631D01*
X135976862Y-38722355D01*
X136504366Y-39249859D01*
X136951124Y-38803101D01*
X138249624Y-38689497D01*
X138408085Y-38269884D01*
X138167156Y-37811918D01*
X138066552Y-37687674D01*
X138092596Y-37661630D01*
X138090966Y-37660000D01*
X147084476Y-37660000D01*
X147082846Y-37661630D01*
X147107806Y-37686590D01*
X147027572Y-37783055D01*
X146780641Y-38237812D01*
X146631881Y-38709619D01*
X146860800Y-39095342D01*
X148383352Y-38962135D01*
X148671076Y-39249859D01*
X149198580Y-38722355D01*
X148751822Y-38275597D01*
X148697964Y-37660000D01*
X149446814Y-37660000D01*
X149514586Y-38434631D01*
X149226862Y-38722355D01*
X149754366Y-39249859D01*
X150201124Y-38803101D01*
X151499624Y-38689497D01*
X151658085Y-38269884D01*
X151417156Y-37811918D01*
X151316552Y-37687674D01*
X151342596Y-37661630D01*
X151340966Y-37660000D01*
X160334476Y-37660000D01*
X160332846Y-37661630D01*
X160357806Y-37686590D01*
X160277572Y-37783055D01*
X160030641Y-38237812D01*
X159881881Y-38709619D01*
X160110800Y-39095342D01*
X161633352Y-38962135D01*
X161921076Y-39249859D01*
X162448580Y-38722355D01*
X162001822Y-38275597D01*
X161947964Y-37660000D01*
X162696814Y-37660000D01*
X162764586Y-38434631D01*
X162476862Y-38722355D01*
X163004366Y-39249859D01*
X163451124Y-38803101D01*
X164749624Y-38689497D01*
X164908085Y-38269884D01*
X164667156Y-37811918D01*
X164566552Y-37687674D01*
X164592596Y-37661630D01*
X164590966Y-37660000D01*
X173584476Y-37660000D01*
X173582846Y-37661630D01*
X173607806Y-37686590D01*
X173527572Y-37783055D01*
X173280641Y-38237812D01*
X173131881Y-38709619D01*
X173360800Y-39095342D01*
X174883352Y-38962135D01*
X175171076Y-39249859D01*
X175698580Y-38722355D01*
X175251822Y-38275597D01*
X175197964Y-37660000D01*
X175946814Y-37660000D01*
X176014586Y-38434631D01*
X175726862Y-38722355D01*
X176254366Y-39249859D01*
X176701124Y-38803101D01*
X177999624Y-38689497D01*
X178158085Y-38269884D01*
X177917156Y-37811918D01*
X177816552Y-37687674D01*
X177842596Y-37661630D01*
X177840966Y-37660000D01*
X186834476Y-37660000D01*
X186832846Y-37661630D01*
X186857806Y-37686590D01*
X186777572Y-37783055D01*
X186530641Y-38237812D01*
X186381881Y-38709619D01*
X186610800Y-39095342D01*
X188133352Y-38962135D01*
X188421076Y-39249859D01*
X188948580Y-38722355D01*
X188501822Y-38275597D01*
X188447964Y-37660000D01*
X189196814Y-37660000D01*
X189264586Y-38434631D01*
X188976862Y-38722355D01*
X189504366Y-39249859D01*
X189951124Y-38803101D01*
X191249624Y-38689497D01*
X191408085Y-38269884D01*
X191167156Y-37811918D01*
X191066552Y-37687674D01*
X191092596Y-37661630D01*
X191090966Y-37660000D01*
X194046516Y-37660000D01*
X193498780Y-38176282D01*
X192880386Y-39045058D01*
X192443364Y-40017784D01*
X192310840Y-40534630D01*
X192468288Y-41377000D01*
X192811585Y-41377000D01*
X192805914Y-41393837D01*
X192766098Y-41701917D01*
X192787152Y-42011845D01*
X192817219Y-42123000D01*
X192468288Y-42123000D01*
X192310840Y-42965370D01*
X192443364Y-43482216D01*
X192880386Y-44454942D01*
X193498780Y-45323718D01*
X194274782Y-46055158D01*
X195178570Y-46621153D01*
X196175412Y-46999953D01*
X197227000Y-47177000D01*
X198127000Y-47177000D01*
X198127000Y-46513415D01*
X198143837Y-46519086D01*
X198451917Y-46558902D01*
X198761845Y-46537848D01*
X198873000Y-46507781D01*
X198873000Y-47177000D01*
X199773000Y-47177000D01*
X200824588Y-46999953D01*
X201821430Y-46621153D01*
X202725218Y-46055158D01*
X203340001Y-45475679D01*
X203340001Y-66873000D01*
X189900685Y-66873000D01*
X189900450Y-66870617D01*
X189862710Y-66746207D01*
X189801425Y-66631550D01*
X189718948Y-66531052D01*
X189618450Y-66448575D01*
X189503793Y-66387290D01*
X189379383Y-66349550D01*
X189282419Y-66340000D01*
X189250000Y-66336807D01*
X189217581Y-66340000D01*
X185282419Y-66340000D01*
X185250000Y-66336807D01*
X185217581Y-66340000D01*
X185120617Y-66349550D01*
X184996207Y-66387290D01*
X184881550Y-66448575D01*
X184781052Y-66531052D01*
X184698575Y-66631550D01*
X184637290Y-66746207D01*
X184599550Y-66870617D01*
X184599315Y-66873000D01*
X167650685Y-66873000D01*
X167650450Y-66870617D01*
X167612710Y-66746207D01*
X167551425Y-66631550D01*
X167468948Y-66531052D01*
X167368450Y-66448575D01*
X167253793Y-66387290D01*
X167129383Y-66349550D01*
X167032419Y-66340000D01*
X167000000Y-66336807D01*
X166967581Y-66340000D01*
X163032419Y-66340000D01*
X163000000Y-66336807D01*
X162967581Y-66340000D01*
X162870617Y-66349550D01*
X162746207Y-66387290D01*
X162631550Y-66448575D01*
X162531052Y-66531052D01*
X162448575Y-66631550D01*
X162387290Y-66746207D01*
X162349550Y-66870617D01*
X162349315Y-66873000D01*
X145650685Y-66873000D01*
X145650450Y-66870617D01*
X145612710Y-66746207D01*
X145551425Y-66631550D01*
X145468948Y-66531052D01*
X145368450Y-66448575D01*
X145253793Y-66387290D01*
X145129383Y-66349550D01*
X145032419Y-66340000D01*
X145000000Y-66336807D01*
X144967581Y-66340000D01*
X141032419Y-66340000D01*
X141000000Y-66336807D01*
X140967581Y-66340000D01*
X140870617Y-66349550D01*
X140746207Y-66387290D01*
X140631550Y-66448575D01*
X140531052Y-66531052D01*
X140448575Y-66631550D01*
X140387290Y-66746207D01*
X140349550Y-66870617D01*
X140349315Y-66873000D01*
X122650685Y-66873000D01*
X122650450Y-66870617D01*
X122612710Y-66746207D01*
X122551425Y-66631550D01*
X122468948Y-66531052D01*
X122368450Y-66448575D01*
X122253793Y-66387290D01*
X122129383Y-66349550D01*
X122032419Y-66340000D01*
X122000000Y-66336807D01*
X121967581Y-66340000D01*
X118032419Y-66340000D01*
X118000000Y-66336807D01*
X117967581Y-66340000D01*
X117870617Y-66349550D01*
X117746207Y-66387290D01*
X117631550Y-66448575D01*
X117531052Y-66531052D01*
X117448575Y-66631550D01*
X117387290Y-66746207D01*
X117349550Y-66870617D01*
X117349315Y-66873000D01*
X104660000Y-66873000D01*
X104660000Y-60424872D01*
X104765000Y-60424872D01*
X104765000Y-60865128D01*
X104850890Y-61296925D01*
X105019369Y-61703669D01*
X105263962Y-62069729D01*
X105575271Y-62381038D01*
X105941331Y-62625631D01*
X106348075Y-62794110D01*
X106779872Y-62880000D01*
X107220128Y-62880000D01*
X107651925Y-62794110D01*
X108058669Y-62625631D01*
X108424729Y-62381038D01*
X108736038Y-62069729D01*
X108980631Y-61703669D01*
X109149110Y-61296925D01*
X109235000Y-60865128D01*
X109235000Y-60424872D01*
X109149110Y-59993075D01*
X108980631Y-59586331D01*
X108736038Y-59220271D01*
X108424729Y-58908962D01*
X108058669Y-58664369D01*
X107651925Y-58495890D01*
X107220128Y-58410000D01*
X106779872Y-58410000D01*
X106348075Y-58495890D01*
X105941331Y-58664369D01*
X105575271Y-58908962D01*
X105263962Y-59220271D01*
X105019369Y-59586331D01*
X104850890Y-59993075D01*
X104765000Y-60424872D01*
X104660000Y-60424872D01*
X104660000Y-53992538D01*
X104660498Y-53994180D01*
X104719463Y-54104494D01*
X104798815Y-54201185D01*
X104895506Y-54280537D01*
X105005820Y-54339502D01*
X105125518Y-54375812D01*
X105250000Y-54388072D01*
X105718146Y-54388072D01*
X105999860Y-54619269D01*
X106544483Y-54910376D01*
X107135433Y-55089638D01*
X107595998Y-55135000D01*
X116201442Y-55135000D01*
X119892116Y-58825675D01*
X120249860Y-59119268D01*
X120794482Y-59410375D01*
X121385432Y-59589638D01*
X121999999Y-59650167D01*
X122614566Y-59589638D01*
X122910062Y-59500000D01*
X128849833Y-59500000D01*
X128865000Y-59653995D01*
X128865000Y-63154001D01*
X128910362Y-63614566D01*
X129089624Y-64205516D01*
X129380731Y-64750139D01*
X129772495Y-65227505D01*
X130249860Y-65619269D01*
X130794483Y-65910376D01*
X131385433Y-66089638D01*
X132000000Y-66150168D01*
X132614566Y-66089638D01*
X133205516Y-65910376D01*
X133714961Y-65638072D01*
X134750000Y-65638072D01*
X134874482Y-65625812D01*
X134994180Y-65589502D01*
X135104494Y-65530537D01*
X135201185Y-65451185D01*
X135280537Y-65354494D01*
X135339502Y-65244180D01*
X135375812Y-65124482D01*
X135388072Y-65000000D01*
X135388072Y-61500000D01*
X135375812Y-61375518D01*
X135339502Y-61255820D01*
X135280537Y-61145506D01*
X135201185Y-61048815D01*
X135135000Y-60994499D01*
X135135000Y-60798558D01*
X137325675Y-58607884D01*
X137619268Y-58250140D01*
X137910376Y-57705518D01*
X138089638Y-57114567D01*
X138150168Y-56500000D01*
X145099833Y-56500000D01*
X145160362Y-57114567D01*
X145339625Y-57705517D01*
X145630732Y-58250139D01*
X145924325Y-58607883D01*
X150908106Y-63591665D01*
X150910362Y-63614566D01*
X151089624Y-64205516D01*
X151380731Y-64750139D01*
X151615493Y-65036197D01*
X151624188Y-65124482D01*
X151660498Y-65244180D01*
X151719463Y-65354494D01*
X151798815Y-65451185D01*
X151895506Y-65530537D01*
X152005820Y-65589502D01*
X152125518Y-65625812D01*
X152250000Y-65638072D01*
X152285038Y-65638072D01*
X152794483Y-65910376D01*
X153385433Y-66089638D01*
X154000000Y-66150168D01*
X154614566Y-66089638D01*
X155205516Y-65910376D01*
X155714961Y-65638072D01*
X155750000Y-65638072D01*
X155874482Y-65625812D01*
X155994180Y-65589502D01*
X156104494Y-65530537D01*
X156201185Y-65451185D01*
X156280537Y-65354494D01*
X156339502Y-65244180D01*
X156375812Y-65124482D01*
X156384507Y-65036198D01*
X156619269Y-64750140D01*
X156910376Y-64205517D01*
X157089638Y-63614567D01*
X157135000Y-63154002D01*
X157135000Y-62403995D01*
X157150167Y-62250000D01*
X157135000Y-62096005D01*
X157135000Y-62095999D01*
X157089638Y-61635434D01*
X156910376Y-61044484D01*
X156619269Y-60499860D01*
X156227505Y-60022495D01*
X156107881Y-59924322D01*
X152683559Y-56500000D01*
X158099833Y-56500000D01*
X158160362Y-57114567D01*
X158339625Y-57705517D01*
X158630732Y-58250139D01*
X158924325Y-58607883D01*
X165424326Y-65107886D01*
X165522495Y-65227505D01*
X165999860Y-65619269D01*
X166544483Y-65910376D01*
X166956170Y-66035259D01*
X167135432Y-66089638D01*
X167197470Y-66095748D01*
X167595998Y-66135000D01*
X167596004Y-66135000D01*
X167749999Y-66150167D01*
X167903994Y-66135000D01*
X176154002Y-66135000D01*
X176614567Y-66089638D01*
X177205517Y-65910376D01*
X177750140Y-65619269D01*
X178227505Y-65227505D01*
X178619269Y-64750140D01*
X178910376Y-64205517D01*
X179089638Y-63614567D01*
X179150168Y-63000000D01*
X179089638Y-62385433D01*
X178910376Y-61794483D01*
X178619269Y-61249860D01*
X178227505Y-60772495D01*
X177803926Y-60424872D01*
X197265000Y-60424872D01*
X197265000Y-60865128D01*
X197350890Y-61296925D01*
X197519369Y-61703669D01*
X197763962Y-62069729D01*
X198075271Y-62381038D01*
X198441331Y-62625631D01*
X198848075Y-62794110D01*
X199279872Y-62880000D01*
X199720128Y-62880000D01*
X200151925Y-62794110D01*
X200558669Y-62625631D01*
X200924729Y-62381038D01*
X201236038Y-62069729D01*
X201480631Y-61703669D01*
X201649110Y-61296925D01*
X201735000Y-60865128D01*
X201735000Y-60424872D01*
X201649110Y-59993075D01*
X201480631Y-59586331D01*
X201236038Y-59220271D01*
X200924729Y-58908962D01*
X200558669Y-58664369D01*
X200151925Y-58495890D01*
X199720128Y-58410000D01*
X199279872Y-58410000D01*
X198848075Y-58495890D01*
X198441331Y-58664369D01*
X198075271Y-58908962D01*
X197763962Y-59220271D01*
X197519369Y-59586331D01*
X197350890Y-59993075D01*
X197265000Y-60424872D01*
X177803926Y-60424872D01*
X177750140Y-60380731D01*
X177205517Y-60089624D01*
X176614567Y-59910362D01*
X176154002Y-59865000D01*
X169048560Y-59865000D01*
X165683559Y-56500000D01*
X171349833Y-56500000D01*
X171410362Y-57114567D01*
X171589625Y-57705517D01*
X171880732Y-58250139D01*
X172272495Y-58727505D01*
X172749861Y-59119268D01*
X173294483Y-59410375D01*
X173885433Y-59589638D01*
X174500000Y-59650167D01*
X175114567Y-59589638D01*
X175705517Y-59410375D01*
X176250139Y-59119268D01*
X176607883Y-58825675D01*
X180298559Y-55135000D01*
X199654002Y-55135000D01*
X200114567Y-55089638D01*
X200705517Y-54910376D01*
X201250140Y-54619269D01*
X201727505Y-54227505D01*
X202119269Y-53750140D01*
X202410376Y-53205517D01*
X202589638Y-52614567D01*
X202650168Y-52000000D01*
X202589638Y-51385433D01*
X202410376Y-50794483D01*
X202119269Y-50249860D01*
X201727505Y-49772495D01*
X201250140Y-49380731D01*
X200705517Y-49089624D01*
X200114567Y-48910362D01*
X199654002Y-48865000D01*
X183461881Y-48865000D01*
X183490446Y-48822250D01*
X183640079Y-48461003D01*
X183716361Y-48077505D01*
X183716361Y-47686495D01*
X183640079Y-47302997D01*
X183490446Y-46941750D01*
X183273212Y-46616636D01*
X182996725Y-46340149D01*
X182671611Y-46122915D01*
X182310364Y-45973282D01*
X181926866Y-45897000D01*
X181535856Y-45897000D01*
X181152358Y-45973282D01*
X180791111Y-46122915D01*
X180465997Y-46340149D01*
X180189510Y-46616636D01*
X179972276Y-46941750D01*
X179822643Y-47302997D01*
X179746361Y-47686495D01*
X179746361Y-48077505D01*
X179822643Y-48461003D01*
X179972276Y-48822250D01*
X180000841Y-48865000D01*
X179153994Y-48865000D01*
X178999999Y-48849833D01*
X178846004Y-48865000D01*
X178845998Y-48865000D01*
X178447470Y-48904252D01*
X178385432Y-48910362D01*
X178206170Y-48964741D01*
X177794483Y-49089624D01*
X177249860Y-49380731D01*
X176772495Y-49772495D01*
X176674322Y-49892120D01*
X172174325Y-54392117D01*
X171880732Y-54749861D01*
X171589625Y-55294483D01*
X171410362Y-55885433D01*
X171349833Y-56500000D01*
X165683559Y-56500000D01*
X163357883Y-54174325D01*
X163000139Y-53880732D01*
X162455517Y-53589625D01*
X161864567Y-53410362D01*
X161250000Y-53349833D01*
X160635433Y-53410362D01*
X160044483Y-53589625D01*
X159499861Y-53880732D01*
X159022495Y-54272495D01*
X158630732Y-54749861D01*
X158339625Y-55294483D01*
X158160362Y-55885433D01*
X158099833Y-56500000D01*
X152683559Y-56500000D01*
X150357883Y-54174325D01*
X150000139Y-53880732D01*
X149455517Y-53589625D01*
X148864567Y-53410362D01*
X148250000Y-53349833D01*
X147635433Y-53410362D01*
X147044483Y-53589625D01*
X146499861Y-53880732D01*
X146022495Y-54272495D01*
X145630732Y-54749861D01*
X145339625Y-55294483D01*
X145160362Y-55885433D01*
X145099833Y-56500000D01*
X138150168Y-56500000D01*
X138089638Y-55885433D01*
X137910376Y-55294483D01*
X137619268Y-54749861D01*
X137227505Y-54272495D01*
X136750139Y-53880732D01*
X136205517Y-53589624D01*
X135614567Y-53410362D01*
X135000000Y-53349832D01*
X134385433Y-53410362D01*
X133794482Y-53589624D01*
X133249860Y-53880732D01*
X132892116Y-54174325D01*
X129892120Y-57174322D01*
X129772496Y-57272495D01*
X129380732Y-57749860D01*
X129321336Y-57860983D01*
X129089625Y-58294483D01*
X128910362Y-58885433D01*
X128884160Y-59151472D01*
X128865000Y-59345998D01*
X128865000Y-59346005D01*
X128849833Y-59500000D01*
X122910062Y-59500000D01*
X123205517Y-59410375D01*
X123750139Y-59119268D01*
X124227505Y-58727505D01*
X124619268Y-58250139D01*
X124910375Y-57705517D01*
X125089638Y-57114566D01*
X125150167Y-56499999D01*
X125089638Y-55885432D01*
X124910375Y-55294482D01*
X124619268Y-54749860D01*
X124325675Y-54392116D01*
X119825683Y-49892125D01*
X119727505Y-49772495D01*
X119250140Y-49380731D01*
X118705517Y-49089624D01*
X118114567Y-48910362D01*
X117654002Y-48865000D01*
X117653995Y-48865000D01*
X117500000Y-48849833D01*
X117346005Y-48865000D01*
X107595998Y-48865000D01*
X107135433Y-48910362D01*
X106544483Y-49089624D01*
X105999860Y-49380731D01*
X105718146Y-49611928D01*
X105250000Y-49611928D01*
X105125518Y-49624188D01*
X105005820Y-49660498D01*
X104895506Y-49719463D01*
X104798815Y-49798815D01*
X104719463Y-49895506D01*
X104660498Y-50005820D01*
X104660000Y-50007462D01*
X104660000Y-47686495D01*
X126746361Y-47686495D01*
X126746361Y-48077505D01*
X126822643Y-48461003D01*
X126972276Y-48822250D01*
X127189510Y-49147364D01*
X127465997Y-49423851D01*
X127791111Y-49641085D01*
X128152358Y-49790718D01*
X128535856Y-49867000D01*
X128926866Y-49867000D01*
X129310364Y-49790718D01*
X129671611Y-49641085D01*
X129996725Y-49423851D01*
X130273212Y-49147364D01*
X130490446Y-48822250D01*
X130640079Y-48461003D01*
X130716361Y-48077505D01*
X130716361Y-47686495D01*
X139996361Y-47686495D01*
X139996361Y-48077505D01*
X140072643Y-48461003D01*
X140222276Y-48822250D01*
X140439510Y-49147364D01*
X140715997Y-49423851D01*
X141041111Y-49641085D01*
X141402358Y-49790718D01*
X141785856Y-49867000D01*
X142176866Y-49867000D01*
X142560364Y-49790718D01*
X142921611Y-49641085D01*
X143246725Y-49423851D01*
X143523212Y-49147364D01*
X143740446Y-48822250D01*
X143890079Y-48461003D01*
X143966361Y-48077505D01*
X143966361Y-47686495D01*
X153246361Y-47686495D01*
X153246361Y-48077505D01*
X153322643Y-48461003D01*
X153472276Y-48822250D01*
X153689510Y-49147364D01*
X153965997Y-49423851D01*
X154291111Y-49641085D01*
X154652358Y-49790718D01*
X155035856Y-49867000D01*
X155426866Y-49867000D01*
X155810364Y-49790718D01*
X156171611Y-49641085D01*
X156496725Y-49423851D01*
X156773212Y-49147364D01*
X156990446Y-48822250D01*
X157140079Y-48461003D01*
X157216361Y-48077505D01*
X157216361Y-47686495D01*
X166496361Y-47686495D01*
X166496361Y-48077505D01*
X166572643Y-48461003D01*
X166722276Y-48822250D01*
X166939510Y-49147364D01*
X167215997Y-49423851D01*
X167541111Y-49641085D01*
X167902358Y-49790718D01*
X168285856Y-49867000D01*
X168676866Y-49867000D01*
X169060364Y-49790718D01*
X169421611Y-49641085D01*
X169746725Y-49423851D01*
X170023212Y-49147364D01*
X170240446Y-48822250D01*
X170390079Y-48461003D01*
X170466361Y-48077505D01*
X170466361Y-47686495D01*
X170390079Y-47302997D01*
X170240446Y-46941750D01*
X170023212Y-46616636D01*
X169746725Y-46340149D01*
X169421611Y-46122915D01*
X169060364Y-45973282D01*
X168676866Y-45897000D01*
X168285856Y-45897000D01*
X167902358Y-45973282D01*
X167541111Y-46122915D01*
X167215997Y-46340149D01*
X166939510Y-46616636D01*
X166722276Y-46941750D01*
X166572643Y-47302997D01*
X166496361Y-47686495D01*
X157216361Y-47686495D01*
X157140079Y-47302997D01*
X156990446Y-46941750D01*
X156773212Y-46616636D01*
X156496725Y-46340149D01*
X156171611Y-46122915D01*
X155810364Y-45973282D01*
X155426866Y-45897000D01*
X155035856Y-45897000D01*
X154652358Y-45973282D01*
X154291111Y-46122915D01*
X153965997Y-46340149D01*
X153689510Y-46616636D01*
X153472276Y-46941750D01*
X153322643Y-47302997D01*
X153246361Y-47686495D01*
X143966361Y-47686495D01*
X143890079Y-47302997D01*
X143740446Y-46941750D01*
X143523212Y-46616636D01*
X143246725Y-46340149D01*
X142921611Y-46122915D01*
X142560364Y-45973282D01*
X142176866Y-45897000D01*
X141785856Y-45897000D01*
X141402358Y-45973282D01*
X141041111Y-46122915D01*
X140715997Y-46340149D01*
X140439510Y-46616636D01*
X140222276Y-46941750D01*
X140072643Y-47302997D01*
X139996361Y-47686495D01*
X130716361Y-47686495D01*
X130640079Y-47302997D01*
X130490446Y-46941750D01*
X130273212Y-46616636D01*
X129996725Y-46340149D01*
X129671611Y-46122915D01*
X129310364Y-45973282D01*
X128926866Y-45897000D01*
X128535856Y-45897000D01*
X128152358Y-45973282D01*
X127791111Y-46122915D01*
X127465997Y-46340149D01*
X127189510Y-46616636D01*
X126972276Y-46941750D01*
X126822643Y-47302997D01*
X126746361Y-47686495D01*
X104660000Y-47686495D01*
X104660000Y-45198992D01*
X104748780Y-45323718D01*
X105524782Y-46055158D01*
X106428570Y-46621153D01*
X107425412Y-46999953D01*
X108477000Y-47177000D01*
X109377000Y-47177000D01*
X109377000Y-46513415D01*
X109393837Y-46519086D01*
X109701917Y-46558902D01*
X110011845Y-46537848D01*
X110123000Y-46507781D01*
X110123000Y-47177000D01*
X111023000Y-47177000D01*
X112074588Y-46999953D01*
X113071430Y-46621153D01*
X113975218Y-46055158D01*
X114751220Y-45323718D01*
X115369614Y-44454942D01*
X115806636Y-43482216D01*
X115939160Y-42965370D01*
X115781712Y-42123000D01*
X115438415Y-42123000D01*
X115444086Y-42106163D01*
X115483902Y-41798083D01*
X115462848Y-41488155D01*
X115432781Y-41377000D01*
X115781712Y-41377000D01*
X115939160Y-40534630D01*
X115868260Y-40258116D01*
X133517357Y-40258116D01*
X133758286Y-40716082D01*
X134083931Y-41118244D01*
X134481776Y-41449149D01*
X134936533Y-41696080D01*
X135408340Y-41844840D01*
X135794063Y-41615921D01*
X135623649Y-39668090D01*
X133675818Y-39838503D01*
X133517357Y-40258116D01*
X115868260Y-40258116D01*
X115806636Y-40017784D01*
X115620317Y-39603072D01*
X136366811Y-39603072D01*
X136537224Y-41550903D01*
X136956837Y-41709364D01*
X137414803Y-41468435D01*
X137816965Y-41142790D01*
X138147870Y-40744945D01*
X138394801Y-40290188D01*
X138404913Y-40258116D01*
X146767357Y-40258116D01*
X147008286Y-40716082D01*
X147333931Y-41118244D01*
X147731776Y-41449149D01*
X148186533Y-41696080D01*
X148658340Y-41844840D01*
X149044063Y-41615921D01*
X148873649Y-39668090D01*
X146925818Y-39838503D01*
X146767357Y-40258116D01*
X138404913Y-40258116D01*
X138543561Y-39818381D01*
X138415780Y-39603072D01*
X149616811Y-39603072D01*
X149787224Y-41550903D01*
X150206837Y-41709364D01*
X150664803Y-41468435D01*
X151066965Y-41142790D01*
X151397870Y-40744945D01*
X151644801Y-40290188D01*
X151654913Y-40258116D01*
X160017357Y-40258116D01*
X160258286Y-40716082D01*
X160583931Y-41118244D01*
X160981776Y-41449149D01*
X161436533Y-41696080D01*
X161908340Y-41844840D01*
X162294063Y-41615921D01*
X162123649Y-39668090D01*
X160175818Y-39838503D01*
X160017357Y-40258116D01*
X151654913Y-40258116D01*
X151793561Y-39818381D01*
X151665780Y-39603072D01*
X162866811Y-39603072D01*
X163037224Y-41550903D01*
X163456837Y-41709364D01*
X163914803Y-41468435D01*
X164316965Y-41142790D01*
X164647870Y-40744945D01*
X164894801Y-40290188D01*
X164904913Y-40258116D01*
X173267357Y-40258116D01*
X173508286Y-40716082D01*
X173833931Y-41118244D01*
X174231776Y-41449149D01*
X174686533Y-41696080D01*
X175158340Y-41844840D01*
X175544063Y-41615921D01*
X175373649Y-39668090D01*
X173425818Y-39838503D01*
X173267357Y-40258116D01*
X164904913Y-40258116D01*
X165043561Y-39818381D01*
X164915780Y-39603072D01*
X176116811Y-39603072D01*
X176287224Y-41550903D01*
X176706837Y-41709364D01*
X177164803Y-41468435D01*
X177566965Y-41142790D01*
X177897870Y-40744945D01*
X178144801Y-40290188D01*
X178154913Y-40258116D01*
X186517357Y-40258116D01*
X186758286Y-40716082D01*
X187083931Y-41118244D01*
X187481776Y-41449149D01*
X187936533Y-41696080D01*
X188408340Y-41844840D01*
X188794063Y-41615921D01*
X188623649Y-39668090D01*
X186675818Y-39838503D01*
X186517357Y-40258116D01*
X178154913Y-40258116D01*
X178293561Y-39818381D01*
X178165780Y-39603072D01*
X189366811Y-39603072D01*
X189537224Y-41550903D01*
X189956837Y-41709364D01*
X190414803Y-41468435D01*
X190816965Y-41142790D01*
X191147870Y-40744945D01*
X191394801Y-40290188D01*
X191543561Y-39818381D01*
X191314642Y-39432658D01*
X189366811Y-39603072D01*
X178165780Y-39603072D01*
X178064642Y-39432658D01*
X176116811Y-39603072D01*
X164915780Y-39603072D01*
X164814642Y-39432658D01*
X162866811Y-39603072D01*
X151665780Y-39603072D01*
X151564642Y-39432658D01*
X149616811Y-39603072D01*
X138415780Y-39603072D01*
X138314642Y-39432658D01*
X136366811Y-39603072D01*
X115620317Y-39603072D01*
X115369614Y-39045058D01*
X114751220Y-38176282D01*
X114203484Y-37660000D01*
X133834476Y-37660000D01*
X133832846Y-37661630D01*
X133832846Y-37661630D01*
G37*
X133832846Y-37661630D02*
X133857806Y-37686590D01*
X133777572Y-37783055D01*
X133530641Y-38237812D01*
X133381881Y-38709619D01*
X133610800Y-39095342D01*
X135133352Y-38962135D01*
X135421076Y-39249859D01*
X135948580Y-38722355D01*
X135501822Y-38275597D01*
X135447964Y-37660000D01*
X136196814Y-37660000D01*
X136264586Y-38434631D01*
X135976862Y-38722355D01*
X136504366Y-39249859D01*
X136951124Y-38803101D01*
X138249624Y-38689497D01*
X138408085Y-38269884D01*
X138167156Y-37811918D01*
X138066552Y-37687674D01*
X138092596Y-37661630D01*
X138090966Y-37660000D01*
X147084476Y-37660000D01*
X147082846Y-37661630D01*
X147107806Y-37686590D01*
X147027572Y-37783055D01*
X146780641Y-38237812D01*
X146631881Y-38709619D01*
X146860800Y-39095342D01*
X148383352Y-38962135D01*
X148671076Y-39249859D01*
X149198580Y-38722355D01*
X148751822Y-38275597D01*
X148697964Y-37660000D01*
X149446814Y-37660000D01*
X149514586Y-38434631D01*
X149226862Y-38722355D01*
X149754366Y-39249859D01*
X150201124Y-38803101D01*
X151499624Y-38689497D01*
X151658085Y-38269884D01*
X151417156Y-37811918D01*
X151316552Y-37687674D01*
X151342596Y-37661630D01*
X151340966Y-37660000D01*
X160334476Y-37660000D01*
X160332846Y-37661630D01*
X160357806Y-37686590D01*
X160277572Y-37783055D01*
X160030641Y-38237812D01*
X159881881Y-38709619D01*
X160110800Y-39095342D01*
X161633352Y-38962135D01*
X161921076Y-39249859D01*
X162448580Y-38722355D01*
X162001822Y-38275597D01*
X161947964Y-37660000D01*
X162696814Y-37660000D01*
X162764586Y-38434631D01*
X162476862Y-38722355D01*
X163004366Y-39249859D01*
X163451124Y-38803101D01*
X164749624Y-38689497D01*
X164908085Y-38269884D01*
X164667156Y-37811918D01*
X164566552Y-37687674D01*
X164592596Y-37661630D01*
X164590966Y-37660000D01*
X173584476Y-37660000D01*
X173582846Y-37661630D01*
X173607806Y-37686590D01*
X173527572Y-37783055D01*
X173280641Y-38237812D01*
X173131881Y-38709619D01*
X173360800Y-39095342D01*
X174883352Y-38962135D01*
X175171076Y-39249859D01*
X175698580Y-38722355D01*
X175251822Y-38275597D01*
X175197964Y-37660000D01*
X175946814Y-37660000D01*
X176014586Y-38434631D01*
X175726862Y-38722355D01*
X176254366Y-39249859D01*
X176701124Y-38803101D01*
X177999624Y-38689497D01*
X178158085Y-38269884D01*
X177917156Y-37811918D01*
X177816552Y-37687674D01*
X177842596Y-37661630D01*
X177840966Y-37660000D01*
X186834476Y-37660000D01*
X186832846Y-37661630D01*
X186857806Y-37686590D01*
X186777572Y-37783055D01*
X186530641Y-38237812D01*
X186381881Y-38709619D01*
X186610800Y-39095342D01*
X188133352Y-38962135D01*
X188421076Y-39249859D01*
X188948580Y-38722355D01*
X188501822Y-38275597D01*
X188447964Y-37660000D01*
X189196814Y-37660000D01*
X189264586Y-38434631D01*
X188976862Y-38722355D01*
X189504366Y-39249859D01*
X189951124Y-38803101D01*
X191249624Y-38689497D01*
X191408085Y-38269884D01*
X191167156Y-37811918D01*
X191066552Y-37687674D01*
X191092596Y-37661630D01*
X191090966Y-37660000D01*
X194046516Y-37660000D01*
X193498780Y-38176282D01*
X192880386Y-39045058D01*
X192443364Y-40017784D01*
X192310840Y-40534630D01*
X192468288Y-41377000D01*
X192811585Y-41377000D01*
X192805914Y-41393837D01*
X192766098Y-41701917D01*
X192787152Y-42011845D01*
X192817219Y-42123000D01*
X192468288Y-42123000D01*
X192310840Y-42965370D01*
X192443364Y-43482216D01*
X192880386Y-44454942D01*
X193498780Y-45323718D01*
X194274782Y-46055158D01*
X195178570Y-46621153D01*
X196175412Y-46999953D01*
X197227000Y-47177000D01*
X198127000Y-47177000D01*
X198127000Y-46513415D01*
X198143837Y-46519086D01*
X198451917Y-46558902D01*
X198761845Y-46537848D01*
X198873000Y-46507781D01*
X198873000Y-47177000D01*
X199773000Y-47177000D01*
X200824588Y-46999953D01*
X201821430Y-46621153D01*
X202725218Y-46055158D01*
X203340001Y-45475679D01*
X203340001Y-66873000D01*
X189900685Y-66873000D01*
X189900450Y-66870617D01*
X189862710Y-66746207D01*
X189801425Y-66631550D01*
X189718948Y-66531052D01*
X189618450Y-66448575D01*
X189503793Y-66387290D01*
X189379383Y-66349550D01*
X189282419Y-66340000D01*
X189250000Y-66336807D01*
X189217581Y-66340000D01*
X185282419Y-66340000D01*
X185250000Y-66336807D01*
X185217581Y-66340000D01*
X185120617Y-66349550D01*
X184996207Y-66387290D01*
X184881550Y-66448575D01*
X184781052Y-66531052D01*
X184698575Y-66631550D01*
X184637290Y-66746207D01*
X184599550Y-66870617D01*
X184599315Y-66873000D01*
X167650685Y-66873000D01*
X167650450Y-66870617D01*
X167612710Y-66746207D01*
X167551425Y-66631550D01*
X167468948Y-66531052D01*
X167368450Y-66448575D01*
X167253793Y-66387290D01*
X167129383Y-66349550D01*
X167032419Y-66340000D01*
X167000000Y-66336807D01*
X166967581Y-66340000D01*
X163032419Y-66340000D01*
X163000000Y-66336807D01*
X162967581Y-66340000D01*
X162870617Y-66349550D01*
X162746207Y-66387290D01*
X162631550Y-66448575D01*
X162531052Y-66531052D01*
X162448575Y-66631550D01*
X162387290Y-66746207D01*
X162349550Y-66870617D01*
X162349315Y-66873000D01*
X145650685Y-66873000D01*
X145650450Y-66870617D01*
X145612710Y-66746207D01*
X145551425Y-66631550D01*
X145468948Y-66531052D01*
X145368450Y-66448575D01*
X145253793Y-66387290D01*
X145129383Y-66349550D01*
X145032419Y-66340000D01*
X145000000Y-66336807D01*
X144967581Y-66340000D01*
X141032419Y-66340000D01*
X141000000Y-66336807D01*
X140967581Y-66340000D01*
X140870617Y-66349550D01*
X140746207Y-66387290D01*
X140631550Y-66448575D01*
X140531052Y-66531052D01*
X140448575Y-66631550D01*
X140387290Y-66746207D01*
X140349550Y-66870617D01*
X140349315Y-66873000D01*
X122650685Y-66873000D01*
X122650450Y-66870617D01*
X122612710Y-66746207D01*
X122551425Y-66631550D01*
X122468948Y-66531052D01*
X122368450Y-66448575D01*
X122253793Y-66387290D01*
X122129383Y-66349550D01*
X122032419Y-66340000D01*
X122000000Y-66336807D01*
X121967581Y-66340000D01*
X118032419Y-66340000D01*
X118000000Y-66336807D01*
X117967581Y-66340000D01*
X117870617Y-66349550D01*
X117746207Y-66387290D01*
X117631550Y-66448575D01*
X117531052Y-66531052D01*
X117448575Y-66631550D01*
X117387290Y-66746207D01*
X117349550Y-66870617D01*
X117349315Y-66873000D01*
X104660000Y-66873000D01*
X104660000Y-60424872D01*
X104765000Y-60424872D01*
X104765000Y-60865128D01*
X104850890Y-61296925D01*
X105019369Y-61703669D01*
X105263962Y-62069729D01*
X105575271Y-62381038D01*
X105941331Y-62625631D01*
X106348075Y-62794110D01*
X106779872Y-62880000D01*
X107220128Y-62880000D01*
X107651925Y-62794110D01*
X108058669Y-62625631D01*
X108424729Y-62381038D01*
X108736038Y-62069729D01*
X108980631Y-61703669D01*
X109149110Y-61296925D01*
X109235000Y-60865128D01*
X109235000Y-60424872D01*
X109149110Y-59993075D01*
X108980631Y-59586331D01*
X108736038Y-59220271D01*
X108424729Y-58908962D01*
X108058669Y-58664369D01*
X107651925Y-58495890D01*
X107220128Y-58410000D01*
X106779872Y-58410000D01*
X106348075Y-58495890D01*
X105941331Y-58664369D01*
X105575271Y-58908962D01*
X105263962Y-59220271D01*
X105019369Y-59586331D01*
X104850890Y-59993075D01*
X104765000Y-60424872D01*
X104660000Y-60424872D01*
X104660000Y-53992538D01*
X104660498Y-53994180D01*
X104719463Y-54104494D01*
X104798815Y-54201185D01*
X104895506Y-54280537D01*
X105005820Y-54339502D01*
X105125518Y-54375812D01*
X105250000Y-54388072D01*
X105718146Y-54388072D01*
X105999860Y-54619269D01*
X106544483Y-54910376D01*
X107135433Y-55089638D01*
X107595998Y-55135000D01*
X116201442Y-55135000D01*
X119892116Y-58825675D01*
X120249860Y-59119268D01*
X120794482Y-59410375D01*
X121385432Y-59589638D01*
X121999999Y-59650167D01*
X122614566Y-59589638D01*
X122910062Y-59500000D01*
X128849833Y-59500000D01*
X128865000Y-59653995D01*
X128865000Y-63154001D01*
X128910362Y-63614566D01*
X129089624Y-64205516D01*
X129380731Y-64750139D01*
X129772495Y-65227505D01*
X130249860Y-65619269D01*
X130794483Y-65910376D01*
X131385433Y-66089638D01*
X132000000Y-66150168D01*
X132614566Y-66089638D01*
X133205516Y-65910376D01*
X133714961Y-65638072D01*
X134750000Y-65638072D01*
X134874482Y-65625812D01*
X134994180Y-65589502D01*
X135104494Y-65530537D01*
X135201185Y-65451185D01*
X135280537Y-65354494D01*
X135339502Y-65244180D01*
X135375812Y-65124482D01*
X135388072Y-65000000D01*
X135388072Y-61500000D01*
X135375812Y-61375518D01*
X135339502Y-61255820D01*
X135280537Y-61145506D01*
X135201185Y-61048815D01*
X135135000Y-60994499D01*
X135135000Y-60798558D01*
X137325675Y-58607884D01*
X137619268Y-58250140D01*
X137910376Y-57705518D01*
X138089638Y-57114567D01*
X138150168Y-56500000D01*
X145099833Y-56500000D01*
X145160362Y-57114567D01*
X145339625Y-57705517D01*
X145630732Y-58250139D01*
X145924325Y-58607883D01*
X150908106Y-63591665D01*
X150910362Y-63614566D01*
X151089624Y-64205516D01*
X151380731Y-64750139D01*
X151615493Y-65036197D01*
X151624188Y-65124482D01*
X151660498Y-65244180D01*
X151719463Y-65354494D01*
X151798815Y-65451185D01*
X151895506Y-65530537D01*
X152005820Y-65589502D01*
X152125518Y-65625812D01*
X152250000Y-65638072D01*
X152285038Y-65638072D01*
X152794483Y-65910376D01*
X153385433Y-66089638D01*
X154000000Y-66150168D01*
X154614566Y-66089638D01*
X155205516Y-65910376D01*
X155714961Y-65638072D01*
X155750000Y-65638072D01*
X155874482Y-65625812D01*
X155994180Y-65589502D01*
X156104494Y-65530537D01*
X156201185Y-65451185D01*
X156280537Y-65354494D01*
X156339502Y-65244180D01*
X156375812Y-65124482D01*
X156384507Y-65036198D01*
X156619269Y-64750140D01*
X156910376Y-64205517D01*
X157089638Y-63614567D01*
X157135000Y-63154002D01*
X157135000Y-62403995D01*
X157150167Y-62250000D01*
X157135000Y-62096005D01*
X157135000Y-62095999D01*
X157089638Y-61635434D01*
X156910376Y-61044484D01*
X156619269Y-60499860D01*
X156227505Y-60022495D01*
X156107881Y-59924322D01*
X152683559Y-56500000D01*
X158099833Y-56500000D01*
X158160362Y-57114567D01*
X158339625Y-57705517D01*
X158630732Y-58250139D01*
X158924325Y-58607883D01*
X165424326Y-65107886D01*
X165522495Y-65227505D01*
X165999860Y-65619269D01*
X166544483Y-65910376D01*
X166956170Y-66035259D01*
X167135432Y-66089638D01*
X167197470Y-66095748D01*
X167595998Y-66135000D01*
X167596004Y-66135000D01*
X167749999Y-66150167D01*
X167903994Y-66135000D01*
X176154002Y-66135000D01*
X176614567Y-66089638D01*
X177205517Y-65910376D01*
X177750140Y-65619269D01*
X178227505Y-65227505D01*
X178619269Y-64750140D01*
X178910376Y-64205517D01*
X179089638Y-63614567D01*
X179150168Y-63000000D01*
X179089638Y-62385433D01*
X178910376Y-61794483D01*
X178619269Y-61249860D01*
X178227505Y-60772495D01*
X177803926Y-60424872D01*
X197265000Y-60424872D01*
X197265000Y-60865128D01*
X197350890Y-61296925D01*
X197519369Y-61703669D01*
X197763962Y-62069729D01*
X198075271Y-62381038D01*
X198441331Y-62625631D01*
X198848075Y-62794110D01*
X199279872Y-62880000D01*
X199720128Y-62880000D01*
X200151925Y-62794110D01*
X200558669Y-62625631D01*
X200924729Y-62381038D01*
X201236038Y-62069729D01*
X201480631Y-61703669D01*
X201649110Y-61296925D01*
X201735000Y-60865128D01*
X201735000Y-60424872D01*
X201649110Y-59993075D01*
X201480631Y-59586331D01*
X201236038Y-59220271D01*
X200924729Y-58908962D01*
X200558669Y-58664369D01*
X200151925Y-58495890D01*
X199720128Y-58410000D01*
X199279872Y-58410000D01*
X198848075Y-58495890D01*
X198441331Y-58664369D01*
X198075271Y-58908962D01*
X197763962Y-59220271D01*
X197519369Y-59586331D01*
X197350890Y-59993075D01*
X197265000Y-60424872D01*
X177803926Y-60424872D01*
X177750140Y-60380731D01*
X177205517Y-60089624D01*
X176614567Y-59910362D01*
X176154002Y-59865000D01*
X169048560Y-59865000D01*
X165683559Y-56500000D01*
X171349833Y-56500000D01*
X171410362Y-57114567D01*
X171589625Y-57705517D01*
X171880732Y-58250139D01*
X172272495Y-58727505D01*
X172749861Y-59119268D01*
X173294483Y-59410375D01*
X173885433Y-59589638D01*
X174500000Y-59650167D01*
X175114567Y-59589638D01*
X175705517Y-59410375D01*
X176250139Y-59119268D01*
X176607883Y-58825675D01*
X180298559Y-55135000D01*
X199654002Y-55135000D01*
X200114567Y-55089638D01*
X200705517Y-54910376D01*
X201250140Y-54619269D01*
X201727505Y-54227505D01*
X202119269Y-53750140D01*
X202410376Y-53205517D01*
X202589638Y-52614567D01*
X202650168Y-52000000D01*
X202589638Y-51385433D01*
X202410376Y-50794483D01*
X202119269Y-50249860D01*
X201727505Y-49772495D01*
X201250140Y-49380731D01*
X200705517Y-49089624D01*
X200114567Y-48910362D01*
X199654002Y-48865000D01*
X183461881Y-48865000D01*
X183490446Y-48822250D01*
X183640079Y-48461003D01*
X183716361Y-48077505D01*
X183716361Y-47686495D01*
X183640079Y-47302997D01*
X183490446Y-46941750D01*
X183273212Y-46616636D01*
X182996725Y-46340149D01*
X182671611Y-46122915D01*
X182310364Y-45973282D01*
X181926866Y-45897000D01*
X181535856Y-45897000D01*
X181152358Y-45973282D01*
X180791111Y-46122915D01*
X180465997Y-46340149D01*
X180189510Y-46616636D01*
X179972276Y-46941750D01*
X179822643Y-47302997D01*
X179746361Y-47686495D01*
X179746361Y-48077505D01*
X179822643Y-48461003D01*
X179972276Y-48822250D01*
X180000841Y-48865000D01*
X179153994Y-48865000D01*
X178999999Y-48849833D01*
X178846004Y-48865000D01*
X178845998Y-48865000D01*
X178447470Y-48904252D01*
X178385432Y-48910362D01*
X178206170Y-48964741D01*
X177794483Y-49089624D01*
X177249860Y-49380731D01*
X176772495Y-49772495D01*
X176674322Y-49892120D01*
X172174325Y-54392117D01*
X171880732Y-54749861D01*
X171589625Y-55294483D01*
X171410362Y-55885433D01*
X171349833Y-56500000D01*
X165683559Y-56500000D01*
X163357883Y-54174325D01*
X163000139Y-53880732D01*
X162455517Y-53589625D01*
X161864567Y-53410362D01*
X161250000Y-53349833D01*
X160635433Y-53410362D01*
X160044483Y-53589625D01*
X159499861Y-53880732D01*
X159022495Y-54272495D01*
X158630732Y-54749861D01*
X158339625Y-55294483D01*
X158160362Y-55885433D01*
X158099833Y-56500000D01*
X152683559Y-56500000D01*
X150357883Y-54174325D01*
X150000139Y-53880732D01*
X149455517Y-53589625D01*
X148864567Y-53410362D01*
X148250000Y-53349833D01*
X147635433Y-53410362D01*
X147044483Y-53589625D01*
X146499861Y-53880732D01*
X146022495Y-54272495D01*
X145630732Y-54749861D01*
X145339625Y-55294483D01*
X145160362Y-55885433D01*
X145099833Y-56500000D01*
X138150168Y-56500000D01*
X138089638Y-55885433D01*
X137910376Y-55294483D01*
X137619268Y-54749861D01*
X137227505Y-54272495D01*
X136750139Y-53880732D01*
X136205517Y-53589624D01*
X135614567Y-53410362D01*
X135000000Y-53349832D01*
X134385433Y-53410362D01*
X133794482Y-53589624D01*
X133249860Y-53880732D01*
X132892116Y-54174325D01*
X129892120Y-57174322D01*
X129772496Y-57272495D01*
X129380732Y-57749860D01*
X129321336Y-57860983D01*
X129089625Y-58294483D01*
X128910362Y-58885433D01*
X128884160Y-59151472D01*
X128865000Y-59345998D01*
X128865000Y-59346005D01*
X128849833Y-59500000D01*
X122910062Y-59500000D01*
X123205517Y-59410375D01*
X123750139Y-59119268D01*
X124227505Y-58727505D01*
X124619268Y-58250139D01*
X124910375Y-57705517D01*
X125089638Y-57114566D01*
X125150167Y-56499999D01*
X125089638Y-55885432D01*
X124910375Y-55294482D01*
X124619268Y-54749860D01*
X124325675Y-54392116D01*
X119825683Y-49892125D01*
X119727505Y-49772495D01*
X119250140Y-49380731D01*
X118705517Y-49089624D01*
X118114567Y-48910362D01*
X117654002Y-48865000D01*
X117653995Y-48865000D01*
X117500000Y-48849833D01*
X117346005Y-48865000D01*
X107595998Y-48865000D01*
X107135433Y-48910362D01*
X106544483Y-49089624D01*
X105999860Y-49380731D01*
X105718146Y-49611928D01*
X105250000Y-49611928D01*
X105125518Y-49624188D01*
X105005820Y-49660498D01*
X104895506Y-49719463D01*
X104798815Y-49798815D01*
X104719463Y-49895506D01*
X104660498Y-50005820D01*
X104660000Y-50007462D01*
X104660000Y-47686495D01*
X126746361Y-47686495D01*
X126746361Y-48077505D01*
X126822643Y-48461003D01*
X126972276Y-48822250D01*
X127189510Y-49147364D01*
X127465997Y-49423851D01*
X127791111Y-49641085D01*
X128152358Y-49790718D01*
X128535856Y-49867000D01*
X128926866Y-49867000D01*
X129310364Y-49790718D01*
X129671611Y-49641085D01*
X129996725Y-49423851D01*
X130273212Y-49147364D01*
X130490446Y-48822250D01*
X130640079Y-48461003D01*
X130716361Y-48077505D01*
X130716361Y-47686495D01*
X139996361Y-47686495D01*
X139996361Y-48077505D01*
X140072643Y-48461003D01*
X140222276Y-48822250D01*
X140439510Y-49147364D01*
X140715997Y-49423851D01*
X141041111Y-49641085D01*
X141402358Y-49790718D01*
X141785856Y-49867000D01*
X142176866Y-49867000D01*
X142560364Y-49790718D01*
X142921611Y-49641085D01*
X143246725Y-49423851D01*
X143523212Y-49147364D01*
X143740446Y-48822250D01*
X143890079Y-48461003D01*
X143966361Y-48077505D01*
X143966361Y-47686495D01*
X153246361Y-47686495D01*
X153246361Y-48077505D01*
X153322643Y-48461003D01*
X153472276Y-48822250D01*
X153689510Y-49147364D01*
X153965997Y-49423851D01*
X154291111Y-49641085D01*
X154652358Y-49790718D01*
X155035856Y-49867000D01*
X155426866Y-49867000D01*
X155810364Y-49790718D01*
X156171611Y-49641085D01*
X156496725Y-49423851D01*
X156773212Y-49147364D01*
X156990446Y-48822250D01*
X157140079Y-48461003D01*
X157216361Y-48077505D01*
X157216361Y-47686495D01*
X166496361Y-47686495D01*
X166496361Y-48077505D01*
X166572643Y-48461003D01*
X166722276Y-48822250D01*
X166939510Y-49147364D01*
X167215997Y-49423851D01*
X167541111Y-49641085D01*
X167902358Y-49790718D01*
X168285856Y-49867000D01*
X168676866Y-49867000D01*
X169060364Y-49790718D01*
X169421611Y-49641085D01*
X169746725Y-49423851D01*
X170023212Y-49147364D01*
X170240446Y-48822250D01*
X170390079Y-48461003D01*
X170466361Y-48077505D01*
X170466361Y-47686495D01*
X170390079Y-47302997D01*
X170240446Y-46941750D01*
X170023212Y-46616636D01*
X169746725Y-46340149D01*
X169421611Y-46122915D01*
X169060364Y-45973282D01*
X168676866Y-45897000D01*
X168285856Y-45897000D01*
X167902358Y-45973282D01*
X167541111Y-46122915D01*
X167215997Y-46340149D01*
X166939510Y-46616636D01*
X166722276Y-46941750D01*
X166572643Y-47302997D01*
X166496361Y-47686495D01*
X157216361Y-47686495D01*
X157140079Y-47302997D01*
X156990446Y-46941750D01*
X156773212Y-46616636D01*
X156496725Y-46340149D01*
X156171611Y-46122915D01*
X155810364Y-45973282D01*
X155426866Y-45897000D01*
X155035856Y-45897000D01*
X154652358Y-45973282D01*
X154291111Y-46122915D01*
X153965997Y-46340149D01*
X153689510Y-46616636D01*
X153472276Y-46941750D01*
X153322643Y-47302997D01*
X153246361Y-47686495D01*
X143966361Y-47686495D01*
X143890079Y-47302997D01*
X143740446Y-46941750D01*
X143523212Y-46616636D01*
X143246725Y-46340149D01*
X142921611Y-46122915D01*
X142560364Y-45973282D01*
X142176866Y-45897000D01*
X141785856Y-45897000D01*
X141402358Y-45973282D01*
X141041111Y-46122915D01*
X140715997Y-46340149D01*
X140439510Y-46616636D01*
X140222276Y-46941750D01*
X140072643Y-47302997D01*
X139996361Y-47686495D01*
X130716361Y-47686495D01*
X130640079Y-47302997D01*
X130490446Y-46941750D01*
X130273212Y-46616636D01*
X129996725Y-46340149D01*
X129671611Y-46122915D01*
X129310364Y-45973282D01*
X128926866Y-45897000D01*
X128535856Y-45897000D01*
X128152358Y-45973282D01*
X127791111Y-46122915D01*
X127465997Y-46340149D01*
X127189510Y-46616636D01*
X126972276Y-46941750D01*
X126822643Y-47302997D01*
X126746361Y-47686495D01*
X104660000Y-47686495D01*
X104660000Y-45198992D01*
X104748780Y-45323718D01*
X105524782Y-46055158D01*
X106428570Y-46621153D01*
X107425412Y-46999953D01*
X108477000Y-47177000D01*
X109377000Y-47177000D01*
X109377000Y-46513415D01*
X109393837Y-46519086D01*
X109701917Y-46558902D01*
X110011845Y-46537848D01*
X110123000Y-46507781D01*
X110123000Y-47177000D01*
X111023000Y-47177000D01*
X112074588Y-46999953D01*
X113071430Y-46621153D01*
X113975218Y-46055158D01*
X114751220Y-45323718D01*
X115369614Y-44454942D01*
X115806636Y-43482216D01*
X115939160Y-42965370D01*
X115781712Y-42123000D01*
X115438415Y-42123000D01*
X115444086Y-42106163D01*
X115483902Y-41798083D01*
X115462848Y-41488155D01*
X115432781Y-41377000D01*
X115781712Y-41377000D01*
X115939160Y-40534630D01*
X115868260Y-40258116D01*
X133517357Y-40258116D01*
X133758286Y-40716082D01*
X134083931Y-41118244D01*
X134481776Y-41449149D01*
X134936533Y-41696080D01*
X135408340Y-41844840D01*
X135794063Y-41615921D01*
X135623649Y-39668090D01*
X133675818Y-39838503D01*
X133517357Y-40258116D01*
X115868260Y-40258116D01*
X115806636Y-40017784D01*
X115620317Y-39603072D01*
X136366811Y-39603072D01*
X136537224Y-41550903D01*
X136956837Y-41709364D01*
X137414803Y-41468435D01*
X137816965Y-41142790D01*
X138147870Y-40744945D01*
X138394801Y-40290188D01*
X138404913Y-40258116D01*
X146767357Y-40258116D01*
X147008286Y-40716082D01*
X147333931Y-41118244D01*
X147731776Y-41449149D01*
X148186533Y-41696080D01*
X148658340Y-41844840D01*
X149044063Y-41615921D01*
X148873649Y-39668090D01*
X146925818Y-39838503D01*
X146767357Y-40258116D01*
X138404913Y-40258116D01*
X138543561Y-39818381D01*
X138415780Y-39603072D01*
X149616811Y-39603072D01*
X149787224Y-41550903D01*
X150206837Y-41709364D01*
X150664803Y-41468435D01*
X151066965Y-41142790D01*
X151397870Y-40744945D01*
X151644801Y-40290188D01*
X151654913Y-40258116D01*
X160017357Y-40258116D01*
X160258286Y-40716082D01*
X160583931Y-41118244D01*
X160981776Y-41449149D01*
X161436533Y-41696080D01*
X161908340Y-41844840D01*
X162294063Y-41615921D01*
X162123649Y-39668090D01*
X160175818Y-39838503D01*
X160017357Y-40258116D01*
X151654913Y-40258116D01*
X151793561Y-39818381D01*
X151665780Y-39603072D01*
X162866811Y-39603072D01*
X163037224Y-41550903D01*
X163456837Y-41709364D01*
X163914803Y-41468435D01*
X164316965Y-41142790D01*
X164647870Y-40744945D01*
X164894801Y-40290188D01*
X164904913Y-40258116D01*
X173267357Y-40258116D01*
X173508286Y-40716082D01*
X173833931Y-41118244D01*
X174231776Y-41449149D01*
X174686533Y-41696080D01*
X175158340Y-41844840D01*
X175544063Y-41615921D01*
X175373649Y-39668090D01*
X173425818Y-39838503D01*
X173267357Y-40258116D01*
X164904913Y-40258116D01*
X165043561Y-39818381D01*
X164915780Y-39603072D01*
X176116811Y-39603072D01*
X176287224Y-41550903D01*
X176706837Y-41709364D01*
X177164803Y-41468435D01*
X177566965Y-41142790D01*
X177897870Y-40744945D01*
X178144801Y-40290188D01*
X178154913Y-40258116D01*
X186517357Y-40258116D01*
X186758286Y-40716082D01*
X187083931Y-41118244D01*
X187481776Y-41449149D01*
X187936533Y-41696080D01*
X188408340Y-41844840D01*
X188794063Y-41615921D01*
X188623649Y-39668090D01*
X186675818Y-39838503D01*
X186517357Y-40258116D01*
X178154913Y-40258116D01*
X178293561Y-39818381D01*
X178165780Y-39603072D01*
X189366811Y-39603072D01*
X189537224Y-41550903D01*
X189956837Y-41709364D01*
X190414803Y-41468435D01*
X190816965Y-41142790D01*
X191147870Y-40744945D01*
X191394801Y-40290188D01*
X191543561Y-39818381D01*
X191314642Y-39432658D01*
X189366811Y-39603072D01*
X178165780Y-39603072D01*
X178064642Y-39432658D01*
X176116811Y-39603072D01*
X164915780Y-39603072D01*
X164814642Y-39432658D01*
X162866811Y-39603072D01*
X151665780Y-39603072D01*
X151564642Y-39432658D01*
X149616811Y-39603072D01*
X138415780Y-39603072D01*
X138314642Y-39432658D01*
X136366811Y-39603072D01*
X115620317Y-39603072D01*
X115369614Y-39045058D01*
X114751220Y-38176282D01*
X114203484Y-37660000D01*
X133834476Y-37660000D01*
X133832846Y-37661630D01*
G36*
X110123000Y-41377000D02*
G01*
X112361585Y-41377000D01*
X112355914Y-41393837D01*
X112316098Y-41701917D01*
X112337152Y-42011845D01*
X112367219Y-42123000D01*
X110123000Y-42123000D01*
X110123000Y-43436585D01*
X110106163Y-43430914D01*
X109798083Y-43391098D01*
X109488155Y-43412152D01*
X109377000Y-43442219D01*
X109377000Y-42123000D01*
X109357000Y-42123000D01*
X109357000Y-41377000D01*
X109377000Y-41377000D01*
X109377000Y-41357000D01*
X110123000Y-41357000D01*
X110123000Y-41377000D01*
X110123000Y-41377000D01*
G37*
X110123000Y-41377000D02*
X112361585Y-41377000D01*
X112355914Y-41393837D01*
X112316098Y-41701917D01*
X112337152Y-42011845D01*
X112367219Y-42123000D01*
X110123000Y-42123000D01*
X110123000Y-43436585D01*
X110106163Y-43430914D01*
X109798083Y-43391098D01*
X109488155Y-43412152D01*
X109377000Y-43442219D01*
X109377000Y-42123000D01*
X109357000Y-42123000D01*
X109357000Y-41377000D01*
X109377000Y-41377000D01*
X109377000Y-41357000D01*
X110123000Y-41357000D01*
X110123000Y-41377000D01*
G36*
X198873000Y-41377000D02*
G01*
X198893000Y-41377000D01*
X198893000Y-42123000D01*
X198873000Y-42123000D01*
X198873000Y-43436585D01*
X198856163Y-43430914D01*
X198548083Y-43391098D01*
X198238155Y-43412152D01*
X198127000Y-43442219D01*
X198127000Y-42123000D01*
X195888415Y-42123000D01*
X195894086Y-42106163D01*
X195933902Y-41798083D01*
X195912848Y-41488155D01*
X195882781Y-41377000D01*
X198127000Y-41377000D01*
X198127000Y-41357000D01*
X198873000Y-41357000D01*
X198873000Y-41377000D01*
X198873000Y-41377000D01*
G37*
X198873000Y-41377000D02*
X198893000Y-41377000D01*
X198893000Y-42123000D01*
X198873000Y-42123000D01*
X198873000Y-43436585D01*
X198856163Y-43430914D01*
X198548083Y-43391098D01*
X198238155Y-43412152D01*
X198127000Y-43442219D01*
X198127000Y-42123000D01*
X195888415Y-42123000D01*
X195894086Y-42106163D01*
X195933902Y-41798083D01*
X195912848Y-41488155D01*
X195882781Y-41377000D01*
X198127000Y-41377000D01*
X198127000Y-41357000D01*
X198873000Y-41357000D01*
X198873000Y-41377000D01*
M02*
